<svg width="18" height="18" viewBox="0 0 18 18" fill="none" xmlns="http://www.w3.org/2000/svg">
<path fill-rule="evenodd" clip-rule="evenodd" d="M13.5 8.25C13.5 11.1495 11.1495 13.5 8.25 13.5C5.3505 13.5 3 11.1495 3 8.25C3 5.3505 5.3505 3 8.25 3C11.1495 3 13.5 5.3505 13.5 8.25ZM13.5239 12.4633C14.4476 11.3085 15 9.84376 15 8.25C15 4.52208 11.9779 1.5 8.25 1.5C4.52208 1.5 1.5 4.52208 1.5 8.25C1.5 11.9779 4.52208 15 8.25 15C9.84376 15 11.3085 14.4476 12.4633 13.5239L14.4697 15.5303C14.7626 15.8232 15.2374 15.8232 15.5303 15.5303C15.8232 15.2374 15.8232 14.7626 15.5303 14.4697L13.5239 12.4633Z" fill="#1D2129"/>
</svg>
