<svg width="18" height="18" viewBox="0 0 18 18" fill="none" xmlns="http://www.w3.org/2000/svg">
<path d="M14.625 2.25H3.375C2.75368 2.25 2.25 2.75368 2.25 3.375V14.625C2.25 15.2463 2.75368 15.75 3.375 15.75H14.625C15.2463 15.75 15.75 15.2463 15.75 14.625V3.375C15.75 2.75368 15.2463 2.25 14.625 2.25Z" stroke="currentColor" stroke-width="1.5"/>
<path d="M13.1252 4.5H11.4055C11.0715 4.5 10.9041 4.90391 11.1404 5.14016L12.8601 6.85984C13.0963 7.09609 13.5002 6.92876 13.5002 6.59468V4.875C13.5002 4.66789 13.3323 4.5 13.1252 4.5Z" fill="currentColor"/>
<path d="M4.5 4.875V6.59468C4.5 6.92876 4.90391 7.09609 5.14016 6.85984L6.85984 5.14016C7.09609 4.90391 6.92876 4.5 6.59468 4.5H4.875C4.66789 4.5 4.5 4.66789 4.5 4.875Z" fill="currentColor"/>
<path d="M4.875 13.5H6.59468C6.92876 13.5 7.09609 13.0961 6.85984 12.8598L5.14016 11.1401C4.90391 10.9039 4.5 11.0712 4.5 11.4053V13.125C4.5 13.3321 4.66789 13.5 4.875 13.5Z" fill="currentColor"/>
<path d="M13.5002 13.125V11.4053C13.5002 11.0712 13.0963 10.9039 12.8601 11.1401L11.1404 12.8598C10.9041 13.0961 11.0715 13.5 11.4055 13.5H13.1252C13.3323 13.5 13.5002 13.3321 13.5002 13.125Z" fill="currentColor"/>
</svg>
