<svg width="24" height="24" viewBox="0 0 24 24" fill="none" xmlns="http://www.w3.org/2000/svg">
<path fill-rule="evenodd" clip-rule="evenodd" d="M4 13C4 17.4 7.6 21 12 21C16.4 21 20 17.4 20 13H18C18 16.3 15.3 19 12 19C8.7 19 6 16.3 6 13C6 9.7 8.7 7 12 7V11L17 6L12 1V5C7.6 5 4 8.6 4 13ZM10.8467 16H10V12.7363L8.98926 13.0498V12.3613L10.7559 11.7285H10.8467V16ZM15.1035 14.2363C15.1035 14.8262 14.9814 15.2773 14.7373 15.5898C14.4932 15.9023 14.1357 16.0586 13.665 16.0586C13.2002 16.0586 12.8447 15.9053 12.5986 15.5986C12.3525 15.292 12.2266 14.8525 12.2207 14.2803V13.4951C12.2207 12.8994 12.3442 12.4473 12.5913 12.1387C12.8384 11.8301 13.1943 11.6758 13.6592 11.6758C14.124 11.6758 14.4795 11.8286 14.7256 12.1343C14.9717 12.4399 15.0977 12.8789 15.1035 13.4512V14.2363ZM14.2568 13.375C14.2568 13.0215 14.2085 12.7642 14.1118 12.603C14.0151 12.4419 13.8643 12.3613 13.6592 12.3613C13.46 12.3613 13.313 12.438 13.2183 12.5913C13.1235 12.7446 13.0732 12.9844 13.0674 13.3105V14.3477C13.0674 14.6953 13.1147 14.9536 13.2095 15.1226C13.3042 15.2915 13.4561 15.376 13.665 15.376C13.8721 15.376 14.0215 15.2949 14.1133 15.1328C14.2051 14.9707 14.2529 14.7227 14.2568 14.3887V13.375Z" fill="black" fill-opacity="0.45"/>
</svg>
