<svg width="24" height="24" viewBox="0 0 24 24" fill="none" xmlns="http://www.w3.org/2000/svg">
<path fill-rule="evenodd" clip-rule="evenodd" d="M4 13C4 17.4 7.6 21 12 21C16.4 21 20 17.4 20 13H18C18 16.3 15.3 19 12 19C8.7 19 6 16.3 6 13C6 9.7 8.7 7 12 7V11L17 6L12 1V5C7.6 5 4 8.6 4 13ZM9.65137 13.4922H10.1025C10.3174 13.4922 10.4766 13.4385 10.5801 13.3311C10.6836 13.2236 10.7354 13.0811 10.7354 12.9033C10.7354 12.7314 10.6841 12.5977 10.5815 12.502C10.479 12.4062 10.3379 12.3584 10.1582 12.3584C9.99609 12.3584 9.86035 12.4028 9.75098 12.4917C9.6416 12.5806 9.58691 12.6963 9.58691 12.8389H8.74023C8.74023 12.6162 8.80029 12.4165 8.92041 12.2397C9.04053 12.063 9.2085 11.9248 9.42432 11.8252C9.64014 11.7256 9.87793 11.6758 10.1377 11.6758C10.5889 11.6758 10.9424 11.7837 11.1982 11.9995C11.4541 12.2153 11.582 12.5127 11.582 12.8916C11.582 13.0869 11.5225 13.2666 11.4033 13.4307C11.2842 13.5947 11.1279 13.7207 10.9346 13.8086C11.1748 13.8945 11.354 14.0234 11.4722 14.1953C11.5903 14.3672 11.6494 14.5703 11.6494 14.8047C11.6494 15.1836 11.5112 15.4873 11.2349 15.7158C10.9585 15.9443 10.5928 16.0586 10.1377 16.0586C9.71191 16.0586 9.36377 15.9463 9.09326 15.7217C8.82275 15.4971 8.6875 15.2002 8.6875 14.8311H9.53418C9.53418 14.9912 9.59424 15.1221 9.71436 15.2236C9.83447 15.3252 9.98242 15.376 10.1582 15.376C10.3594 15.376 10.5171 15.3228 10.6313 15.2163C10.7456 15.1099 10.8027 14.9688 10.8027 14.793C10.8027 14.3672 10.5684 14.1543 10.0996 14.1543H9.65137V13.4922ZM15.1035 14.2363C15.1035 14.8262 14.9814 15.2773 14.7373 15.5898C14.4932 15.9023 14.1357 16.0586 13.665 16.0586C13.2002 16.0586 12.8447 15.9053 12.5986 15.5986C12.3525 15.292 12.2266 14.8525 12.2207 14.2803V13.4951C12.2207 12.8994 12.3442 12.4473 12.5913 12.1387C12.8384 11.8301 13.1943 11.6758 13.6592 11.6758C14.124 11.6758 14.4795 11.8286 14.7256 12.1343C14.9717 12.4399 15.0977 12.8789 15.1035 13.4512V14.2363ZM14.2568 13.375C14.2568 13.0215 14.2085 12.7642 14.1118 12.603C14.0151 12.4419 13.8643 12.3613 13.6592 12.3613C13.46 12.3613 13.313 12.438 13.2183 12.5913C13.1235 12.7446 13.0732 12.9844 13.0674 13.3105V14.3477C13.0674 14.6953 13.1147 14.9536 13.2095 15.1226C13.3042 15.2915 13.4561 15.376 13.665 15.376C13.8721 15.376 14.0215 15.2949 14.1133 15.1328C14.2051 14.9707 14.2529 14.7227 14.2568 14.3887V13.375Z" fill="black" fill-opacity="0.45"/>
</svg>
