<svg width="24" height="24" viewBox="0 0 24 24" fill="none" xmlns="http://www.w3.org/2000/svg">
<path fill-rule="evenodd" clip-rule="evenodd" d="M12.5382 3.85742V4.17197C12.5382 4.43707 12.3233 4.65197 12.0582 4.65197C11.7931 4.65197 11.5782 4.43707 11.5782 4.17197V3.85064C7.31364 4.06886 3.90319 7.57641 3.84087 11.8799H4.41025C4.67535 11.8799 4.89025 12.0948 4.89025 12.3599C4.89025 12.625 4.67535 12.8399 4.41025 12.8399H3.88292C4.28867 16.7892 7.52276 19.9129 11.52 20.1459V19.7795C11.52 19.5144 11.7349 19.2995 12 19.2995C12.2651 19.2995 12.48 19.5144 12.48 19.7795V20.1459C16.5581 19.9082 19.8415 16.662 20.1382 12.5999H19.5264C19.2613 12.5999 19.0464 12.385 19.0464 12.1199C19.0464 11.8548 19.2613 11.6399 19.5264 11.6399H20.1522C19.971 7.4856 16.6692 4.12763 12.5382 3.85742ZM12.5382 2.89549C17.2058 3.1671 20.931 6.94902 21.113 11.6399H21.4464C21.7115 11.6399 21.9264 11.8548 21.9264 12.1199C21.9264 12.385 21.7115 12.5999 21.4464 12.5999H21.1006C20.8019 17.1985 17.0948 20.8682 12.48 21.1075V21.6995C12.48 21.9646 12.2651 22.1795 12 22.1795C11.7349 22.1795 11.52 21.9646 11.52 21.6995V21.1075C6.98602 20.8723 3.32787 17.3256 2.91818 12.8399H2.49025C2.22516 12.8399 2.01025 12.625 2.01025 12.3599C2.01025 12.0948 2.22516 11.8799 2.49025 11.8799H2.88077C2.94317 7.03946 6.77687 3.10807 11.5782 2.88946V2.25197C11.5782 1.98688 11.7931 1.77197 12.0582 1.77197C12.3233 1.77197 12.5382 1.98688 12.5382 2.25197V2.89549ZM13.1593 5.23185C13.7726 4.61847 14.7675 4.61847 15.3809 5.23185C15.5683 5.4193 15.5683 5.72322 15.3809 5.91067C15.1934 6.09813 14.8895 6.09813 14.702 5.91067C14.4635 5.67219 14.0766 5.67219 13.8381 5.91067C13.5996 6.14916 13.5996 6.53615 13.8381 6.77463C14.0255 6.96208 14.0255 7.266 13.8381 7.45345C13.6506 7.6409 13.3467 7.6409 13.1593 7.45345C12.5459 6.84007 12.5459 5.84524 13.1593 5.23185ZM10.7886 7.48563C10.9761 7.67308 11.28 7.67308 11.4674 7.48563C11.6549 7.29817 11.6549 6.99426 11.4674 6.8068L11.2316 6.57099C11.1416 6.48097 11.0195 6.4304 10.8922 6.4304H6.89222C6.62712 6.4304 6.41222 6.6453 6.41222 6.9104C6.41222 7.1755 6.62712 7.3904 6.89222 7.3904H10.6934L10.7886 7.48563ZM15.9295 6.63431C15.126 6.63431 14.4749 7.28558 14.4749 8.08886C14.4749 8.89213 15.126 9.5434 15.9295 9.5434C16.7327 9.5434 17.384 8.89213 17.384 8.08886C17.384 7.28558 16.7327 6.63431 15.9295 6.63431ZM15.9295 7.36158C16.3304 7.36158 16.6567 7.68777 16.6567 8.08886C16.6567 8.48995 16.3304 8.81613 15.9295 8.81613C15.5284 8.81613 15.2022 8.48995 15.2022 8.08886C15.2022 7.68777 15.5284 7.36158 15.9295 7.36158ZM17.1487 16.208C17.9792 16.208 18.6524 15.5347 18.6524 14.704C18.6524 14.6499 18.6494 14.5955 18.6436 14.541C18.5967 14.0992 18.3734 13.6682 18.0359 13.2448C17.8218 12.9763 17.6092 12.7668 17.4595 12.6397C17.3501 12.5467 17.2097 12.5106 17.0762 12.531L17.0764 12.5256H14.6535C14.426 12.5256 14.2415 12.7405 14.2415 13.0056C14.2415 13.2707 14.426 13.4856 14.6535 13.4856H16.0949C15.9094 13.7553 15.7727 14.026 15.7004 14.2983C15.6642 14.4347 15.6449 14.5701 15.6449 14.704C15.6449 15.5347 16.3181 16.208 17.1487 16.208ZM16.6049 14.704C16.6049 15.0045 16.8484 15.248 17.1487 15.248C17.4489 15.248 17.6924 15.0045 17.6924 14.704C17.6924 14.6842 17.6912 14.6637 17.689 14.6424C17.6652 14.4186 17.5192 14.1367 17.2852 13.8432C17.2427 13.7898 17.1987 13.7378 17.1538 13.6875C17.1062 13.7419 17.0595 13.7981 17.0144 13.8555C16.8182 14.1054 16.6813 14.3451 16.6283 14.5446C16.6125 14.604 16.6049 14.6573 16.6049 14.704ZM13.44 18.9599C13.44 18.6949 13.655 18.4799 13.92 18.4799C14.185 18.4799 14.4 18.6949 14.4 18.9599C14.4 19.2248 14.185 19.4399 13.92 19.4399C13.655 19.4399 13.44 19.2248 13.44 18.9599ZM12.3879 8.84495L14.1779 10.6349L11.9068 12.9061C11.7194 13.0935 11.7194 13.3975 11.9068 13.5849C12.0943 13.7724 12.3982 13.7724 12.5856 13.5849L15.1962 10.9744C15.3836 10.7869 15.3836 10.483 15.1962 10.2955L12.9262 8.02554C12.8362 7.93552 12.7141 7.88495 12.5868 7.88495H8.58676C8.32167 7.88495 8.10676 8.09985 8.10676 8.36495C8.10676 8.63004 8.32167 8.84495 8.58676 8.84495H12.3879ZM14.88 18.2399C14.88 17.9749 15.095 17.7599 15.36 17.7599C15.625 17.7599 15.84 17.9749 15.84 18.2399C15.84 18.5048 15.625 18.7199 15.36 18.7199C15.095 18.7199 14.88 18.5048 14.88 18.2399ZM16.1164 17.2217C16.1164 16.9567 16.3314 16.7417 16.5964 16.7417C16.8613 16.7417 17.0764 16.9567 17.0764 17.2217C17.0764 17.4867 16.8613 17.7017 16.5964 17.7017C16.3314 17.7017 16.1164 17.4867 16.1164 17.2217ZM12.755 10.33C12.9425 10.1426 12.9425 9.83866 12.755 9.65121C12.5676 9.46376 12.2636 9.46376 12.0762 9.65121L9.37474 12.3527C9.18728 12.5401 9.18728 12.844 9.37474 13.0315L11.5041 15.1609V18.4821C11.5041 18.7472 11.7191 18.9621 11.9841 18.9621C12.2492 18.9621 12.4641 18.7472 12.4641 18.4821V14.9621C12.4641 14.8348 12.4136 14.7127 12.3236 14.6227L10.393 12.6921L12.755 10.33ZM10.3595 15.8151L9.5151 16.6593C9.40991 16.7645 9.26806 16.8106 9.1307 16.7978C9.1158 16.7991 9.10071 16.7999 9.08546 16.7999H7.78546C7.52036 16.7999 7.30546 16.585 7.30546 16.3199C7.30546 16.0548 7.52036 15.8399 7.78546 15.8399H8.97694L9.68072 15.1362C9.86819 14.9488 10.1721 14.9488 10.3595 15.1363C10.547 15.3238 10.5469 15.6277 10.3595 15.8151ZM10.0591 9.28165C10.2429 9.47266 10.2371 9.77652 10.046 9.96035L8.52318 11.4259L8.66871 11.5715C8.85616 11.7589 8.85616 12.0628 8.66871 12.2503C8.48126 12.4377 8.17734 12.4377 7.98989 12.2503L7.49837 11.7588C7.30837 11.5688 7.31134 11.2598 7.50494 11.0735L9.38036 9.26864C9.57137 9.08481 9.87524 9.09064 10.0591 9.28165ZM7.82056 15.2048L8.66492 14.3606C8.85239 14.1731 8.85243 13.8692 8.66499 13.6818C8.47756 13.4943 8.17364 13.4943 7.98617 13.6817L7.28239 14.3853H6.09091C5.82581 14.3853 5.61091 14.6002 5.61091 14.8653C5.61091 15.1304 5.82581 15.3453 6.09091 15.3453H7.39091C7.40617 15.3453 7.42125 15.3446 7.43615 15.3432C7.57351 15.3561 7.71537 15.3099 7.82056 15.2048Z" fill="black" fill-opacity="0.45"/>
</svg>
