<svg width="24" height="24" viewBox="0 0 24 24" fill="none" xmlns="http://www.w3.org/2000/svg">
<path fill-rule="evenodd" clip-rule="evenodd" d="M6.71988 3.12012H8.87988C9.14498 3.12012 9.35988 3.33502 9.35988 3.60012L10.3199 3.60012C10.585 3.60012 10.7999 3.81502 10.7999 4.08012C10.7999 4.34521 10.585 4.56012 10.3199 4.56012H9.35988V5.76012H10.3199C10.585 5.76012 10.7999 5.97502 10.7999 6.24012V7.44012C10.7999 7.70521 10.585 7.92012 10.3199 7.92012C10.0548 7.92012 9.83988 7.70521 9.83988 7.44012V6.72012H5.75988V9.72012C5.75988 10.8468 6.67322 11.7601 7.79988 11.7601C8.74531 11.7601 9.56073 11.1114 9.78177 10.206C9.84464 9.94849 10.1044 9.79068 10.3619 9.85355C10.6195 9.91643 10.7773 10.1762 10.7144 10.4337C10.4271 11.6103 9.45936 12.4913 8.27988 12.6817V13.6801C8.27988 13.9452 8.06498 14.1601 7.79988 14.1601C7.53479 14.1601 7.31988 13.9452 7.31988 13.6801V12.6819C5.8912 12.4522 4.79988 11.2136 4.79988 9.72012V6.24012C4.79988 5.97502 5.01479 5.76012 5.27988 5.76012H6.23988V4.56012H5.27988C5.01479 4.56012 4.79988 4.34521 4.79988 4.08012C4.79988 3.81502 5.01479 3.60012 5.27988 3.60012L6.23988 3.60012C6.23988 3.33502 6.45479 3.12012 6.71988 3.12012ZM7.19988 5.76012H8.39988V4.08012H7.19988V5.76012ZM8.27988 10.5601V8.88012C8.27988 8.61502 8.06498 8.40012 7.79988 8.40012C7.53479 8.40012 7.31988 8.61502 7.31988 8.88012V10.5601C7.31988 10.8252 7.53479 11.0401 7.79988 11.0401C8.06498 11.0401 8.27988 10.8252 8.27988 10.5601ZM18.7199 4.92012C18.7199 5.44887 18.4919 5.92437 18.1289 6.25369C19.1836 6.71866 19.9199 7.77341 19.9199 9.00012V12.2401C19.9199 12.5052 19.705 12.7201 19.4399 12.7201H17.3999V13.6801C17.3999 13.9452 17.185 14.1601 16.9199 14.1601C16.6548 14.1601 16.4399 13.9452 16.4399 13.6801V12.7201H15.3599C15.0948 12.7201 14.8799 12.5052 14.8799 12.2401C14.8799 11.975 15.0948 11.7601 15.3599 11.7601H16.4399V10.0801C16.4399 9.81502 16.6548 9.60012 16.9199 9.60012C17.185 9.60012 17.3999 9.81502 17.3999 10.0801V11.7601H18.9599V9.00012C18.9599 7.87346 18.0465 6.96012 16.9199 6.96012C16.287 6.96012 15.7028 7.24957 15.3178 7.73708C15.1535 7.94513 14.8516 7.9806 14.6436 7.8163C14.4355 7.65201 14.4001 7.35017 14.5644 7.14212C14.8714 6.75326 15.2657 6.44981 15.711 6.25377C15.3479 5.92445 15.1199 5.44891 15.1199 4.92012C15.1199 4.79683 15.1323 4.67644 15.1559 4.56012H14.3999C14.1348 4.56012 13.9199 4.34521 13.9199 4.08012C13.9199 3.81502 14.1348 3.60012 14.3999 3.60012H15.5999C15.6298 3.60012 15.6591 3.60286 15.6876 3.6081C16.0096 3.30549 16.4431 3.12012 16.9199 3.12012C17.3967 3.12012 17.8302 3.30549 18.1522 3.6081C18.1806 3.60286 18.2099 3.60012 18.2399 3.60012H19.4399C19.705 3.60012 19.9199 3.81502 19.9199 4.08012C19.9199 4.34521 19.705 4.56012 19.4399 4.56012H18.6839C18.7075 4.67644 18.7199 4.79683 18.7199 4.92012ZM16.0799 4.92012C16.0799 5.38404 16.456 5.76012 16.9199 5.76012C17.3838 5.76012 17.7599 5.38404 17.7599 4.92012C17.7599 4.4562 17.3838 4.08012 16.9199 4.08012C16.456 4.08012 16.0799 4.4562 16.0799 4.92012ZM20.1599 18.1197C20.1599 17.7953 19.7429 17.3508 18.9719 16.9962C18.7311 16.8854 18.6257 16.6004 18.7364 16.3595C18.8472 16.1187 19.1323 16.0133 19.3731 16.124C20.4475 16.6182 21.1199 17.3349 21.1199 18.1197C21.1199 19.5472 19.6254 20.2723 16.8624 20.6351C16.0112 20.7468 14.6224 20.8161 12.8713 20.8524C11.7 20.8767 10.4946 20.8834 9.59759 20.8791C9.33249 20.8778 9.11862 20.6619 9.11989 20.3968C9.12116 20.1317 9.33709 19.9178 9.60218 19.9191C10.4917 19.9233 11.6892 19.9167 12.8514 19.8926C14.5684 19.857 15.9318 19.789 16.7374 19.6832C19.0374 19.3813 20.1599 18.8366 20.1599 18.1197ZM9.95988 8.88012C9.95988 8.61502 10.1748 8.40012 10.4399 8.40012H14.2799C14.545 8.40012 14.7599 8.61502 14.7599 8.88012C14.7599 9.14521 14.545 9.36012 14.2799 9.36012H12.8399V10.5601C12.8399 10.5824 12.8384 10.6044 12.8354 10.6259C13.7493 10.8848 14.3999 11.8751 14.3999 13.0227V15.8401C14.3999 16.1052 14.185 16.3201 13.9199 16.3201C13.6548 16.3201 13.4399 16.1052 13.4399 15.8401V13.0227C13.4399 12.171 12.9277 11.5201 12.3599 11.5201C11.7921 11.5201 11.2799 12.171 11.2799 13.0227V15.8401C11.2799 16.1052 11.065 16.3201 10.7999 16.3201C10.5348 16.3201 10.3199 16.1052 10.3199 15.8401V13.0227C10.3199 11.8751 10.9705 10.8848 11.8844 10.6259C11.8814 10.6044 11.8799 10.5824 11.8799 10.5601V9.36012L10.4399 9.36012C10.1748 9.36012 9.95988 9.14521 9.95988 8.88012ZM12.8399 12.7201C12.8399 12.455 12.625 12.2401 12.3599 12.2401C12.0948 12.2401 11.8799 12.455 11.8799 12.7201V18.0001C11.8799 18.2652 12.0948 18.4801 12.3599 18.4801C12.625 18.4801 12.8399 18.2652 12.8399 18.0001V12.7201ZM6.11999 20.8801C7.9093 20.8801 9.35988 19.4295 9.35988 17.6402C9.35988 15.8508 7.90934 14.4001 6.11999 14.4001C4.33062 14.4001 2.87988 15.8509 2.87988 17.6402C2.87988 19.4294 4.33066 20.8801 6.11999 20.8801ZM6.11999 15.3601C7.37912 15.3601 8.39988 16.381 8.39988 17.6402C8.39988 18.8993 7.37909 19.9201 6.11999 19.9201C4.86084 19.9201 3.83988 18.8992 3.83988 17.6402C3.83988 16.381 4.86081 15.3601 6.11999 15.3601ZM5.66676 17.5615V16.3201C5.66676 16.055 5.88167 15.8401 6.14676 15.8401C6.41186 15.8401 6.62676 16.055 6.62676 16.3201V17.5615C6.62676 17.8266 6.41186 18.0415 6.14676 18.0415C5.88167 18.0415 5.66676 17.8266 5.66676 17.5615ZM6.64035 19.0138C6.64035 19.2867 6.41931 19.5077 6.14667 19.5077C5.87403 19.5077 5.65299 19.2867 5.65299 19.0138C5.65299 18.7411 5.87403 18.5201 6.14667 18.5201C6.41931 18.5201 6.64035 18.7411 6.64035 19.0138Z" fill="black" fill-opacity="0.45"/>
</svg>
