<svg width="24" height="24" viewBox="0 0 24 24" fill="none" xmlns="http://www.w3.org/2000/svg">
<path fill-rule="evenodd" clip-rule="evenodd" d="M21.1199 17.59C21.385 17.59 21.5999 17.8049 21.5999 18.07C21.5999 20.2071 17.2961 21.688 11.9999 21.688C6.70353 21.688 2.3999 20.2071 2.3999 18.07C2.3999 17.8049 2.61481 17.59 2.8799 17.59C3.145 17.59 3.3599 17.8049 3.3599 18.07C3.3599 19.3989 7.22259 20.728 11.9999 20.728C16.777 20.728 20.6399 19.3988 20.6399 18.07C20.6399 17.8049 20.8548 17.59 21.1199 17.59ZM6.8399 12.9599C8.23456 12.9599 9.3599 14.1132 9.3599 15.5519C9.3599 16.4572 8.67121 17.6378 7.31214 19.2208C7.06136 19.5129 6.61845 19.5129 6.36767 19.2208C5.0086 17.6378 4.3199 16.4572 4.3199 15.5519C4.3199 14.1132 5.44524 12.9599 6.8399 12.9599ZM17.1599 12.9599C18.5546 12.9599 19.6799 14.1132 19.6799 15.5519C19.6799 16.4572 18.9912 17.6378 17.6321 19.2208C17.3814 19.5129 16.9384 19.5129 16.6877 19.2208C15.3286 17.6378 14.6399 16.4572 14.6399 15.5519C14.6399 14.1132 15.7652 12.9599 17.1599 12.9599ZM6.8399 13.9199C5.97262 13.9199 5.2799 14.6608 5.2799 15.5903C5.2799 16.1098 5.76479 17.0784 6.8399 18.4799C7.91502 17.0784 8.3999 16.1098 8.3999 15.5903C8.3999 14.6608 7.70718 13.9199 6.8399 13.9199ZM17.1599 13.9199C16.2926 13.9199 15.5999 14.6608 15.5999 15.5903C15.5999 16.1098 16.0848 17.0784 17.1599 18.4799C18.235 17.0784 18.7199 16.1098 18.7199 15.5903C18.7199 14.6608 18.0272 13.9199 17.1599 13.9199ZM6.8399 16.5599C7.105 16.5599 7.3199 16.7748 7.3199 17.0399C7.3199 17.305 7.105 17.5199 6.8399 17.5199C6.57481 17.5199 6.3599 17.305 6.3599 17.0399C6.3599 16.7748 6.57481 16.5599 6.8399 16.5599ZM17.1599 16.5599C17.425 16.5599 17.6399 16.7748 17.6399 17.0399C17.6399 17.305 17.425 17.5199 17.1599 17.5199C16.8948 17.5199 16.6799 17.305 16.6799 17.0399C16.6799 16.7748 16.8948 16.5599 17.1599 16.5599ZM11.8799 10.3199C13.2746 10.3199 14.3999 11.4732 14.3999 12.9119C14.3999 13.8172 13.7112 14.9978 12.3521 16.5808C12.1014 16.8729 11.6584 16.8729 11.4077 16.5808C10.0486 14.9978 9.3599 13.8172 9.3599 12.9119C9.3599 11.4732 10.4852 10.3199 11.8799 10.3199ZM6.8399 14.3999C7.08606 14.3999 7.28895 14.5852 7.31667 14.8239L7.3199 14.8799V15.7199C7.3199 15.985 7.105 16.1999 6.8399 16.1999C6.59374 16.1999 6.39086 16.0146 6.36313 15.7759L6.3599 15.7199V14.8799C6.3599 14.6148 6.57481 14.3999 6.8399 14.3999ZM17.1599 14.3999C17.4061 14.3999 17.6089 14.5852 17.6367 14.8239L17.6399 14.8799V15.7199C17.6399 15.985 17.425 16.1999 17.1599 16.1999C16.9137 16.1999 16.7109 16.0146 16.6831 15.7759L16.6799 15.7199V14.8799C16.6799 14.6148 16.8948 14.3999 17.1599 14.3999ZM11.8799 11.2799C11.0126 11.2799 10.3199 12.0208 10.3199 12.9503C10.3199 13.4698 10.8048 14.4384 11.8799 15.8399C12.955 14.4384 13.4399 13.4698 13.4399 12.9503C13.4399 12.0208 12.7472 11.2799 11.8799 11.2799ZM11.8799 13.9199C12.145 13.9199 12.3599 14.1348 12.3599 14.3999C12.3599 14.665 12.145 14.8799 11.8799 14.8799C11.6148 14.8799 11.3999 14.665 11.3999 14.3999C11.3999 14.1348 11.6148 13.9199 11.8799 13.9199ZM11.8799 11.7599C12.1261 11.7599 12.3289 11.9452 12.3567 12.1839L12.3599 12.2399V13.0799C12.3599 13.345 12.145 13.5599 11.8799 13.5599C11.6337 13.5599 11.4309 13.3746 11.4031 13.1359L11.3999 13.0799V12.2399C11.3999 11.9748 11.6148 11.7599 11.8799 11.7599ZM14.0999 7.9199C15.4254 7.9199 16.2599 8.87442 16.2599 10.1999V12.08C16.2599 12.4114 16.1713 12.5999 15.8399 12.5999C15.5085 12.5999 15.2999 12.4114 15.2999 12.08V10.1999C15.2999 9.53716 14.7626 8.8799 14.0999 8.8799H9.7799C9.11716 8.8799 8.3399 9.49727 8.3399 10.16V12.08C8.3399 12.4114 8.19127 12.5999 7.8599 12.5999C7.52853 12.5999 7.4399 12.3313 7.4399 11.9999V10.1999C7.4399 8.87442 8.45442 7.9199 9.7799 7.9199H14.0999ZM11.7599 2.3999C13.0854 2.3999 14.1599 3.47442 14.1599 4.7999C14.1599 6.12539 13.0854 7.1999 11.7599 7.1999C10.4344 7.1999 9.3599 6.12539 9.3599 4.7999C9.3599 3.47442 10.4344 2.3999 11.7599 2.3999ZM11.7599 3.3599C10.9646 3.3599 10.3199 4.00461 10.3199 4.7999C10.3199 5.59519 10.9646 6.2399 11.7599 6.2399C12.5552 6.2399 13.1999 5.59519 13.1999 4.7999C13.1999 4.00461 12.5552 3.3599 11.7599 3.3599Z" fill="black" fill-opacity="0.45"/>
</svg>
