<svg width="24" height="24" viewBox="0 0 24 24" fill="none" xmlns="http://www.w3.org/2000/svg">
<path fill-rule="evenodd" clip-rule="evenodd" d="M18.24 2.3999C19.3666 2.3999 20.28 3.31324 20.28 4.4399V4.6799C20.28 5.80656 19.3666 6.7199 18.24 6.7199H18C16.9963 6.7199 16.162 5.99511 15.9917 5.04039L14.04 5.0399V11.5199H15.96V10.7999C15.96 10.2697 16.3898 9.8399 16.92 9.8399H19.32C19.8502 9.8399 20.28 10.2697 20.28 10.7999V13.1999C20.28 13.7301 19.8502 14.1599 19.32 14.1599H16.92C16.3898 14.1599 15.96 13.7301 15.96 13.1999V12.4799H14.0395L14.04 18.9599H16.2C16.2382 18.9599 16.2754 18.9644 16.311 18.9728L17.7043 16.5599C17.889 16.2399 18.3509 16.2399 18.5357 16.5599L20.7181 20.3399C20.9028 20.6599 20.6719 21.0599 20.3024 21.0599H15.9376C15.5681 21.0599 15.3371 20.6599 15.5219 20.3399L15.7641 19.9199H13.56C13.3138 19.9199 13.1109 19.7346 13.0832 19.4959L13.08 19.4399L13.0795 12.4799H11.4C11.1538 12.4799 10.9509 12.2946 10.9232 12.0559L10.92 11.9999C10.92 11.7537 11.1053 11.5509 11.344 11.5231L11.4 11.5199H13.08V4.5599C13.08 4.31374 13.2653 4.11086 13.504 4.08313L13.56 4.0799L15.9916 4.07989C16.1617 3.12493 16.9962 2.3999 18 2.3999H18.24ZM18.12 17.7599L16.769 20.0999H19.471L18.12 17.7599ZM8.03998 11.2799C9.43173 11.2799 10.56 12.4081 10.56 13.7999V15.8399C10.56 16.105 10.3451 16.3199 10.08 16.3199H4.07998C3.81488 16.3199 3.59998 16.105 3.59998 15.8399V13.7999C3.59998 12.4081 4.72822 11.2799 6.11998 11.2799H8.03998ZM8.03998 12.2399H6.11998C5.25841 12.2399 4.55998 12.9383 4.55998 13.7999V15.3599H9.59998V13.7999C9.59998 12.9383 8.90154 12.2399 8.03998 12.2399ZM19.32 10.7999H16.92V13.1999H19.32V10.7999ZM7.07998 6.7199C8.20664 6.7199 9.11998 7.63324 9.11998 8.7599C9.11998 9.88656 8.20664 10.7999 7.07998 10.7999C5.95331 10.7999 5.03998 9.88656 5.03998 8.7599C5.03998 7.63324 5.95331 6.7199 7.07998 6.7199ZM7.07998 7.6799C6.48351 7.6799 5.99998 8.16343 5.99998 8.7599C5.99998 9.35637 6.48351 9.8399 7.07998 9.8399C7.67644 9.8399 8.15998 9.35637 8.15998 8.7599C8.15998 8.16343 7.67644 7.6799 7.07998 7.6799ZM18.24 3.3599H18C17.4035 3.3599 16.92 3.84343 16.92 4.4399V4.6799C16.92 5.27637 17.4035 5.7599 18 5.7599H18.24C18.8364 5.7599 19.32 5.27637 19.32 4.6799V4.4399C19.32 3.84343 18.8364 3.3599 18.24 3.3599Z" fill="black" fill-opacity="0.45"/>
</svg>
