<svg width="24" height="24" viewBox="0 0 24 24" fill="none" xmlns="http://www.w3.org/2000/svg">
<path fill-rule="evenodd" clip-rule="evenodd" d="M20.8799 18.2401C21.145 18.2401 21.3599 18.455 21.3599 18.7201V20.4001C21.3599 20.9303 20.9301 21.3601 20.3999 21.3601H18.4799C18.2148 21.3601 17.9999 21.1452 17.9999 20.8801C17.9999 20.615 18.2148 20.4001 18.4799 20.4001H20.3999V18.7201C20.3999 18.455 20.6148 18.2401 20.8799 18.2401ZM3.11989 18.2401C3.38499 18.2401 3.59989 18.455 3.59989 18.7201V20.4001H5.51989C5.78499 20.4001 5.99989 20.615 5.99989 20.8801C5.99989 21.1452 5.78499 21.3601 5.51989 21.3601H3.59989C3.0697 21.3601 2.63989 20.9303 2.63989 20.4001V18.7201C2.63989 18.455 2.8548 18.2401 3.11989 18.2401ZM6.71299 11.1807C7.22512 11.0435 7.75152 11.3474 7.88875 11.8595L8.30611 13.4182C8.42179 13.3226 8.58045 13.2826 8.73645 13.3244L11.7501 14.1319C12.0062 14.2005 12.1582 14.4637 12.0896 14.7198L10.7851 19.588C10.7165 19.8441 10.4533 19.9961 10.1972 19.9274L7.18354 19.1199C6.92747 19.0513 6.77551 18.7881 6.84413 18.532L6.89605 18.3371L5.50068 18.7111C5.01184 18.8421 4.50998 18.5711 4.34602 18.1008L4.32493 18.0323L3.02048 13.164C2.88326 12.6519 3.18718 12.1255 3.6993 11.9882L6.71299 11.1807ZM13.9199 13.9201C15.5399 13.9201 16.86 15.2043 16.9179 16.8102L16.9199 16.9201V18.9601C16.9199 19.4662 16.5283 19.8809 16.0315 19.9175L15.9599 19.9201H12.2399C11.9748 19.9201 11.7599 19.7052 11.7599 19.4401C11.7599 19.194 11.9452 18.9911 12.1839 18.9634L12.2399 18.9601H15.9599V16.9201C15.9599 15.8266 15.0995 14.934 14.0187 14.8825L13.9199 14.8801H13.1999C12.9348 14.8801 12.7199 14.6652 12.7199 14.4001C12.7199 14.154 12.9052 13.9511 13.1439 13.9234L13.1999 13.9201H13.9199ZM8.95163 14.3759L7.89565 18.3169L9.98205 18.8759L11.038 14.9349L8.95163 14.3759ZM6.96146 12.108L3.94777 12.9155L5.25222 17.7838L7.07534 17.2953C7.11015 17.286 7.1451 17.2807 7.17967 17.2792L7.76775 15.082C7.75416 15.0543 7.74305 15.0249 7.73477 14.994L6.96146 12.108ZM14.0399 4.08014C14.2861 4.08014 14.4889 4.26544 14.5167 4.50416L14.5199 4.56014V5.23838L17.0399 5.23876C17.305 5.23876 17.5199 5.45366 17.5199 5.71876C17.5199 6.54895 16.7673 7.20902 15.5531 7.64447V10.6926C15.5531 12.018 14.4785 13.0926 13.1531 13.0926H10.8467C9.52124 13.0926 8.44672 12.018 8.44672 10.6926V7.64447C7.23246 7.20902 6.47989 6.54895 6.47989 5.71876C6.47989 5.45366 6.6948 5.23876 6.95989 5.23876L9.23989 5.23838V4.56014C9.23989 4.31398 9.42519 4.11109 9.66391 4.08337L9.71989 4.08014C9.96605 4.08014 10.1689 4.26544 10.1967 4.50416L10.1999 4.56014V5.23838H13.5599V4.56014C13.5599 4.31398 13.7452 4.11109 13.9839 4.08337L14.0399 4.08014ZM14.5487 11.0488H9.45113C9.60969 11.6718 10.1744 12.1326 10.8467 12.1326H13.1531C13.8254 12.1326 14.3901 11.6718 14.5487 11.0488ZM16.2572 6.19876H7.74259C8.01352 6.42577 8.46142 6.65431 9.06654 6.83857C9.26862 6.90011 9.40672 7.08652 9.40672 7.29776L9.40645 10.0883H14.5929L14.5931 7.29776C14.5931 7.08652 14.7312 6.90011 14.9332 6.83857C15.5384 6.65431 15.9863 6.42577 16.2572 6.19876ZM20.3999 2.64014C20.9301 2.64014 21.3599 3.06994 21.3599 3.60014V5.28014C21.3599 5.54523 21.145 5.76014 20.8799 5.76014C20.6148 5.76014 20.3999 5.54523 20.3999 5.28014V3.60014H18.4799C18.2148 3.60014 17.9999 3.38523 17.9999 3.12014C17.9999 2.85504 18.2148 2.64014 18.4799 2.64014H20.3999ZM5.51989 2.64014C5.78499 2.64014 5.99989 2.85504 5.99989 3.12014C5.99989 3.38523 5.78499 3.60014 5.51989 3.60014H3.59989V5.28014C3.59989 5.54523 3.38499 5.76014 3.11989 5.76014C2.8548 5.76014 2.63989 5.54523 2.63989 5.28014V3.60014C2.63989 3.06994 3.0697 2.64014 3.59989 2.64014H5.51989Z" fill="black" fill-opacity="0.45"/>
</svg>
