<svg width="24" height="24" viewBox="0 0 24 24" fill="none" xmlns="http://www.w3.org/2000/svg">
<path fill-rule="evenodd" clip-rule="evenodd" d="M7.21984 2.45172C7.35621 2.38263 7.51735 2.38263 7.65372 2.45172L16.5508 6.95941L20.8907 4.76052C21.21 4.59875 21.5877 4.83076 21.5877 5.1887V18.8111C21.5877 18.992 21.486 19.1575 21.3246 19.2393L16.7677 21.5481C16.6313 21.6172 16.4702 21.6172 16.3338 21.5481L7.43679 17.0404L3.09684 19.2393C2.77755 19.4011 2.3999 19.169 2.3999 18.8111V5.1887C2.3999 5.00781 2.5016 4.84228 2.66296 4.76052L7.21984 2.45172ZM7.43679 3.41799L3.3599 5.4836V18.0298L7.21984 16.0741C7.35621 16.005 7.51735 16.005 7.65372 16.0741L16.5508 20.5818L20.6277 18.5162V5.96999L17.363 7.62476C17.3396 7.68093 17.305 7.73356 17.2593 7.77927L14.7393 10.2993C14.5519 10.4867 14.2479 10.4867 14.0605 10.2993C13.873 10.1118 13.873 9.80789 14.0605 9.62044L15.9493 7.73078L7.43679 3.41799ZM17.5199 12.4799C18.5825 12.4799 19.4399 13.3342 19.4399 14.3999C19.4399 15.0704 18.9152 15.945 17.8797 17.1176C17.6886 17.3339 17.3512 17.3339 17.1601 17.1176C16.1246 15.945 15.5999 15.0704 15.5999 14.3999C15.5999 13.3342 16.4573 12.4799 17.5199 12.4799ZM17.5199 13.4399C16.9862 13.4399 16.5599 13.8688 16.5599 14.4069C16.5599 14.7077 16.8583 15.2685 17.5199 16.0799C18.1815 15.2685 18.4799 14.7077 18.4799 14.4069C18.4799 13.8688 18.0536 13.4399 17.5199 13.4399ZM12.8399 12.9599C13.6352 12.9599 14.2799 13.6046 14.2799 14.3999V15.3599C14.2799 15.625 14.065 15.8399 13.7999 15.8399H10.4399C10.1748 15.8399 9.9599 15.625 9.9599 15.3599V14.3999C9.9599 13.6046 10.6046 12.9599 11.3999 12.9599H12.8399ZM6.2399 10.5599C7.3025 10.5599 8.1599 11.4142 8.1599 12.4799C8.1599 13.1504 7.63518 14.025 6.5997 15.1976C6.40863 15.4139 6.07117 15.4139 5.88011 15.1976C4.84462 14.025 4.3199 13.1504 4.3199 12.4799C4.3199 11.4142 5.1773 10.5599 6.2399 10.5599ZM12.8399 13.9199H11.3999C11.1348 13.9199 10.9199 14.1348 10.9199 14.3999V14.8799H13.3199V14.3999C13.3199 14.1348 13.105 13.9199 12.8399 13.9199ZM6.2399 11.5199C5.70619 11.5199 5.2799 11.9488 5.2799 12.4869C5.2799 12.7877 5.57829 13.3485 6.2399 14.1599C6.90151 13.3485 7.1999 12.7877 7.1999 12.4869C7.1999 11.9488 6.77361 11.5199 6.2399 11.5199ZM12.1199 9.59985C12.9152 9.59985 13.5599 10.2446 13.5599 11.0399C13.5599 11.8351 12.9152 12.4799 12.1199 12.4799C11.3246 12.4799 10.6799 11.8351 10.6799 11.0399C10.6799 10.2446 11.3246 9.59985 12.1199 9.59985ZM12.1199 10.5599C11.8548 10.5599 11.6399 10.7748 11.6399 11.0399C11.6399 11.305 11.8548 11.5199 12.1199 11.5199C12.385 11.5199 12.5999 11.305 12.5999 11.0399C12.5999 10.7748 12.385 10.5599 12.1199 10.5599ZM8.8799 5.03985C9.9425 5.03985 10.7999 5.89417 10.7999 6.95985C10.7999 7.63042 10.2752 8.50496 9.2397 9.67757C9.04863 9.89395 8.71117 9.89395 8.5201 9.67757C7.48462 8.50496 6.9599 7.63042 6.9599 6.95985C6.9599 5.89417 7.8173 5.03985 8.8799 5.03985ZM8.8799 5.99985C8.34619 5.99985 7.9199 6.42881 7.9199 6.96694C7.9199 7.26772 8.21829 7.82845 8.8799 8.63985C9.54151 7.82845 9.8399 7.26772 9.8399 6.96694C9.8399 6.42881 9.41361 5.99985 8.8799 5.99985Z" fill="black" fill-opacity="0.45"/>
</svg>
