<svg width="24" height="24" viewBox="0 0 24 24" fill="none" xmlns="http://www.w3.org/2000/svg">
<path fill-rule="evenodd" clip-rule="evenodd" d="M18.7201 8.63984C18.9852 8.63984 19.2001 8.85475 19.2001 9.11984V12.2398H19.6801C19.8126 12.2398 19.9201 12.3473 19.9201 12.4798V15.8398C19.9201 15.9724 19.8126 16.0798 19.6801 16.0798H19.2001V19.1998C19.2001 19.4649 18.9852 19.6798 18.7201 19.6798C18.455 19.6798 18.2401 19.4649 18.2401 19.1998V16.0798H16.0801V19.1998C16.0801 19.4649 15.8652 19.6798 15.6001 19.6798C15.335 19.6798 15.1201 19.4649 15.1201 19.1998V16.0798H14.6401C14.5075 16.0798 14.4001 15.9724 14.4001 15.8398V12.4798C14.4001 12.3473 14.5075 12.2398 14.6401 12.2398H15.1201V9.20984C15.1201 9.19463 15.1208 9.17958 15.1222 9.16473L15.1201 9.11984C15.1201 8.85475 15.335 8.63984 15.6001 8.63984H18.7201ZM7.44006 15.5998C7.70516 15.5998 7.92006 15.8147 7.92006 16.0798V19.1998C7.92006 19.4649 7.70516 19.6798 7.44006 19.6798C7.17496 19.6798 6.96006 19.4649 6.96006 19.1998V16.0798C6.96006 15.8147 7.17496 15.5998 7.44006 15.5998ZM10.5601 15.5998C10.8252 15.5998 11.0401 15.8147 11.0401 16.0798V19.1998C11.0401 19.4649 10.8252 19.6798 10.5601 19.6798C10.295 19.6798 10.0801 19.4649 10.0801 19.1998V16.0798C10.0801 15.8147 10.295 15.5998 10.5601 15.5998ZM16.6801 13.1998H15.3601V15.1198H18.9601V13.1998H17.6401V13.9198C17.6401 14.166 17.4548 14.3689 17.216 14.3966L17.1601 14.3998C16.895 14.3998 16.6801 14.1849 16.6801 13.9198V13.1998ZM12.9601 8.7351C13.2062 8.7351 13.4091 8.9204 13.4368 9.15912L13.4401 9.2151V14.5827C13.4401 14.8289 13.2548 15.0318 13.016 15.0595L12.9601 15.0627H5.04006C4.7939 15.0627 4.59102 14.8774 4.56329 14.6387L4.56006 14.5827V9.2151C4.56006 8.96894 4.74536 8.76606 4.98408 8.73833L5.04006 8.7351H12.9601ZM12.4801 9.6951H5.52006V14.1027H12.4801V9.6951ZM11.3639 12.2589C11.629 12.2589 11.8439 12.4738 11.8439 12.7389C11.8439 12.9851 11.6586 13.1879 11.4198 13.2157L11.3639 13.2189H6.56387C6.29877 13.2189 6.08387 13.004 6.08387 12.7389C6.08387 12.4927 6.26917 12.2898 6.50789 12.2621L6.56387 12.2589H11.3639ZM18.2401 9.59984H16.0801V12.2398H16.6801V10.5598C16.6801 10.3137 16.8654 10.1108 17.1041 10.0831L17.1601 10.0798C17.4252 10.0798 17.6401 10.2947 17.6401 10.5598V12.2398H18.2401V9.59984ZM11.3639 10.497C11.629 10.497 11.8439 10.7119 11.8439 10.977C11.8439 11.2231 11.6586 11.426 11.4198 11.4538L11.3639 11.457H6.56387C6.29877 11.457 6.08387 11.2421 6.08387 10.977C6.08387 10.7308 6.26917 10.5279 6.50789 10.5002L6.56387 10.497H11.3639ZM9.00006 3.83984C10.1267 3.83984 11.0401 4.75318 11.0401 5.87984C11.0401 7.0065 10.1267 7.91984 9.00006 7.91984C7.8734 7.91984 6.96006 7.0065 6.96006 5.87984C6.96006 4.75318 7.8734 3.83984 9.00006 3.83984ZM17.1601 3.83984C18.2867 3.83984 19.2001 4.75318 19.2001 5.87984C19.2001 7.0065 18.2867 7.91984 17.1601 7.91984C16.0334 7.91984 15.1201 7.0065 15.1201 5.87984C15.1201 4.75318 16.0334 3.83984 17.1601 3.83984ZM9.00006 4.79984C8.40359 4.79984 7.92006 5.28338 7.92006 5.87984C7.92006 6.47631 8.40359 6.95984 9.00006 6.95984C9.59653 6.95984 10.0801 6.47631 10.0801 5.87984C10.0801 5.28338 9.59653 4.79984 9.00006 4.79984ZM17.1601 4.79984C16.5636 4.79984 16.0801 5.28338 16.0801 5.87984C16.0801 6.47631 16.5636 6.95984 17.1601 6.95984C17.7565 6.95984 18.2401 6.47631 18.2401 5.87984C18.2401 5.28338 17.7565 4.79984 17.1601 4.79984Z" fill="black" fill-opacity="0.45"/>
</svg>
