<svg width="24" height="24" viewBox="0 0 24 24" fill="none" xmlns="http://www.w3.org/2000/svg">
<path d="M19.7896 15.4124C20.937 15.999 21.6 16.7347 21.6 17.5899C21.6 19.7271 17.2962 21.2079 12 21.2079C6.70366 21.2079 2.40002 19.7271 2.40002 17.5899C2.40002 16.7485 3.04189 16.0227 4.15514 15.4409C4.39008 15.3181 4.68008 15.409 4.80288 15.644C4.92567 15.8789 4.83476 16.1689 4.59982 16.2917C3.76945 16.7257 3.36002 17.1886 3.36002 17.5899C3.36002 18.9188 7.22271 20.2479 12 20.2479C16.7772 20.2479 20.64 18.9188 20.64 17.5899C20.64 17.1807 20.2134 16.7072 19.3527 16.2672C19.1166 16.1466 19.0231 15.8574 19.1437 15.6214C19.2644 15.3853 19.5536 15.2918 19.7896 15.4124ZM7.92002 6.71984L7.99757 6.72057C10.2157 6.76201 12 8.5774 12 10.811C12 11.1728 11.947 11.5463 11.8454 11.93C11.5706 12.9679 10.9534 14.0508 10.098 15.1437C9.69242 15.6618 9.25892 16.1486 8.8253 16.591C8.69865 16.7202 8.57938 16.838 8.46948 16.9434L8.3171 17.0872C8.2836 17.1183 8.25749 17.142 8.23943 17.1581C8.06047 17.3177 7.79124 17.3207 7.60875 17.1652L7.47434 17.0464L7.4423 17.0174C7.31457 16.9012 7.17274 16.7671 7.02031 16.6166C6.58553 16.1874 6.15093 15.7113 5.74431 15.1999C4.68766 13.8709 3.99978 12.5398 3.864 11.2575C3.8481 11.1072 3.84002 10.9584 3.84002 10.811C3.84002 8.5774 5.62437 6.76201 7.84247 6.72057L7.92002 6.71984ZM7.92002 7.67984L7.84638 7.6807C6.15732 7.71994 4.80002 9.10569 4.80002 10.811C4.80002 10.9241 4.80627 11.0393 4.81866 11.1564C4.9314 12.2211 5.54228 13.4032 6.49574 14.6024C6.87662 15.0815 7.28577 15.5297 7.69474 15.9334C7.74237 15.9804 7.78883 16.0257 7.83399 16.0691L7.91354 16.1449L8.00004 16.0598L8.13975 15.919C8.54988 15.5006 8.96013 15.0398 9.34205 14.5519C10.1244 13.5525 10.6817 12.5746 10.9174 11.6843C10.9986 11.3775 11.04 11.0859 11.04 10.811C11.04 9.10569 9.68273 7.71994 7.99367 7.6807L7.92002 7.67984ZM16.5344 3.83984C16.8222 3.83984 17.0774 4.01437 17.1901 4.28123L17.2067 4.32412L18.1274 7.05498C18.2022 6.99232 18.2964 6.95203 18.3997 6.94441L18.4355 6.94309H20.1635C20.4286 6.94309 20.6435 7.158 20.6435 7.42309C20.6435 7.67614 20.4477 7.88345 20.1993 7.90178L20.1635 7.90309H18.4355L18.4131 7.90208L18.5808 8.39984H19.2C19.5623 8.39984 19.8954 8.65137 19.9187 9.02626L19.92 9.06842V13.9713C19.92 14.3551 19.5999 14.6204 19.2401 14.6388L19.2 14.6398H18.24V15.3598C18.24 15.7433 17.9403 16.0567 17.5623 16.0786L17.52 16.0798H15.84C15.4424 16.0798 15.12 15.7575 15.12 15.3598V14.6398H11.7954C11.5303 14.6398 11.3154 14.4249 11.3154 14.1598C11.3154 13.9068 11.5112 13.6995 11.7596 13.6812L11.7954 13.6798H18.96V9.35984H13.0208C12.7677 9.35984 12.5604 9.16403 12.5421 8.91567L12.5408 8.87984C12.5408 8.6268 12.7366 8.41948 12.9849 8.40116L13.0208 8.39984H17.5678L16.3541 4.79984H7.22426L6.74348 6.18235C6.66051 6.4208 6.4084 6.5522 6.1683 6.48892L6.1324 6.47795C5.89394 6.39498 5.76255 6.14288 5.82583 5.90278L5.83679 5.86687L6.37479 4.32068C6.46935 4.04891 6.7155 3.85955 7.00061 3.84129L7.04594 3.83984H16.5344ZM17.28 14.6398H16.08V15.1198H17.28V14.6398ZM7.92002 8.87984C8.98041 8.87984 9.84002 9.73946 9.84002 10.7998C9.84002 11.8602 8.98041 12.7198 7.92002 12.7198C6.85964 12.7198 6.00002 11.8602 6.00002 10.7998C6.00002 9.73946 6.85964 8.87984 7.92002 8.87984ZM17.7635 11.0231C18.0286 11.0231 18.2435 11.238 18.2435 11.5031C18.2435 11.7561 18.0477 11.9635 17.7993 11.9818L17.7635 11.9831H16.0355C15.7704 11.9831 15.5555 11.7682 15.5555 11.5031C15.5555 11.25 15.7513 11.0427 15.9997 11.0244L16.0355 11.0231H17.7635ZM7.92002 9.83984C7.38983 9.83984 6.96002 10.2696 6.96002 10.7998C6.96002 11.33 7.38983 11.7598 7.92002 11.7598C8.45022 11.7598 8.88002 11.33 8.88002 10.7998C8.88002 10.2696 8.45022 9.83984 7.92002 9.83984Z" fill="black" fill-opacity="0.45"/>
</svg>
