<svg width="24" height="24" viewBox="0 0 24 24" fill="none" xmlns="http://www.w3.org/2000/svg">
<path fill-rule="evenodd" clip-rule="evenodd" d="M11.9278 1.91992C12.1929 1.91992 12.4078 2.13483 12.4078 2.39992L12.4081 2.89235C17.0948 3.13548 20.8453 6.91678 21.0399 11.616L21.506 11.616C21.7711 11.616 21.986 11.8309 21.986 12.096C21.986 12.3611 21.7711 12.576 21.506 12.576L21.0299 12.5761C20.7426 17.1858 17.0307 20.8677 12.4081 21.1075L12.4078 21.6747C12.4078 21.9398 12.1929 22.1547 11.9278 22.1547C11.6627 22.1547 11.4478 21.9398 11.4478 21.6747L11.4479 21.1075C6.82533 20.8678 3.11314 17.1859 2.82575 12.5761L2.40004 12.576C2.13495 12.576 1.92004 12.3611 1.92004 12.096C1.92004 11.8309 2.13495 11.616 2.40004 11.616L2.81578 11.616C3.01042 6.9167 6.76126 3.13535 11.4479 2.89234L11.4478 2.39992C11.4478 2.13483 11.6627 1.91992 11.9278 1.91992ZM12.408 3.85388L12.4078 4.39473C12.4078 4.65982 12.1929 4.87473 11.9278 4.87473C11.6627 4.87473 11.4478 4.65982 11.4478 4.39473L11.4478 3.85388C7.29787 4.09578 3.9705 7.45328 3.77676 11.616L4.4211 11.616C4.68619 11.616 4.9011 11.8309 4.9011 12.096C4.9011 12.3611 4.68619 12.576 4.4211 12.576L3.78796 12.576C4.07343 16.6493 7.36193 19.9078 11.4478 20.146L11.4478 19.6799C11.4478 19.4148 11.6627 19.1999 11.9278 19.1999C12.1929 19.1999 12.4078 19.4148 12.4078 19.6799L12.408 20.146C16.494 19.9077 19.7823 16.6492 20.0677 12.576L19.485 12.576C19.2199 12.576 19.005 12.3611 19.005 12.096C19.005 11.8309 19.2199 11.616 19.485 11.616L20.0789 11.616C19.8852 7.45331 16.5581 4.09583 12.408 3.85388ZM15.1057 7.19992C15.4887 7.19992 15.8334 7.42739 15.9854 7.77559L16.0041 7.82168L16.299 8.60464L17.1278 8.6048C17.3929 8.6048 17.6078 8.8197 17.6078 9.0848C17.6078 9.33785 17.412 9.54516 17.1637 9.56348L17.1278 9.5648L16.6605 9.56464L16.832 10.0199C17.5285 10.103 18.0723 10.6833 18.0986 11.3957L18.0996 11.4497V14.0253C18.0996 14.8025 17.4838 15.4359 16.7135 15.4643L16.6596 15.4653L16.5541 15.4653L16.5542 16.1092C16.5542 16.3743 16.3393 16.5892 16.0742 16.5892C15.8211 16.5892 15.6138 16.3934 15.5955 16.145L15.5942 16.1092L15.5941 15.4653H14.7721L14.7723 15.5999C14.7723 15.9313 14.514 16.2023 14.1878 16.2227L14.1483 16.2239H9.85175C9.52038 16.2239 9.24934 15.9656 9.22898 15.6394L9.22775 15.5999L9.22765 15.4653H8.40589L8.4059 16.1092C8.4059 16.3743 8.19099 16.5892 7.9259 16.5892C7.67285 16.5892 7.46554 16.3934 7.44721 16.145L7.4459 16.1092L7.44589 15.4653L7.34053 15.4653C6.56332 15.4653 5.92991 14.8495 5.90153 14.0793L5.90053 14.0253V11.4497C5.90053 10.7127 6.4542 10.105 7.16829 10.0199L7.33957 9.56464L6.802 9.5648C6.5369 9.5648 6.322 9.3499 6.322 9.0848C6.322 8.83175 6.51781 8.62444 6.76617 8.60612L6.802 8.6048L7.70101 8.60464L7.99597 7.82168C8.13093 7.46319 8.46524 7.22078 8.84467 7.2012L8.89441 7.19992H15.1057ZM14.0043 14.5439H9.99556V15.4559H14.0043V14.5439ZM16.6596 10.9697H7.34053C7.08748 10.9697 6.88017 11.1655 6.86185 11.4139L6.86053 11.4497V14.0253C6.86053 14.2783 7.05634 14.4856 7.30471 14.504L7.34053 14.5053H9.22765L9.22775 14.3999C9.22775 14.0686 9.48605 13.7975 9.81229 13.7772L9.85175 13.7759H14.1483C14.4797 13.7759 14.7508 14.0342 14.7711 14.3605L14.7723 14.3999L14.7721 14.5053H16.6596C16.9126 14.5053 17.1199 14.3095 17.1382 14.0611L17.1396 14.0253V11.4497C17.1396 11.1966 16.9437 10.9893 16.6954 10.971L16.6596 10.9697ZM10.3142 11.6955C10.5793 11.6955 10.7942 11.9104 10.7942 12.1755C10.7942 12.4286 10.5984 12.6359 10.35 12.6542L10.3142 12.6555H8.62834C8.36324 12.6555 8.14834 12.4406 8.14834 12.1755C8.14834 11.9225 8.34415 11.7152 8.59251 11.6968L8.62834 11.6955H10.3142ZM15.3718 11.6955C15.6368 11.6955 15.8518 11.9104 15.8518 12.1755C15.8518 12.4286 15.6559 12.6359 15.4076 12.6542L15.3718 12.6555H13.6859C13.4208 12.6555 13.2059 12.4406 13.2059 12.1755C13.2059 11.9225 13.4017 11.7152 13.6501 11.6968L13.6859 11.6955H15.3718ZM15.1057 8.15992H8.89441L8.19781 10.0096H15.802L15.1057 8.15992Z" fill="black" fill-opacity="0.45"/>
</svg>
