<svg width="24" height="24" viewBox="0 0 24 24" fill="none" xmlns="http://www.w3.org/2000/svg">
<path fill-rule="evenodd" clip-rule="evenodd" d="M12.0465 2.3833C12.2996 2.3833 12.5069 2.57911 12.5252 2.82748L12.5265 2.8633L12.5267 3.49119C16.9645 3.7286 20.5208 7.2369 20.7644 11.6161L21.3382 11.6162C21.6033 11.6162 21.8182 11.8311 21.8182 12.0962C21.8182 12.3492 21.6224 12.5565 21.374 12.5749L21.3382 12.5762L20.7644 12.5763C20.5208 16.9555 16.9645 20.4638 12.5267 20.7012L12.5265 21.2479C12.5265 21.5129 12.3116 21.7278 12.0465 21.7278C11.7935 21.7278 11.5862 21.532 11.5678 21.2837L11.5665 21.2479L11.5665 20.7012C7.1288 20.4638 3.57229 16.9555 3.32863 12.5763L2.71218 12.5762C2.44708 12.5762 2.23218 12.3613 2.23218 12.0962C2.23218 11.8431 2.42799 11.6358 2.67635 11.6175L2.71218 11.6162L3.32863 11.6161C3.57229 7.23684 7.1288 3.72852 11.5665 3.49118L11.5665 2.8633C11.5665 2.5982 11.7814 2.3833 12.0465 2.3833ZM12.5266 4.49034L12.5265 4.85811C12.5265 5.1232 12.3116 5.33811 12.0465 5.33811C11.7935 5.33811 11.5862 5.1423 11.5678 4.89393L11.5665 4.85811L11.5665 4.49033C7.69295 4.72597 4.58281 7.79358 4.34098 11.6162L4.73323 11.6162C4.99833 11.6162 5.21323 11.8311 5.21323 12.0962C5.21323 12.3492 5.01742 12.5565 4.76905 12.5749L4.73323 12.5762L4.34099 12.5763C4.58294 16.3987 7.69303 19.4664 11.5665 19.702L11.5665 19.253C11.5665 18.9879 11.7814 18.773 12.0465 18.773C12.2996 18.773 12.5069 18.9689 12.5252 19.2172L12.5265 19.253L12.5266 19.702C16.4002 19.4664 19.5101 16.3987 19.752 12.5763L19.3171 12.5762C19.052 12.5762 18.8371 12.3613 18.8371 12.0962C18.8371 11.8431 19.0329 11.6358 19.2813 11.6175L19.3171 11.6162L19.752 11.6162C19.5102 7.7936 16.4003 4.726 12.5266 4.49034ZM14.2821 11.0401C14.5606 11.0401 14.8126 11.2005 14.9316 11.4492L14.9501 11.4915L15.4439 12.7198C15.7877 12.7598 16.0576 13.0418 16.0787 13.391L16.08 13.435V15.835C16.08 16.2184 15.7802 16.5319 15.4023 16.5538L15.36 16.555L15.1696 16.5548L15.1697 16.8676C15.1697 17.1327 14.9548 17.3476 14.6897 17.3476C14.4367 17.3476 14.2293 17.1517 14.211 16.9034L14.2097 16.8676L14.2096 16.5548H9.83994L9.83998 16.8676C9.83998 17.1327 9.62507 17.3476 9.35998 17.3476C9.10693 17.3476 8.89962 17.1517 8.88129 16.9034L8.87998 16.8676L8.87994 16.5548L8.63998 16.555C8.25653 16.555 7.9431 16.2553 7.9212 15.8773L7.91998 15.835V13.435C7.91998 13.0664 8.19693 12.7625 8.55408 12.7201L9.04055 11.4945C9.1437 11.2347 9.38717 11.0593 9.66343 11.0416L9.70976 11.0401H14.2821ZM15.0511 13.6752L8.94919 13.6752C8.92639 13.6785 8.90326 13.6803 8.87997 13.6803L8.87998 15.5949H15.12L15.12 13.6803C15.0968 13.6803 15.0738 13.6786 15.0511 13.6752ZM10.56 14.1857C10.8251 14.1857 11.04 14.4006 11.04 14.6657C11.04 14.9187 10.8442 15.1261 10.5958 15.1444L10.56 15.1457H9.83998C9.57488 15.1457 9.35998 14.9308 9.35998 14.6657C9.35998 14.4126 9.55579 14.2053 9.80415 14.187L9.83998 14.1857H10.56ZM14.16 14.1857C14.4251 14.1857 14.64 14.4006 14.64 14.6657C14.64 14.9187 14.4442 15.1261 14.1958 15.1444L14.16 15.1457H13.44C13.1749 15.1457 12.96 14.9308 12.96 14.6657C12.96 14.4126 13.1558 14.2053 13.4042 14.187L13.44 14.1857H14.16ZM14.1199 12.0001H9.87238L9.5889 12.7148H14.4074L14.1199 12.0001ZM16.2492 6.96013C16.5646 6.96013 16.8415 7.16504 16.9356 7.46262L16.9473 7.50376L17.1766 8.41106C17.4987 8.46861 17.74 8.7465 17.7588 9.07839L17.76 9.12013V10.5601C17.76 10.9381 17.4711 11.2566 17.0948 11.2789L17.0526 11.2801L16.9447 11.2801L16.9448 11.3945C16.9448 11.6596 16.7299 11.8745 16.4648 11.8745C16.2118 11.8745 16.0045 11.6787 15.9862 11.4304L15.9848 11.3945L15.9847 11.2801L15.733 11.2801C15.4679 11.2801 15.253 11.0652 15.253 10.8001C15.253 10.5471 15.4488 10.3398 15.6972 10.3214L15.733 10.3201H16.8V9.36013H13.44V10.0631C13.44 10.3162 13.2442 10.5235 12.9958 10.5418L12.96 10.5431C12.7069 10.5431 12.4996 10.3473 12.4813 10.0989L12.48 10.0631V9.12013C12.48 8.77037 12.7273 8.47158 13.0624 8.41123L13.2879 7.50593C13.3644 7.19915 13.6313 6.97988 13.9437 6.9614L13.9865 6.96013H16.2492ZM9.77341 6.96013L9.81627 6.9614C10.1137 6.979 10.37 7.17872 10.4598 7.46271L10.472 7.50593L10.6976 8.41123C11.0187 8.46907 11.2592 8.74589 11.2787 9.07669L11.28 9.12013V10.0631L11.2787 10.0989C11.2613 10.3349 11.0733 10.5234 10.8376 10.5417L10.8 10.5431L10.7642 10.5418C10.5282 10.5244 10.3397 10.3364 10.3214 10.1007L10.32 10.0631V9.36013H6.95998V10.3201H8.12503L8.16085 10.3214C8.40922 10.3398 8.60503 10.5471 8.60503 10.8001C8.60503 11.0532 8.40922 11.2605 8.16085 11.2788L8.12503 11.2801L7.77498 11.2801L7.77511 11.3945L7.7738 11.4304C7.75547 11.6787 7.54816 11.8745 7.29511 11.8745C7.04207 11.8745 6.83475 11.6787 6.81643 11.4304L6.81511 11.3945L6.81498 11.2801L6.70734 11.2801L6.66519 11.2789C6.30284 11.2574 6.0215 10.9613 6.00115 10.6019L5.99998 10.5601V9.12013L6.00115 9.07839C6.01994 8.74642 6.26133 8.46848 6.58356 8.41102L6.81264 7.50376L6.82434 7.46262C6.91401 7.17921 7.16938 6.97986 7.46593 6.96151L7.5107 6.96013H9.77341ZM9.58606 7.92013H7.69774L7.57626 8.4001H9.70554L9.58606 7.92013ZM16.0622 7.92013H14.1739L14.0541 8.4001H16.1836L16.0622 7.92013Z" fill="black" fill-opacity="0.45"/>
</svg>
