<svg width="24" height="24" viewBox="0 0 24 24" fill="none" xmlns="http://www.w3.org/2000/svg">
<path d="M5.20844 9.93138C5.45511 9.98785 5.61349 10.225 5.57593 10.4712L5.56922 10.5064L3.695 18.6932H20.3049L18.4315 10.5095C18.375 10.2629 18.5196 10.0171 18.7577 9.94378L18.7923 9.9345C19.039 9.87803 19.2847 10.0226 19.358 10.2607L19.3673 10.2953L21.3449 18.9334C21.4228 19.2731 21.1918 19.6281 20.8262 19.6521L20.7865 19.6534H3.21348C2.83854 19.6534 2.59191 19.3101 2.64794 18.97L2.65511 18.9336L4.63343 10.2922C4.69259 10.0337 4.95003 9.87222 5.20844 9.93138ZM17.3184 13.6801L17.3762 13.681C18.2987 13.7116 19.0368 14.4691 19.0368 15.399C19.0368 15.5514 19.0148 15.7062 18.9733 15.8628C18.866 16.2679 18.6339 16.6744 18.3151 17.0805C18.1678 17.2682 18.0111 17.4438 17.8542 17.6034L17.7867 17.6711L17.7012 17.7538C17.6761 17.7775 17.6546 17.7971 17.6373 17.8126C17.4585 17.9715 17.1899 17.9745 17.0076 17.8196C16.8311 17.6697 16.5781 17.4207 16.3238 17.1016C15.9261 16.6027 15.664 16.0966 15.6099 15.5846C15.6033 15.5224 15.6 15.4605 15.6 15.399C15.6 14.4692 16.3382 13.7116 17.2605 13.681L17.3184 13.6801ZM14.8068 16.0681C15.0454 16.0681 15.2388 16.2615 15.2388 16.5001C15.2388 16.7387 15.0454 16.9321 14.8068 16.9321H11.3026L11.5636 17.1928C11.7323 17.3615 11.7323 17.635 11.5636 17.8038C11.3949 17.9725 11.1214 17.9725 10.9527 17.8038L10.0363 16.8873C10.0166 16.8677 9.99921 16.8466 9.98412 16.8243C9.89546 16.7451 9.83881 16.6292 9.83881 16.5001C9.83881 16.2615 10.0322 16.0681 10.2708 16.0681H14.8068ZM17.3184 14.6401L17.2753 14.6413C16.8766 14.6636 16.56 14.9944 16.56 15.399C16.56 15.4264 16.5615 15.4546 16.5646 15.4837C16.5956 15.7775 16.7804 16.1342 17.0745 16.5032C17.1235 16.5647 17.1741 16.6247 17.2256 16.683L17.3128 16.7787L17.329 16.7614C17.3817 16.7031 17.4338 16.6429 17.4847 16.5813L17.56 16.4878C17.8052 16.1754 17.9772 15.8741 18.0453 15.617C18.0664 15.5374 18.0768 15.4645 18.0768 15.399C18.0768 14.9943 17.7603 14.6636 17.3614 14.6413L17.3184 14.6401ZM13.1672 13.9964L14.0836 14.9128C14.2453 15.0745 14.252 15.3324 14.1038 15.5021C14.0262 15.62 13.8928 15.6982 13.7411 15.6982H9.2051C8.96651 15.6982 8.7731 15.5048 8.7731 15.2662C8.7731 15.0276 8.96651 14.8342 9.2051 14.8342L12.7829 14.834L12.5563 14.6073C12.3876 14.4386 12.3876 14.1651 12.5563 13.9964C12.725 13.8277 12.9985 13.8277 13.1672 13.9964ZM7.23836 11.2801L7.29624 11.281C8.21866 11.3116 8.95676 12.0691 8.95676 12.999C8.95676 13.1514 8.9348 13.3062 8.89332 13.4628C8.78603 13.8679 8.55385 14.2744 8.23515 14.6805C8.08784 14.8682 7.93106 15.0438 7.77417 15.2034L7.70668 15.2711L7.62119 15.3538C7.59612 15.3775 7.57465 15.3971 7.55726 15.4126C7.37845 15.5715 7.10989 15.5745 6.92757 15.4196C6.75111 15.2697 6.49814 15.0207 6.24382 14.7016C5.84607 14.2027 5.58396 13.6966 5.52987 13.1846C5.5233 13.1224 5.51996 13.0605 5.51996 12.999C5.51996 12.0692 6.25821 11.3116 7.18048 11.281L7.23836 11.2801ZM7.23836 12.2401L7.19533 12.2413C6.79658 12.2636 6.47996 12.5944 6.47996 12.999C6.47996 13.0264 6.48148 13.0546 6.48456 13.0837C6.51559 13.3775 6.70037 13.7342 6.99449 14.1032C7.04351 14.1647 7.09411 14.2247 7.14563 14.283L7.23284 14.3787L7.24898 14.3614C7.30173 14.3031 7.35385 14.2429 7.4047 14.1813L7.47996 14.0878C7.72517 13.7754 7.89723 13.4741 7.96531 13.217C7.98641 13.1374 7.99676 13.0645 7.99676 12.999C7.99676 12.5943 7.68026 12.2636 7.2814 12.2413L7.23836 12.2401ZM14.6042 4.08008C14.9873 4.08008 15.332 4.30755 15.484 4.65575L15.5027 4.70184L15.811 5.52104L15.84 5.52008H16.8C17.0651 5.52008 17.28 5.73498 17.28 6.00008C17.28 6.25312 17.0841 6.46044 16.8358 6.47876L16.8 6.48008H16.1722L16.1838 6.51078C17.0611 6.66939 17.731 7.42406 17.759 8.34028L17.76 8.40008V9.84008C17.76 10.1052 17.5451 10.3201 17.28 10.3201C17.0269 10.3201 16.8196 10.1243 16.8013 9.8759L16.8 9.84008V8.40008C16.8 7.88595 16.3958 7.46622 15.8879 7.44125L15.84 7.44008H8.15996C7.64583 7.44008 7.2261 7.84423 7.20113 8.35216L7.19996 8.40008V9.84008C7.19996 10.1052 6.98505 10.3201 6.71996 10.3201C6.46691 10.3201 6.2596 10.1243 6.24127 9.8759L6.23996 9.84008V8.40008C6.23996 7.45705 6.91983 6.67281 7.81616 6.51077L7.82761 6.48008H7.19996C6.93486 6.48008 6.71996 6.26517 6.71996 6.00008C6.71996 5.74703 6.91577 5.53972 7.16413 5.52139L7.19996 5.52008H8.15996L8.18881 5.52104L8.49723 4.70184C8.63219 4.34334 8.9665 4.10094 9.34593 4.08136L9.39567 4.08008H14.6042ZM10.56 7.92008C10.8251 7.92008 11.04 8.13498 11.04 8.40008C11.04 8.65313 10.8441 8.86044 10.5958 8.87876L10.56 8.88008H9.11996C8.85486 8.88008 8.63996 8.66517 8.63996 8.40008C8.63996 8.14703 8.83577 7.93972 9.08413 7.92139L9.11996 7.92008H10.56ZM14.88 7.92008C15.1451 7.92008 15.36 8.13498 15.36 8.40008C15.36 8.65313 15.1641 8.86044 14.9158 8.87876L14.88 8.88008H13.44C13.1749 8.88008 12.96 8.66517 12.96 8.40008C12.96 8.14703 13.1558 7.93972 13.4041 7.92139L13.44 7.92008H14.88ZM14.6042 5.04008H9.39567L8.85337 6.48008H15.1464L14.6042 5.04008Z" fill="black" fill-opacity="0.45"/>
</svg>
