<svg width="24" height="24" viewBox="0 0 24 24" fill="none" xmlns="http://www.w3.org/2000/svg">
<path d="M12 7.20021C12.3977 7.20021 12.72 7.52257 12.72 7.92022V11.0402C12.72 11.3053 12.5051 11.5202 12.24 11.5202C11.9749 11.5202 11.76 11.3053 11.76 11.0402V8.16021H8.16002V12.4802C8.16002 12.8779 7.83767 13.2002 7.44002 13.2002H6.24002V18.9602H10.56C10.8251 18.9602 11.04 19.1751 11.04 19.4402C11.04 19.7053 10.8251 19.9202 10.56 19.9202H6.00002C5.60238 19.9202 5.28002 19.5979 5.28002 19.2002V12.9602C5.28002 12.5626 5.60238 12.2402 6.00002 12.2402H7.20002V7.92022C7.20002 7.52257 7.52238 7.20021 7.92002 7.20021H12ZM18.5643 11.7602C18.9474 11.7602 19.292 11.9877 19.444 12.3359L19.4628 12.382L19.6803 12.9602H20.34C20.6051 12.9602 20.82 13.1751 20.82 13.4402C20.82 13.6933 20.6242 13.9006 20.3758 13.9189L20.34 13.9202H20.0417L20.1482 14.2026C20.7585 14.3541 21.215 14.8949 21.239 15.5462L21.24 15.6002V17.5202C21.24 18.275 20.6593 18.8942 19.9202 18.9553L19.92 19.4402C19.92 19.7053 19.7051 19.9202 19.44 19.9202C19.187 19.9202 18.9797 19.7244 18.9613 19.476L18.96 19.4402V18.9602H12.96V19.4402C12.96 19.7053 12.7451 19.9202 12.48 19.9202C12.227 19.9202 12.0197 19.7244 12.0013 19.476L12 19.4402L12 18.9553C11.2794 18.8958 10.7092 18.3057 10.6811 17.5766L10.68 17.5202V15.6002C10.68 14.925 11.1448 14.3583 11.7718 14.2026L11.8781 13.9202H11.52C11.2549 13.9202 11.04 13.7053 11.04 13.4402C11.04 13.1872 11.2358 12.9799 11.4842 12.9615L11.52 12.9602H12.2395L12.4573 12.382C12.5923 12.0235 12.9266 11.7811 13.306 11.7615L13.3557 11.7602H18.5643ZM19.8 15.1202H12.12C11.867 15.1202 11.6597 15.316 11.6413 15.5644L11.64 15.6002V17.5202C11.64 17.7733 11.8358 17.9806 12.0842 17.9989L12.12 18.0002H19.8C20.0531 18.0002 20.2604 17.8044 20.2787 17.556L20.28 17.5202V15.6002C20.28 15.3472 20.0842 15.1399 19.8358 15.1215L19.8 15.1202ZM14.52 15.6002C14.7851 15.6002 15 15.8151 15 16.0802C15 16.3333 14.8042 16.5406 14.5558 16.5589L14.52 16.5602H13.08C12.8149 16.5602 12.6 16.3453 12.6 16.0802C12.6 15.8272 12.7958 15.6199 13.0442 15.6015L13.08 15.6002H14.52ZM18.84 15.6002C19.1051 15.6002 19.32 15.8151 19.32 16.0802C19.32 16.3333 19.1242 16.5406 18.8758 16.5589L18.84 16.5602H17.4C17.1349 16.5602 16.92 16.3453 16.92 16.0802C16.92 15.8272 17.1158 15.6199 17.3642 15.6015L17.4 15.6002H18.84ZM18.5643 12.7202H13.3557L12.8134 14.1602H19.1064L18.5643 12.7202ZM3.73093 4.28452C5.08309 3.33772 6.93693 3.60968 7.96294 4.89516C8.21539 5.21145 7.98719 5.67901 7.58253 5.67457C7.13481 5.66966 6.69687 5.80271 6.32198 6.06521C5.34372 6.7502 5.1067 8.10006 5.79306 9.08029C5.8197 9.11833 5.8474 9.15536 5.87614 9.19137C6.12859 9.50766 5.90038 9.97521 5.49572 9.9708C4.49472 9.95979 3.552 9.47315 2.96626 8.63662C1.97596 7.22233 2.3181 5.27379 3.73093 4.28452ZM6.48373 4.90576C5.7959 4.56509 4.94996 4.60289 4.28156 5.0709C3.3033 5.75589 3.06628 7.10575 3.75264 8.08599C3.97148 8.39852 4.26172 8.64044 4.59149 8.79835C4.18014 7.52681 4.62057 6.08461 5.77135 5.27883C5.99471 5.12243 6.23409 4.99774 6.48373 4.90576Z" fill="black" fill-opacity="0.45"/>
</svg>
