<svg width="24" height="24" viewBox="0 0 24 24" fill="none" xmlns="http://www.w3.org/2000/svg">
<path d="M5.20844 9.45138C5.45511 9.50785 5.61349 9.74499 5.57593 9.99118L5.56922 10.0264L3.695 18.2134H20.3052L18.4315 10.0295C18.375 9.78285 18.5196 9.53707 18.7577 9.46378L18.7923 9.4545C19.039 9.39803 19.2847 9.54264 19.358 9.78066L19.3673 9.81528L21.3449 18.4534C21.4228 18.7931 21.1918 19.1481 20.8262 19.1721L20.7865 19.1734H3.21348C2.83854 19.1734 2.59191 18.8301 2.64794 18.49L2.65511 18.4536L4.63343 9.81216C4.69259 9.55375 4.95003 9.39222 5.20844 9.45138ZM8.87321 13.44C9.56255 13.4376 10.1703 13.6912 10.9228 14.2095L11.0138 14.2729C11.105 14.3373 11.1988 14.4055 11.3065 14.4855L11.7259 14.8006C12.6754 15.5141 13.2235 15.8211 13.8999 15.9327C14.1614 15.9758 14.3385 16.2228 14.2954 16.4844C14.2522 16.746 14.0052 16.923 13.7437 16.8799C12.8977 16.7404 12.2582 16.393 11.2511 15.6443L10.7982 15.3039C10.6898 15.2229 10.5977 15.1553 10.5115 15.0936L10.4603 15.0573C9.81354 14.6009 9.34955 14.3984 8.87669 14.4001C7.66849 14.4045 6.89385 14.8172 6.42274 15.5031C6.25708 15.7443 6.14068 16.0048 6.06605 16.2651C6.03201 16.3838 6.01263 16.4788 6.00354 16.54L5.99817 16.584C5.9753 16.8481 5.74266 17.0437 5.47855 17.0208C5.21444 16.9979 5.01888 16.7653 5.04174 16.5012C5.05136 16.3901 5.08125 16.2167 5.14322 16.0005C5.24481 15.6462 5.40303 15.2921 5.63144 14.9595C6.28026 14.015 7.34878 13.4457 8.87321 13.44ZM15.3925 15.8791C15.6568 15.8588 15.8875 16.0567 15.9077 16.321C15.9279 16.5854 15.7301 16.816 15.4657 16.8363C15.3744 16.8433 15.2822 16.8468 15.1892 16.8468C14.9241 16.8468 14.7092 16.6319 14.7092 16.3668C14.7092 16.1017 14.9241 15.8868 15.1892 15.8868C15.2578 15.8868 15.3255 15.8842 15.3925 15.8791ZM16.7221 15.3953C16.9403 15.2448 17.2392 15.2997 17.3897 15.5179C17.5403 15.7362 17.4853 16.0351 17.2671 16.1856C17.1923 16.2372 17.1158 16.2863 17.0378 16.3327C16.8099 16.468 16.5153 16.3931 16.38 16.1651C16.2446 15.9372 16.3195 15.6427 16.5475 15.5073C16.6067 15.4721 16.6649 15.4348 16.7221 15.3953ZM17.7322 14.327C17.8687 14.0997 18.1636 14.0262 18.3909 14.1627C18.6181 14.2993 18.6916 14.5942 18.5551 14.8214C18.5145 14.889 18.4642 14.9665 18.4042 15.0515C18.2514 15.2681 17.952 15.3199 17.7353 15.1671C17.5187 15.0143 17.4669 14.7148 17.6197 14.4982C17.6658 14.4329 17.7033 14.375 17.7322 14.327ZM13.92 10.3201C14.9826 10.3201 15.84 11.1744 15.84 12.2401C15.84 12.9106 15.3152 13.7852 14.2798 14.9578C14.0887 15.1742 13.7512 15.1742 13.5602 14.9578L13.4049 14.7797C12.4722 13.696 12 12.8763 12 12.2401C12 11.1744 12.8574 10.3201 13.92 10.3201ZM13.92 11.2801C13.3862 11.2801 12.96 11.709 12.96 12.2472C12.96 12.5479 13.2583 13.1087 13.92 13.9201C14.5816 13.1087 14.88 12.5479 14.88 12.2472C14.88 11.709 14.4537 11.2801 13.92 11.2801ZM14.6042 4.08008C14.9873 4.08008 15.332 4.30755 15.484 4.65575L15.5027 4.70184L15.811 5.52104L15.84 5.52008H16.8C17.0651 5.52008 17.28 5.73498 17.28 6.00008C17.28 6.25312 17.0841 6.46044 16.8358 6.47876L16.8 6.48008H16.1722L16.1838 6.51078C17.0611 6.66939 17.731 7.42406 17.759 8.34028L17.76 8.40008V9.84008C17.76 10.1052 17.5451 10.3201 17.28 10.3201C17.0269 10.3201 16.8196 10.1243 16.8013 9.8759L16.8 9.84008V8.40008C16.8 7.88595 16.3958 7.46622 15.8879 7.44125L15.84 7.44008H8.15996C7.64583 7.44008 7.2261 7.84423 7.20113 8.35216L7.19996 8.40008V9.84008C7.19996 10.1052 6.98505 10.3201 6.71996 10.3201C6.46691 10.3201 6.2596 10.1243 6.24127 9.8759L6.23996 9.84008V8.40008C6.23996 7.45705 6.91983 6.67281 7.81616 6.51077L7.82761 6.48008H7.19996C6.93486 6.48008 6.71996 6.26517 6.71996 6.00008C6.71996 5.74703 6.91577 5.53972 7.16413 5.52139L7.19996 5.52008H8.15996L8.18881 5.52104L8.49723 4.70184C8.63219 4.34334 8.9665 4.10094 9.34593 4.08136L9.39567 4.08008H14.6042ZM10.56 7.92008C10.8251 7.92008 11.04 8.13498 11.04 8.40008C11.04 8.65313 10.8441 8.86044 10.5958 8.87876L10.56 8.88008H9.11996C8.85486 8.88008 8.63996 8.66517 8.63996 8.40008C8.63996 8.14703 8.83577 7.93972 9.08413 7.92139L9.11996 7.92008H10.56ZM14.88 7.92008C15.1451 7.92008 15.36 8.13498 15.36 8.40008C15.36 8.65313 15.1641 8.86044 14.9158 8.87876L14.88 8.88008H13.44C13.1749 8.88008 12.96 8.66517 12.96 8.40008C12.96 8.14703 13.1558 7.93972 13.4041 7.92139L13.44 7.92008H14.88ZM14.6042 5.04008H9.39567L8.85337 6.48008H15.1464L14.6042 5.04008Z" fill="black" fill-opacity="0.45"/>
</svg>
