<svg width="24" height="24" viewBox="0 0 24 24" fill="none" xmlns="http://www.w3.org/2000/svg">
<path fill-rule="evenodd" clip-rule="evenodd" d="M5.2799 14.1601C6.87048 14.1601 8.1599 15.4495 8.1599 17.0401C8.1599 18.6307 6.87048 19.9201 5.2799 19.9201C3.68932 19.9201 2.3999 18.6307 2.3999 17.0401C2.3999 15.4495 3.68932 14.1601 5.2799 14.1601ZM16.4399 13.4401C17.9642 13.4401 19.1999 14.6758 19.1999 16.2001V18.9601H19.4399C19.705 18.9601 19.9199 19.175 19.9199 19.4401C19.9199 19.7052 19.705 19.9201 19.4399 19.9201H13.4399C13.1748 19.9201 12.9599 19.7052 12.9599 19.4401C12.9599 19.175 13.1748 18.9601 13.4399 18.9601H13.6799V16.2001C13.6799 14.6758 14.9156 13.4401 16.4399 13.4401ZM11.6999 18.9601C11.965 18.9601 12.1799 19.175 12.1799 19.4401C12.1799 19.7052 11.965 19.9201 11.6999 19.9201H8.4599C8.19481 19.9201 7.9799 19.7052 7.9799 19.4401C7.9799 19.175 8.19481 18.9601 8.4599 18.9601H11.6999ZM5.2799 15.1201C4.21952 15.1201 3.3599 15.9797 3.3599 17.0401C3.3599 18.1005 4.21952 18.9601 5.2799 18.9601C6.34029 18.9601 7.1999 18.1005 7.1999 17.0401C7.1999 15.9797 6.34029 15.1201 5.2799 15.1201ZM16.4399 14.4001C15.4458 14.4001 14.6399 15.206 14.6399 16.2001V18.9601H18.2399V16.2001C18.2399 15.206 17.434 14.4001 16.4399 14.4001ZM17.1787 15.3C17.3521 15.4727 17.3659 15.745 17.2199 15.9335L17.18 15.9788L16.7999 16.3599L17.2506 16.3602C17.2628 16.3605 17.2749 16.3612 17.287 16.3624C17.2937 16.363 17.3005 16.3638 17.3071 16.3647C17.3164 16.3661 17.3257 16.3677 17.3349 16.3695C17.3475 16.372 17.3598 16.375 17.3719 16.3784C17.3764 16.3797 17.3807 16.381 17.385 16.3824C17.3975 16.3863 17.4099 16.3908 17.422 16.3958C17.428 16.3983 17.4342 16.401 17.4404 16.4038C17.4499 16.4082 17.4589 16.4127 17.4678 16.4175C17.4767 16.4222 17.4856 16.4274 17.4945 16.433C17.4983 16.4354 17.502 16.4378 17.5057 16.4403C17.5314 16.4573 17.5559 16.4773 17.5787 16.5C17.5829 16.5041 17.5869 16.5083 17.5909 16.5126C17.6127 16.5359 17.6324 16.5617 17.6493 16.5893C17.6529 16.5951 17.6563 16.6008 17.6595 16.6066C17.6649 16.6164 17.6701 16.6265 17.675 16.6369L17.6858 16.6619L17.6911 16.6757L17.696 16.69C17.6983 16.6969 17.7003 16.7034 17.7021 16.71C17.7056 16.7221 17.7086 16.7348 17.7111 16.7477C17.7116 16.7505 17.7121 16.7532 17.7126 16.7559C17.7175 16.7832 17.72 16.8113 17.72 16.8401L17.7185 16.8026C17.7191 16.8095 17.7195 16.8164 17.7197 16.8233L17.7198 16.8523C17.7196 16.8619 17.719 16.8717 17.7182 16.8815C17.7173 16.8924 17.716 16.903 17.7144 16.9135L17.7106 16.9349C17.7086 16.9447 17.7064 16.9543 17.7039 16.9638L17.6954 16.9919C17.6922 17.0017 17.6887 17.0111 17.6849 17.0204C17.6831 17.0251 17.681 17.0299 17.6789 17.0346C17.6731 17.0477 17.6668 17.0604 17.6599 17.0728C17.6568 17.0785 17.6533 17.0844 17.6498 17.0902C17.6431 17.101 17.6362 17.1114 17.6289 17.1215L17.6145 17.1394L17.58 17.1788L16.3848 18.3787C16.1977 18.5665 15.8938 18.5671 15.706 18.38C15.5326 18.2073 15.5188 17.935 15.6649 17.7464L15.7047 17.7012L16.0842 17.3199L15.6546 17.3201C15.6492 17.3201 15.6439 17.32 15.6385 17.3198C15.5181 17.3183 15.3981 17.2717 15.306 17.18C15.1326 17.0073 15.1188 16.735 15.2649 16.5464L15.3047 16.5012L16.4999 15.3013C16.687 15.1135 16.9909 15.1129 17.1787 15.3ZM4.0799 16.5601C4.345 16.5601 4.5599 16.775 4.5599 17.0401C4.5599 17.3052 4.345 17.5201 4.0799 17.5201C3.81481 17.5201 3.5999 17.3052 3.5999 17.0401C3.5999 16.775 3.81481 16.5601 4.0799 16.5601ZM5.2799 16.5601C5.545 16.5601 5.7599 16.775 5.7599 17.0401C5.7599 17.3052 5.545 17.5201 5.2799 17.5201C5.01481 17.5201 4.7999 17.3052 4.7999 17.0401C4.7999 16.775 5.01481 16.5601 5.2799 16.5601ZM6.4799 16.5601C6.745 16.5601 6.9599 16.775 6.9599 17.0401C6.9599 17.3052 6.745 17.5201 6.4799 17.5201C6.21481 17.5201 5.9999 17.3052 5.9999 17.0401C5.9999 16.775 6.21481 16.5601 6.4799 16.5601ZM21.1999 15.8001C21.4208 15.8001 21.5999 15.9792 21.5999 16.2001C21.5999 16.404 21.4473 16.5723 21.2501 16.597L21.1999 16.6001H20.1999C19.979 16.6001 19.7999 16.421 19.7999 16.2001C19.7999 15.9962 19.9525 15.8279 20.1497 15.8032L20.1999 15.8001H21.1999ZM12.6799 15.8001C12.9008 15.8001 13.0799 15.9792 13.0799 16.2001C13.0799 16.404 12.9273 16.5723 12.7301 16.597L12.6799 16.6001H11.6799C11.459 16.6001 11.2799 16.421 11.2799 16.2001C11.2799 15.9962 11.4325 15.8279 11.6297 15.8032L11.6799 15.8001H12.6799ZM20.0183 12.6217C20.1615 12.7649 20.1734 12.9896 20.0541 13.1464L20.0183 13.1874L19.3112 13.8945C19.155 14.0507 18.9017 14.0507 18.7455 13.8945C18.6023 13.7513 18.5904 13.5266 18.7097 13.3698L18.7455 13.3288L19.4526 12.6217C19.6088 12.4655 19.8621 12.4655 20.0183 12.6217ZM13.3862 12.5859L13.4272 12.6217L14.1343 13.3288C14.2905 13.485 14.2905 13.7383 14.1343 13.8945C13.9911 14.0377 13.7664 14.0496 13.6096 13.9303L13.5686 13.8945L12.8615 13.1874C12.7053 13.0312 12.7053 12.7779 12.8615 12.6217C13.0047 12.4785 13.2295 12.4666 13.3862 12.5859ZM11.6268 9.37937C12.6366 9.37937 13.5386 9.99103 13.9919 10.9352C14.1066 11.1742 14.0059 11.461 13.7669 11.5757C13.5279 11.6904 13.2411 11.5897 13.1264 11.3507C12.8277 10.7285 12.2539 10.3394 11.6268 10.3394H9.49298C8.56251 10.3394 7.78778 11.1935 7.78778 12.2687V13.3367C7.78778 13.6018 7.57288 13.8167 7.30778 13.8167C7.04269 13.8167 6.82778 13.6018 6.82778 13.3367V12.2687C6.82778 10.6831 8.01029 9.37937 9.49298 9.37937H11.6268ZM16.4399 11.0401C16.6438 11.0401 16.8121 11.1927 16.8368 11.3899L16.8399 11.4401V12.4401C16.8399 12.661 16.6608 12.8401 16.4399 12.8401C16.236 12.8401 16.0677 12.6875 16.043 12.4903L16.0399 12.4401V11.4401C16.0399 11.2192 16.219 11.0401 16.4399 11.0401ZM10.4399 4.08008C11.8317 4.08008 12.9599 5.20832 12.9599 6.60008C12.9599 7.99184 11.8317 9.12008 10.4399 9.12008C9.04815 9.12008 7.9199 7.99184 7.9199 6.60008C7.9199 5.20832 9.04815 4.08008 10.4399 4.08008ZM10.4399 5.04008C9.57834 5.04008 8.8799 5.73851 8.8799 6.60008C8.8799 7.46164 9.57834 8.16008 10.4399 8.16008C11.3015 8.16008 11.9999 7.46164 11.9999 6.60008C11.9999 5.73851 11.3015 5.04008 10.4399 5.04008Z" fill="black" fill-opacity="0.45"/>
</svg>
