<svg width="24" height="24" viewBox="0 0 24 24" fill="none" xmlns="http://www.w3.org/2000/svg">
<path fill-rule="evenodd" clip-rule="evenodd" d="M11.9919 3.55393L18.247 9.72023C18.4358 9.90634 18.7397 9.90417 18.9258 9.71538C19.1119 9.52659 19.1097 9.22268 18.921 9.03657L12.3289 2.53807C12.142 2.35384 11.8418 2.35385 11.655 2.53808L8.02789 6.11376V5.66657C8.02789 5.40147 7.81299 5.18657 7.54789 5.18657H4.50045C4.23535 5.18657 4.02045 5.40147 4.02045 5.66657V10.0644L0.862074 13.1781C0.67329 13.3642 0.671122 13.6681 0.857232 13.8569C1.04334 14.0457 1.34725 14.0478 1.53604 13.8617L11.9919 3.55393ZM7.06789 6.14657V7.06017L4.98045 9.11804V6.14657H7.06789ZM23.31 15.3762C23.31 13.2464 21.5841 11.5199 19.4549 11.5199C17.3257 11.5199 15.6 13.2463 15.6 15.3762C15.6 15.5151 15.6076 15.6554 15.6226 15.7969C15.7507 17.0032 16.3981 18.2527 17.3921 19.4995C17.7741 19.9787 18.1824 20.4247 18.5908 20.8268C18.734 20.9678 18.8673 21.0934 18.9873 21.2024C19.0605 21.2688 19.1139 21.3155 19.1441 21.3412C19.3264 21.4961 19.595 21.4931 19.7738 21.3342C19.8036 21.3076 19.8566 21.2592 19.9294 21.1905C20.049 21.0776 20.1818 20.9477 20.3246 20.8025C20.7318 20.3882 21.139 19.9322 21.52 19.4468C22.3246 18.4219 22.9052 17.4057 23.1641 16.4303C23.26 16.0692 23.31 15.7174 23.31 15.3762ZM19.4549 12.4799C17.856 12.4799 16.56 13.7764 16.56 15.3762C16.56 15.4808 16.5658 15.5873 16.5773 15.6956C16.6822 16.6838 17.2523 17.7841 18.1428 18.9011C18.499 19.3479 18.8817 19.766 19.2643 20.1427C19.3281 20.2055 19.3897 20.2649 19.4486 20.3208C19.5097 20.2608 19.5736 20.197 19.6399 20.1295C20.0237 19.7391 20.4076 19.3092 20.7649 18.8541C21.496 17.9226 22.0166 17.0117 22.2362 16.1841C22.3116 15.9 22.35 15.6302 22.35 15.3762C22.35 13.7765 21.0539 12.4799 19.4549 12.4799ZM19.4549 13.3417C18.313 13.3417 17.3871 14.2683 17.3871 15.4105C17.3871 16.5528 18.313 17.4793 19.4549 17.4793C20.5968 17.4793 21.523 16.5528 21.523 15.4105C21.523 14.2683 20.5968 13.3417 19.4549 13.3417ZM20.563 15.4105C20.563 16.0227 20.0665 16.5193 19.4549 16.5193C18.8433 16.5193 18.347 16.0227 18.347 15.4105C18.347 14.7984 18.8433 14.3017 19.4549 14.3017C20.0665 14.3017 20.563 14.7984 20.563 15.4105ZM4.50045 13.0399C4.76555 13.0399 4.98045 13.2548 4.98045 13.5199V20.6234L10.08 20.6234V16.5999C10.08 16.0476 10.5277 15.5999 11.08 15.5999H12.92C13.4723 15.5999 13.92 16.0476 13.92 16.5999V20.6261L16.4199 20.6399C16.685 20.6414 16.8987 20.8575 16.8972 21.1226C16.8958 21.3877 16.6797 21.6014 16.4146 21.5999L13.4328 21.5834H4.50045C4.23535 21.5834 4.02045 21.3685 4.02045 21.1034V13.5199C4.02045 13.2548 4.23535 13.0399 4.50045 13.0399ZM12.96 20.6234V17.0599C12.96 16.7838 12.7362 16.5599 12.46 16.5599H11.54C11.2639 16.5599 11.04 16.7838 11.04 17.0599V20.6234L12.96 20.6234Z" fill="black" fill-opacity="0.45"/>
</svg>
