<svg width="24" height="24" viewBox="0 0 24 24" fill="none" xmlns="http://www.w3.org/2000/svg">
<path fill-rule="evenodd" clip-rule="evenodd" d="M12.375 19H13.17C13.4462 19 13.67 19.2239 13.67 19.5C13.67 19.7761 13.4462 20 13.17 20H7.5H2.5C2.22386 20 2 19.7761 2 19.5V10C2 9.72386 2.22386 9.5 2.5 9.5H7V1.5C7 1.22386 7.22386 1 7.5 1H18.5C18.7761 1 19 1.22386 19 1.5V11.9077C19 12.1839 18.7761 12.4077 18.5 12.4077C18.2239 12.4077 18 12.1839 18 11.9077V2H8V19H9.125V15C9.125 14.7929 9.29289 14.625 9.5 14.625H12C12.2071 14.625 12.375 14.7929 12.375 15V19ZM11.625 19V15.375H9.875V19H11.625ZM7 10.5V19H3V10.5H7ZM9.5 4.125H12C12.2071 4.125 12.375 4.29289 12.375 4.5V6.5C12.375 6.70711 12.2071 6.875 12 6.875H9.5C9.29289 6.875 9.125 6.70711 9.125 6.5V4.5C9.125 4.29289 9.29289 4.125 9.5 4.125ZM9.875 6.125V4.875H11.625V6.125H9.875ZM9.5 8.625H12C12.2071 8.625 12.375 8.79289 12.375 9V11C12.375 11.2071 12.2071 11.375 12 11.375H9.5C9.29289 11.375 9.125 11.2071 9.125 11V9C9.125 8.79289 9.29289 8.625 9.5 8.625ZM11.625 10.625H9.875V9.375H11.625V10.625ZM14 4.125H16.5C16.7071 4.125 16.875 4.29289 16.875 4.5V6.5C16.875 6.70711 16.7071 6.875 16.5 6.875H14C13.7929 6.875 13.625 6.70711 13.625 6.5V4.5C13.625 4.29289 13.7929 4.125 14 4.125ZM14.375 6.125V4.875H16.125V6.125H14.375ZM14 8.625H16.5C16.7071 8.625 16.875 8.79289 16.875 9V11C16.875 11.2071 16.7071 11.375 16.5 11.375H14C13.7929 11.375 13.625 11.2071 13.625 11V9C13.625 8.79289 13.7929 8.625 14 8.625ZM16.125 10.625H14.375V9.375H16.125V10.625ZM18.2662 13.5422C18.3944 13.4859 18.5403 13.486 18.6685 13.5424L22.6248 15.2834C23.0221 15.4582 23.0231 16.0216 22.6265 16.1979L18.6702 17.9569C18.5411 18.0143 18.3936 18.0144 18.2644 17.9571L14.2973 16.1981C13.9001 16.022 13.9011 15.4578 14.2991 15.2832L18.2662 13.5422ZM18.4668 16.9529L15.7388 15.7434L18.4668 14.5462L21.1873 15.7434L18.4668 16.9529ZM22.2202 17.6682C22.4726 17.5561 22.7681 17.6697 22.8802 17.922C22.9924 18.1743 22.8788 18.4698 22.6265 18.582L18.6702 20.341C18.5411 20.3984 18.3936 20.3985 18.2644 20.3412L14.2973 18.5822C14.0449 18.4703 13.931 18.1749 14.0429 17.9225C14.1548 17.67 14.4502 17.5561 14.7027 17.668L18.4668 19.337L22.2202 17.6682ZM22.8802 20.2969C22.7681 20.0445 22.4726 19.9309 22.2202 20.0431L18.4668 21.7119L14.7027 20.0429C14.4502 19.931 14.1548 20.0449 14.0429 20.2973C13.931 20.5498 14.0449 20.8452 14.2973 20.9571L18.2644 22.716C18.3936 22.7733 18.5411 22.7733 18.6702 22.7158L22.6265 20.9569C22.8788 20.8447 22.9924 20.5492 22.8802 20.2969Z" fill="black" fill-opacity="0.45"/>
</svg>
