<svg width="24" height="24" viewBox="0 0 24 24" fill="none" xmlns="http://www.w3.org/2000/svg">
<path fill-rule="evenodd" clip-rule="evenodd" d="M17.9913 5.00558C17.9913 4.09673 18.7399 3.35986 19.6636 3.35986C20.5871 3.35986 21.3359 4.09673 21.3359 5.00558C21.3359 5.91442 20.5871 6.65129 19.6636 6.65129C18.7399 6.65129 17.9913 5.91442 17.9913 5.00558ZM20.4997 5.00558C20.4997 4.55177 20.1245 4.18272 19.6636 4.18272C19.2025 4.18272 18.8275 4.55177 18.8275 5.00558C18.8275 5.45938 19.2025 5.82843 19.6636 5.82843C20.1245 5.82843 20.4997 5.45938 20.4997 5.00558ZM17.746 7.8863L15.624 5.79795H11.2219C10.9568 5.79795 10.7419 5.58305 10.7419 5.31795C10.7419 5.05286 10.9568 4.83795 11.2219 4.83795H15.8206C15.9466 4.83795 16.0675 4.88748 16.1573 4.97584L18.767 7.54418C18.9581 7.73223 18.9581 8.04036 18.767 8.22841L15.7658 11.1821C15.5768 11.368 15.2729 11.3656 15.0869 11.1766C14.901 10.9877 14.9034 10.6838 15.0924 10.4978L17.746 7.8863ZM2.8542 10.8843C2.83829 10.7341 2.83022 10.5853 2.83022 10.4378C2.83022 8.17831 4.6563 6.34673 6.91022 6.34673C9.16414 6.34673 10.9902 8.17831 10.9902 10.4378C10.9902 10.7997 10.9372 11.1732 10.8356 11.5569C10.5608 12.5947 9.94364 13.6777 9.08819 14.7705C8.68261 15.2887 8.24911 15.7755 7.8155 16.2179C7.66352 16.3729 7.52215 16.5115 7.39488 16.632C7.31748 16.7053 7.26123 16.7569 7.22962 16.785C7.05067 16.9446 6.78144 16.9476 6.59894 16.7921C6.56694 16.7648 6.51029 16.7151 6.4325 16.6443C6.30476 16.528 6.16294 16.3939 6.01051 16.2435C5.57573 15.8143 5.14112 15.3382 4.7345 14.8268C3.67785 13.4978 2.98998 12.1667 2.8542 10.8843ZM10.0302 10.4378C10.0302 8.70786 8.6333 7.30673 6.91022 7.30673C5.18714 7.30673 3.79022 8.70786 3.79022 10.4378C3.79022 10.551 3.79646 10.6662 3.80886 10.7833C3.9216 11.848 4.53248 13.0301 5.48594 14.2293C5.86682 14.7084 6.27596 15.1565 6.68494 15.5603C6.76107 15.6354 6.83423 15.7061 6.90388 15.772C6.97568 15.7016 7.05123 15.6261 7.12995 15.5458C7.54008 15.1275 7.95033 14.6667 8.33225 14.1788C9.11455 13.1794 9.67185 12.2015 9.90761 11.3112C9.98884 11.0044 10.0302 10.7128 10.0302 10.4378ZM19.3438 16.2081C20.2119 16.6231 20.64 17.0673 20.64 17.4331C20.64 18.6629 16.7139 19.9262 11.88 19.9262C7.04597 19.9262 3.12003 18.6629 3.12003 17.4331C3.12003 17.0747 3.53057 16.6406 4.36797 16.2313C4.60614 16.1149 4.70485 15.8275 4.58844 15.5893C4.47203 15.3511 4.18459 15.2524 3.94642 15.3688C2.81462 15.922 2.16003 16.6141 2.16003 17.4331C2.16003 19.4872 6.50786 20.8862 11.88 20.8862C17.252 20.8862 21.6 19.4872 21.6 17.4331C21.6 16.6009 20.9241 15.8995 19.7578 15.3419C19.5186 15.2276 19.232 15.3288 19.1177 15.568C19.0034 15.8071 19.1046 16.0937 19.3438 16.2081ZM15.9605 7.4994C16.1494 7.31346 16.1519 7.00955 15.9659 6.8206C15.78 6.63166 15.4761 6.62923 15.2871 6.81517L12.1813 9.87167C11.9902 10.0597 11.9902 10.3679 12.1813 10.5559L14.6478 12.9832V17.3078C14.6478 17.5729 14.8627 17.7878 15.1278 17.7878C15.3929 17.7878 15.6078 17.5729 15.6078 17.3078V12.7821C15.6078 12.6535 15.5561 12.5302 15.4645 12.44L13.2023 10.2138L15.9605 7.4994ZM13.2064 13.7054L12.2359 14.6603L12.2318 14.6643C12.1868 14.7076 12.1355 14.7404 12.081 14.7627C12.026 14.7852 11.966 14.7978 11.903 14.7984L11.899 14.7984H11.8989H10.8C10.5349 14.7984 10.32 14.5835 10.32 14.3184C10.32 14.0533 10.5349 13.8384 10.8 13.8384H11.7024L12.5331 13.0211C12.7221 12.8352 13.026 12.8376 13.2119 13.0266C13.3978 13.2156 13.3954 13.5195 13.2064 13.7054ZM8.87998 10.5415C8.87998 11.6019 8.02037 12.4615 6.95998 12.4615C5.89959 12.4615 5.03998 11.6019 5.03998 10.5415C5.03998 9.48109 5.89959 8.62147 6.95998 8.62147C8.02037 8.62147 8.87998 9.48109 8.87998 10.5415ZM5.99998 10.5415C5.99998 11.0717 6.42979 11.5015 6.95998 11.5015C7.49017 11.5015 7.91998 11.0717 7.91998 10.5415C7.91998 10.0113 7.49017 9.58147 6.95998 9.58147C6.42979 9.58147 5.99998 10.0113 5.99998 10.5415ZM22.3151 13.2819C22.3151 14.2936 21.4953 15.1136 20.4839 15.1136C19.4724 15.1136 18.6525 14.2936 18.6525 13.2819C18.6525 13.1191 18.6761 12.9536 18.7206 12.7858C18.8321 12.3661 19.0693 11.9432 19.3951 11.5201H17.28C17.0149 11.5201 16.8 11.3052 16.8 11.0401C16.8 10.775 17.0149 10.5601 17.28 10.5601H20.4701C20.5121 10.5589 20.5543 10.5631 20.5955 10.573C20.6762 10.5921 20.7489 10.6315 20.8081 10.6855C20.8594 10.7299 20.9366 10.8006 21.0318 10.8943C21.2031 11.063 21.3742 11.2499 21.5349 11.4515C21.9639 11.9897 22.2462 12.5347 22.3045 13.083C22.3115 13.1497 22.3151 13.216 22.3151 13.2819ZM20.4839 14.1536C20.0026 14.1536 19.6125 13.7635 19.6125 13.2819C19.6125 13.2063 19.6244 13.1228 19.6485 13.0321C19.7247 12.7451 19.9151 12.4119 20.1858 12.067C20.2829 11.9434 20.3854 11.8243 20.4895 11.712C20.5905 11.8183 20.6899 11.9316 20.7842 12.0499C21.1097 12.4582 21.3147 12.854 21.3498 13.1844C21.3534 13.2178 21.3551 13.2503 21.3551 13.2819C21.3551 13.7634 20.965 14.1536 20.4839 14.1536Z" fill="black" fill-opacity="0.45"/>
</svg>
