<svg width="24" height="24" viewBox="0 0 24 24" fill="none" xmlns="http://www.w3.org/2000/svg">
<path fill-rule="evenodd" clip-rule="evenodd" d="M19.2424 15.648C20.2763 16.148 20.88 16.7817 20.88 17.5409C20.88 19.3981 17.0647 20.6401 12.3536 20.6401C9.04732 20.6401 7.7134 20.4674 6.35331 19.9527C6.23975 19.9097 6.12366 19.864 5.97322 19.8036C5.92935 19.786 5.66216 19.678 5.58149 19.6457C5.33541 19.5471 5.21584 19.2677 5.31442 19.0216C5.413 18.7755 5.69241 18.656 5.93849 18.7545C6.02079 18.7875 6.28858 18.8957 6.3311 18.9128C6.47605 18.971 6.58661 19.0145 6.69313 19.0548C7.92523 19.5211 9.15321 19.6801 12.3536 19.6801C16.53 19.6801 19.92 18.5766 19.92 17.5409C19.92 17.2446 19.5622 16.869 18.8245 16.5122C18.5858 16.3968 18.4859 16.1098 18.6013 15.8711C18.7167 15.6325 19.0038 15.5326 19.2424 15.648ZM8.15999 9.84012C8.40616 9.84012 8.60904 10.0254 8.63676 10.2641L8.63999 10.3201L8.64025 12.1508C8.76116 12.1899 8.87959 12.2364 8.99499 12.2901C9.23534 12.4019 9.33952 12.6874 9.22768 12.9278C9.11584 13.1681 8.83033 13.2723 8.58998 13.1605C8.30764 13.0291 7.99917 12.9601 7.67999 12.9601C6.48706 12.9601 5.51999 13.9272 5.51999 15.1201C5.51999 16.3131 6.48706 17.2801 7.67999 17.2801C8.82561 17.2801 9.77041 16.3854 9.83632 15.2474C9.85165 14.9828 10.0786 14.7807 10.3433 14.796C10.6079 14.8113 10.81 15.0383 10.7947 15.3029C10.6994 16.948 9.33496 18.2401 7.67999 18.2401C6.99759 18.2401 6.36636 18.021 5.85279 17.6494L4.49542 19.002C4.32647 19.1704 4.03831 19.1552 3.85179 18.9682C3.66527 18.7812 3.65103 18.4931 3.81998 18.3247L5.17224 16.9767C4.78754 16.4579 4.55999 15.8156 4.55999 15.1201C4.55999 13.397 5.95687 12.0001 7.67999 12.0001V10.3201C7.67999 10.055 7.8949 9.84012 8.15999 9.84012ZM13.68 14.6401C13.9262 14.6401 14.129 14.8254 14.1568 15.0641L14.16 15.1201V18.0001C14.16 18.2652 13.9451 18.4801 13.68 18.4801C13.4338 18.4801 13.231 18.2948 13.2032 18.0561L13.2 18.0001V15.1201C13.2 14.855 13.4149 14.6401 13.68 14.6401ZM16.8 14.6401C17.0462 14.6401 17.249 14.8254 17.2768 15.0641L17.28 15.1201V18.0001C17.28 18.2652 17.0651 18.4801 16.8 18.4801C16.5538 18.4801 16.351 18.2948 16.3232 18.0561L16.32 18.0001V15.1201C16.32 14.855 16.5349 14.6401 16.8 14.6401ZM10.4194 13.3407C10.5924 13.5137 10.6057 13.786 10.4593 13.9743L10.4194 14.0195L8.01941 16.4195C7.84637 16.5926 7.5741 16.6059 7.3858 16.4595L7.34058 16.4195L6.14058 15.2195C5.95313 15.0321 5.95313 14.7282 6.14058 14.5407C6.31361 14.3677 6.58589 14.3544 6.77419 14.5008L6.8194 14.5407L7.67999 15.4013L9.74058 13.3407C9.92803 13.1533 10.232 13.1533 10.4194 13.3407ZM15.3363 7.68012C15.7301 7.68012 16.0492 8.00714 16.0492 8.41055H17.2374C17.4999 8.41055 17.7127 8.62857 17.7127 8.89751V13.5236C17.7127 13.7925 17.4999 14.0106 17.2374 14.0106H13.4353C13.1728 14.0106 12.96 13.7925 12.96 13.5236V8.89751C12.96 8.62857 13.1728 8.41055 13.4353 8.41055H14.6234C14.6234 8.00714 14.9426 7.68012 15.3363 7.68012ZM16.9622 10.7201C16.4731 11.0689 16.2379 11.2274 15.6 11.2679V11.694C15.6 11.8285 15.4676 11.9375 15.3363 11.9375C15.2051 11.9375 15.072 11.8285 15.072 11.694V11.2679C14.4978 11.2003 14.0439 11.0177 13.7104 10.7201V13.2801H16.9622V10.7201ZM11.28 8.16012C11.5262 8.16012 11.729 8.34542 11.7568 8.58414L11.76 8.64012V9.76611L12.2957 10.0003C12.5386 10.1065 12.6494 10.3895 12.5432 10.6324C12.4446 10.858 12.1935 10.9696 11.9637 10.8994L11.9111 10.8799L11.0877 10.5199C10.9324 10.452 10.8259 10.308 10.8041 10.1429L10.8 10.0801V9.12012H8.15999C7.8949 9.12012 7.67999 8.90521 7.67999 8.64012C7.67999 8.39396 7.86529 8.19107 8.10402 8.16335L8.15999 8.16012H11.28ZM16.9622 9.14099H13.7104C13.7104 10.1367 14.3777 10.6019 15.072 10.6019V10.3584C15.072 10.2239 15.2224 10.1149 15.3363 10.1149C15.4503 10.1149 15.6 10.2239 15.6 10.3584V10.6019C16.2668 10.6019 16.9622 10.1149 16.9622 9.14099ZM9.71999 3.12012C10.8467 3.12012 11.76 4.03346 11.76 5.16012C11.76 6.28678 10.8467 7.20012 9.71999 7.20012C8.59333 7.20012 7.67999 6.28678 7.67999 5.16012C7.67999 4.03346 8.59333 3.12012 9.71999 3.12012ZM15.24 3.12012C16.3667 3.12012 17.28 4.03346 17.28 5.16012C17.28 6.28678 16.3667 7.20012 15.24 7.20012C14.1133 7.20012 13.2 6.28678 13.2 5.16012C13.2 4.03346 14.1133 3.12012 15.24 3.12012ZM9.71999 4.08012C9.12353 4.08012 8.63999 4.56365 8.63999 5.16012C8.63999 5.75658 9.12353 6.24012 9.71999 6.24012C10.3165 6.24012 10.8 5.75658 10.8 5.16012C10.8 4.56365 10.3165 4.08012 9.71999 4.08012ZM15.24 4.08012C14.6435 4.08012 14.16 4.56365 14.16 5.16012C14.16 5.75658 14.6435 6.24012 15.24 6.24012C15.8365 6.24012 16.32 5.75658 16.32 5.16012C16.32 4.56365 15.8365 4.08012 15.24 4.08012Z" fill="black" fill-opacity="0.45"/>
</svg>
