<svg width="24" height="24" viewBox="0 0 24 24" fill="none" xmlns="http://www.w3.org/2000/svg">
<path fill-rule="evenodd" clip-rule="evenodd" d="M4.80016 19.9199C5.04632 19.9199 5.24921 20.1052 5.27693 20.3439L5.28016 20.3999V21.1199C5.28016 21.385 5.06526 21.5999 4.80016 21.5999C4.554 21.5999 4.35112 21.4146 4.32339 21.1759L4.32016 21.1199V20.3999C4.32016 20.1348 4.53507 19.9199 4.80016 19.9199ZM9.28024 19.9199C9.5264 19.9199 9.72929 20.1052 9.75701 20.3439L9.76024 20.3999V21.1199C9.76024 21.385 9.54534 21.5999 9.28024 21.5999C9.03408 21.5999 8.8312 21.4146 8.80347 21.1759L8.80024 21.1199V20.3999C8.80024 20.1348 9.01515 19.9199 9.28024 19.9199ZM13.7602 19.9199C14.0064 19.9199 14.2092 20.1052 14.237 20.3439L14.2402 20.3999V21.1199C14.2402 21.385 14.0253 21.5999 13.7602 21.5999C13.514 21.5999 13.3112 21.4146 13.2834 21.1759L13.2802 21.1199V20.3999C13.2802 20.1348 13.4951 19.9199 13.7602 19.9199ZM19.0802 15.1199C20.8695 15.1199 22.32 16.5706 22.32 18.36C22.32 20.1492 20.8695 21.5999 19.0802 21.5999C17.2908 21.5999 15.84 20.1492 15.84 18.36C15.84 16.5706 17.2908 15.1199 19.0802 15.1199ZM19.0802 16.0799C17.821 16.0799 16.8 17.1008 16.8 18.36C16.8 19.619 17.821 20.6399 19.0802 20.6399C20.3393 20.6399 21.36 19.6191 21.36 18.36C21.36 17.1008 20.3393 16.0799 19.0802 16.0799ZM19.1068 19.2399C19.3795 19.2399 19.6005 19.4609 19.6005 19.7336C19.6005 20.0064 19.3795 20.2275 19.1068 20.2275C18.8342 20.2275 18.6131 20.0064 18.6131 19.7336C18.6131 19.4609 18.8342 19.2399 19.1068 19.2399ZM20.64 9.59993C20.8862 9.59993 21.0891 9.78523 21.1168 10.0239L21.12 10.0799V14.5199C21.12 14.785 20.9051 14.9999 20.64 14.9999C20.3939 14.9999 20.191 14.8146 20.1633 14.5759L20.16 14.5199V10.5599H2.88004V18.4799H14.88C15.1451 18.4799 15.36 18.6948 15.36 18.9599C15.36 19.2061 15.1747 19.409 14.936 19.4367L14.88 19.4399H2.40004C2.15388 19.4399 1.951 19.2546 1.92327 19.0159L1.92004 18.9599V10.0799C1.92004 9.83377 2.10534 9.63088 2.34407 9.60316L2.40004 9.59993H20.64ZM19.1069 16.5599C19.3531 16.5599 19.556 16.7452 19.5837 16.9839L19.5869 17.0399V18.2813C19.5869 18.5464 19.372 18.7613 19.1069 18.7613C18.8608 18.7613 18.6579 18.576 18.6302 18.3373L18.6269 18.2813V17.0399C18.6269 16.7748 18.8418 16.5599 19.1069 16.5599ZM14.88 16.2599C15.1451 16.2599 15.36 16.4748 15.36 16.7399C15.36 16.9861 15.1747 17.1889 14.936 17.2167L14.88 17.2199H4.80004C4.53495 17.2199 4.32004 17.005 4.32004 16.7399C4.32004 16.4937 4.50534 16.2909 4.74407 16.2631L4.80004 16.2599H14.88ZM17.04 14.0399C17.3051 14.0399 17.52 14.2548 17.52 14.5199C17.52 14.7661 17.3347 14.969 17.096 14.9967L17.04 14.9999L4.80004 14.9999C4.53495 14.9999 4.32004 14.785 4.32004 14.5199C4.32004 14.2737 4.50534 14.0709 4.74407 14.0431L4.80004 14.0399L17.04 14.0399ZM18.24 11.8199C18.5051 11.8199 18.72 12.0348 18.72 12.2999C18.72 12.5461 18.5347 12.7489 18.296 12.7767L18.24 12.7799H4.80004C4.53495 12.7799 4.32004 12.565 4.32004 12.2999C4.32004 12.0537 4.50534 11.8509 4.74407 11.8231L4.80004 11.8199H18.24ZM13.2 6.7199C14.2603 6.7199 15.12 7.57969 15.12 8.6399C15.12 8.905 14.9051 9.1199 14.64 9.1199C14.3749 9.1199 14.16 8.905 14.16 8.6399C14.16 8.13397 13.7683 7.7192 13.2717 7.68254L13.2 7.6799H9.84004C9.31002 7.6799 8.88004 8.10988 8.88004 8.6399C8.88004 8.905 8.66514 9.1199 8.40004 9.1199C8.13495 9.1199 7.92004 8.905 7.92004 8.6399C7.92004 7.61181 8.72851 6.77219 9.74423 6.72225L9.84004 6.7199H13.2ZM18 6.7199C19.0603 6.7199 19.92 7.57969 19.92 8.6399C19.92 8.905 19.7051 9.1199 19.44 9.1199C19.1749 9.1199 18.96 8.905 18.96 8.6399C18.96 8.13397 18.5683 7.7192 18.0717 7.68254L18 7.6799H16.32C16.0549 7.6799 15.84 7.465 15.84 7.1999C15.84 6.95374 16.0253 6.75086 16.2641 6.72313L16.32 6.7199H18ZM6.72004 6.7199C6.98514 6.7199 7.20004 6.93481 7.20004 7.1999C7.20004 7.44606 7.01474 7.64895 6.77602 7.67667L6.72004 7.6799H5.04004C4.51002 7.6799 4.08004 8.10988 4.08004 8.6399C4.08004 8.905 3.86514 9.1199 3.60004 9.1199C3.33495 9.1199 3.12004 8.905 3.12004 8.6399C3.12004 7.61181 3.92851 6.77219 4.94423 6.72225L5.04004 6.7199H6.72004ZM6.72004 2.3999C7.64788 2.3999 8.40004 3.15206 8.40004 4.0799C8.40004 5.00774 7.64788 5.7599 6.72004 5.7599C5.7922 5.7599 5.04004 5.00774 5.04004 4.0799C5.04004 3.15206 5.7922 2.3999 6.72004 2.3999ZM11.52 2.3999C12.4479 2.3999 13.2 3.15206 13.2 4.0799C13.2 5.00774 12.4479 5.7599 11.52 5.7599C10.5922 5.7599 9.84004 5.00774 9.84004 4.0799C9.84004 3.15206 10.5922 2.3999 11.52 2.3999ZM16.32 2.3999C17.2479 2.3999 18 3.15206 18 4.0799C18 5.00774 17.2479 5.7599 16.32 5.7599C15.3922 5.7599 14.64 5.00774 14.64 4.0799C14.64 3.15206 15.3922 2.3999 16.32 2.3999ZM6.72004 3.3599C6.32308 3.3599 6.00004 3.68294 6.00004 4.0799C6.00004 4.47686 6.32308 4.7999 6.72004 4.7999C7.117 4.7999 7.44004 4.47686 7.44004 4.0799C7.44004 3.68294 7.117 3.3599 6.72004 3.3599ZM11.52 3.3599C11.1231 3.3599 10.8 3.68294 10.8 4.0799C10.8 4.47686 11.1231 4.7999 11.52 4.7999C11.917 4.7999 12.24 4.47686 12.24 4.0799C12.24 3.68294 11.917 3.3599 11.52 3.3599ZM16.32 3.3599C15.9231 3.3599 15.6 3.68294 15.6 4.0799C15.6 4.47686 15.9231 4.7999 16.32 4.7999C16.717 4.7999 17.04 4.47686 17.04 4.0799C17.04 3.68294 16.717 3.3599 16.32 3.3599Z" fill="black" fill-opacity="0.45"/>
</svg>
