<svg width="24" height="24" viewBox="0 0 24 24" fill="none" xmlns="http://www.w3.org/2000/svg">
<path fill-rule="evenodd" clip-rule="evenodd" d="M5.52002 11.2799H3.36002V13.0649C3.36002 13.33 3.14512 13.5449 2.88002 13.5449C2.61493 13.5449 2.40002 13.33 2.40002 13.0649V10.7999C2.40002 10.5348 2.61493 10.3199 2.88002 10.3199H5.04002V2.8799C5.04002 2.61481 5.25493 2.3999 5.52002 2.3999H8.88002C9.14512 2.3999 9.36002 2.61481 9.36002 2.8799V4.5599C9.36002 4.825 9.14512 5.0399 8.88002 5.0399C8.61493 5.0399 8.40002 4.825 8.40002 4.5599V3.3599H6.00002V10.7999C6.00002 11.065 5.78512 11.2799 5.52002 11.2799ZM18.96 8.1599V5.0399H10.56C10.2949 5.0399 10.08 4.825 10.08 4.5599C10.08 4.29481 10.2949 4.0799 10.56 4.0799H19.44C19.7051 4.0799 19.92 4.29481 19.92 4.5599V8.1599C19.92 8.425 19.7051 8.6399 19.44 8.6399C19.1749 8.6399 18.96 8.425 18.96 8.1599ZM20.64 10.3199V12.5759C20.64 12.841 20.8549 13.0559 21.12 13.0559C21.3851 13.0559 21.6 12.841 21.6 12.5759V9.8399C21.6 9.57481 21.3851 9.3599 21.12 9.3599H15.6C15.3349 9.3599 15.12 9.57481 15.12 9.8399C15.12 10.105 15.3349 10.3199 15.6 10.3199H20.64ZM6.72002 4.5599C6.72002 4.29494 6.93506 4.0799 7.20002 4.0799C7.46498 4.0799 7.68002 4.29494 7.68002 4.5599C7.68002 4.82486 7.46498 5.0399 7.20002 5.0399C6.93506 5.0399 6.72002 4.82486 6.72002 4.5599ZM7.20002 5.9999C6.93506 5.9999 6.72002 6.21494 6.72002 6.4799C6.72002 6.7451 6.93506 6.9599 7.20002 6.9599C7.46498 6.9599 7.68002 6.7451 7.68002 6.4799C7.68002 6.21494 7.46498 5.9999 7.20002 5.9999ZM19.0799 14.3999C20.6033 14.3999 21.84 15.6241 21.84 17.1369C21.84 17.3799 21.8042 17.629 21.7359 17.8836C21.5543 18.5606 21.1519 19.2575 20.596 19.9582C20.3347 20.2877 20.0558 20.5968 19.7767 20.8777C19.6084 21.0472 19.4759 21.1709 19.397 21.2403C19.2188 21.3971 18.9527 21.4 18.7711 21.2473C18.6913 21.1802 18.558 21.0605 18.3888 20.8957C18.1086 20.6227 17.8286 20.32 17.5662 19.9944C16.8772 19.1392 16.4267 18.2789 16.3362 17.4355C16.3255 17.3352 16.32 17.2357 16.32 17.1369C16.32 15.6241 17.5567 14.3999 19.0799 14.3999ZM17.28 17.1369C17.28 16.1565 18.0847 15.3599 19.0799 15.3599C20.0752 15.3599 20.88 16.1565 20.88 17.1369C20.88 17.2918 20.8561 17.4581 20.8087 17.6349C20.667 18.1632 20.3255 18.7546 19.8439 19.3616C19.6065 19.6609 19.351 19.944 19.0957 20.2011L19.0739 20.2229L19.0587 20.2081C18.8045 19.9604 18.5501 19.6855 18.3138 19.3921C17.7297 18.6672 17.3576 17.9566 17.2908 17.3331C17.2836 17.2664 17.28 17.201 17.28 17.1369ZM19.08 18.4799C18.3511 18.4799 17.76 17.8888 17.76 17.1599C17.76 16.431 18.3511 15.8399 19.08 15.8399C19.8088 15.8399 20.4 16.431 20.4 17.1599C20.4 17.8888 19.8088 18.4799 19.08 18.4799ZM19.08 17.5199C19.2787 17.5199 19.44 17.3586 19.44 17.1599C19.44 16.9612 19.2787 16.7999 19.08 16.7999C18.8813 16.7999 18.72 16.9612 18.72 17.1599C18.72 17.3586 18.8813 17.5199 19.08 17.5199ZM12.6 15.8399C13.8592 15.8399 14.88 14.8191 14.88 13.5599C14.88 12.3007 13.8592 11.2799 12.6 11.2799C11.3408 11.2799 10.32 12.3007 10.32 13.5599C10.32 14.8191 11.3408 15.8399 12.6 15.8399ZM12.6 14.8799C11.871 14.8799 11.28 14.2889 11.28 13.5599C11.28 12.8309 11.871 12.2399 12.6 12.2399C13.329 12.2399 13.92 12.8309 13.92 13.5599C13.92 14.2889 13.329 14.8799 12.6 14.8799ZM9.12002 18.8399C9.12002 17.4481 10.2483 16.3199 11.64 16.3199H13.56C14.9518 16.3199 16.08 17.4481 16.08 18.8399V20.8799C16.08 21.145 15.8651 21.3599 15.6 21.3599H9.60002C9.33493 21.3599 9.12002 21.145 9.12002 20.8799V18.8399ZM15.12 20.3999V18.8399C15.12 17.9783 14.4216 17.2799 13.56 17.2799H11.64C10.7785 17.2799 10.08 17.9783 10.08 18.8399V20.3999H15.12ZM6.24002 15.1199H4.80002C3.47454 15.1199 2.40002 16.1944 2.40002 17.5199V18.9599C2.40002 20.2854 3.47454 21.3599 4.80002 21.3599H6.24002C7.56551 21.3599 8.64002 20.2854 8.64002 18.9599V17.5199C8.64002 16.1944 7.56551 15.1199 6.24002 15.1199ZM3.36002 17.5199C3.36002 16.7246 4.00473 16.0799 4.80002 16.0799H6.24002C7.03531 16.0799 7.68002 16.7246 7.68002 17.5199V18.9599C7.68002 19.7552 7.03531 20.3999 6.24002 20.3999H4.80002C4.00473 20.3999 3.36002 19.7552 3.36002 18.9599V17.5199ZM4.08002 19.1999C4.08002 19.4651 4.29506 19.6799 4.56002 19.6799C4.82498 19.6799 5.04002 19.4651 5.04002 19.1999C5.04002 18.9349 4.82498 18.7199 4.56002 18.7199C4.29506 18.7199 4.08002 18.9349 4.08002 19.1999ZM5.52002 18.7199C5.25506 18.7199 5.04002 18.5051 5.04002 18.2399C5.04002 17.9749 5.25506 17.7599 5.52002 17.7599C5.78498 17.7599 6.00002 17.9749 6.00002 18.2399C6.00002 18.5051 5.78498 18.7199 5.52002 18.7199ZM6.00002 17.2799C6.00002 17.5451 6.21506 17.7599 6.48002 17.7599C6.74498 17.7599 6.96002 17.5451 6.96002 17.2799C6.96002 17.0149 6.74498 16.7999 6.48002 16.7999C6.21506 16.7999 6.00002 17.0149 6.00002 17.2799Z" fill="black" fill-opacity="0.45"/>
</svg>
