<svg width="24" height="24" viewBox="0 0 24 24" fill="none" xmlns="http://www.w3.org/2000/svg">
<path fill-rule="evenodd" clip-rule="evenodd" d="M20.4 3.60014H18.48C18.2149 3.60014 18 3.38523 18 3.12014C18 2.85504 18.2149 2.64014 18.48 2.64014H20.4C20.9302 2.64014 21.36 3.06994 21.36 3.60014V5.28014C21.36 5.54523 21.1451 5.76014 20.88 5.76014C20.6149 5.76014 20.4 5.54523 20.4 5.28014V3.60014ZM7.73272 11.0752C7.73272 11.8145 7.13362 12.4138 6.39432 12.4138C5.65518 12.4138 5.05592 11.8145 5.05592 11.0752C5.05592 10.3361 5.65523 9.73682 6.39432 9.73682C7.13357 9.73682 7.73272 10.3361 7.73272 11.0752ZM6.77272 11.0752C6.77272 10.8662 6.60334 10.6968 6.39432 10.6968C6.18542 10.6968 6.01592 10.8663 6.01592 11.0752C6.01592 11.2843 6.18541 11.4538 6.39432 11.4538C6.60335 11.4538 6.77272 11.2844 6.77272 11.0752ZM8.46856 14.2462C8.46856 13.3385 7.78525 12.585 6.91736 12.585H5.87116C5.00342 12.585 4.31996 13.3386 4.31996 14.2462V14.8838C4.31996 15.1489 4.53486 15.3638 4.79996 15.3638H7.98856C8.25366 15.3638 8.46856 15.1489 8.46856 14.8838V14.2462ZM5.27996 14.4038V14.2462C5.27996 13.849 5.55567 13.545 5.87116 13.545H6.91736C7.23296 13.545 7.50856 13.8489 7.50856 14.2462V14.4038H5.27996ZM18.1289 12.585C18.9966 12.585 19.6799 13.3386 19.6799 14.2462V14.8838C19.6799 15.1489 19.465 15.3638 19.1999 15.3638H16.0115C15.7464 15.3638 15.5315 15.1489 15.5315 14.8838V14.2462C15.5315 13.3386 16.215 12.585 17.0827 12.585H18.1289ZM16.4915 14.2462V14.4038H18.7199V14.2462C18.7199 13.8489 18.4443 13.545 18.1289 13.545H17.0827C16.7672 13.545 16.4915 13.849 16.4915 14.2462ZM18.9442 11.0752C18.9442 11.8145 18.345 12.4138 17.6058 12.4138C16.8665 12.4138 16.2672 11.8145 16.2672 11.0752C16.2672 10.3361 16.8666 9.73682 17.6058 9.73682C18.3449 9.73682 18.9442 10.3361 18.9442 11.0752ZM17.9842 11.0752C17.9842 10.8663 17.8147 10.6968 17.6058 10.6968C17.3967 10.6968 17.2272 10.8663 17.2272 11.0752C17.2272 11.2843 17.3967 11.4538 17.6058 11.4538C17.8147 11.4538 17.9842 11.2843 17.9842 11.0752ZM12.5477 16.7856C13.4155 16.7856 14.0989 17.5392 14.0989 18.4468V19.0846C14.0989 19.3497 13.884 19.5646 13.6189 19.5646H10.4305C10.1654 19.5646 9.95045 19.3497 9.95045 19.0846V18.4468C9.95045 17.5392 10.6337 16.7856 11.5015 16.7856H12.5477ZM10.9105 18.4468V18.6046H13.1389V18.4468C13.1389 18.0496 12.8633 17.7456 12.5477 17.7456H11.5015C11.186 17.7456 10.9105 18.0496 10.9105 18.4468ZM13.3632 15.2764C13.3632 16.0155 12.7638 16.6148 12.0246 16.6148C11.2855 16.6148 10.6862 16.0155 10.6862 15.2764C10.6862 14.5371 11.2854 13.938 12.0246 13.938C12.7639 13.938 13.3632 14.5371 13.3632 15.2764ZM12.4032 15.2764C12.4032 15.0674 12.2337 14.898 12.0246 14.898C11.8156 14.898 11.6462 15.0674 11.6462 15.2764C11.6462 15.4853 11.8157 15.6548 12.0246 15.6548C12.2337 15.6548 12.4032 15.4853 12.4032 15.2764ZM14.1881 12.774H9.69693C9.43184 12.774 9.21693 12.5591 9.21693 12.294C9.21693 12.0289 9.43184 11.814 9.69693 11.814H11.4625V11.1934C11.4625 10.9283 11.6774 10.7134 11.9425 10.7134C12.2076 10.7134 12.4225 10.9283 12.4225 11.1934V11.814H14.1881C14.4532 11.814 14.6681 12.0289 14.6681 12.294C14.6681 12.5591 14.4532 12.774 14.1881 12.774ZM5.52001 20.3999H3.60001V18.7199C3.60001 18.4548 3.38511 18.2399 3.12001 18.2399C2.85492 18.2399 2.64001 18.4548 2.64001 18.7199V20.3999C2.64001 20.9301 3.06982 21.3599 3.60001 21.3599H5.52001C5.78511 21.3599 6.00001 21.145 6.00001 20.8799C6.00001 20.6148 5.78511 20.3999 5.52001 20.3999ZM3.60001 3.60014H5.52001C5.78511 3.60014 6.00001 3.38523 6.00001 3.12014C6.00001 2.85504 5.78511 2.64014 5.52001 2.64014H3.60001C3.06982 2.64014 2.64001 3.06994 2.64001 3.60014V5.28014C2.64001 5.54523 2.85492 5.76014 3.12001 5.76014C3.38511 5.76014 3.60001 5.54523 3.60001 5.28014V3.60014ZM18.48 20.3999H20.4V18.7199C20.4 18.4548 20.6149 18.2399 20.88 18.2399C21.1451 18.2399 21.36 18.4548 21.36 18.7199V20.3999C21.36 20.9301 20.9302 21.3599 20.4 21.3599H18.48C18.2149 21.3599 18 21.145 18 20.8799C18 20.6148 18.2149 20.3999 18.48 20.3999ZM9.17726 5.6451C10.8171 5.8993 11.2995 6.48609 11.3763 7.91987H12.3836C12.4605 6.48609 12.9428 5.8993 14.5827 5.6451L14.5433 5.33873C13.7819 5.44006 12.3894 5.62453 12.0894 5.63593C12.0199 5.63857 11.9506 5.63987 11.88 5.63987C11.8093 5.63987 11.7401 5.63857 11.6706 5.63593C11.3706 5.62453 9.9781 5.44006 9.21665 5.33873L9.17726 5.6451ZM12.852 8.87987H10.908C10.6429 8.87987 10.428 8.66497 10.428 8.39987C10.428 7.5866 10.3922 7.32171 10.2362 7.10711C10.0365 6.83242 9.55318 6.63919 8.58947 6.53721C8.32165 6.50887 8.12956 6.26578 8.1639 5.99866L8.3259 4.73866C8.35959 4.47667 8.59863 4.29112 8.8608 4.32349C8.94186 4.3335 9.12839 4.35828 9.36978 4.39036C10.1348 4.49201 11.4509 4.66689 11.707 4.67662C11.7643 4.6788 11.8214 4.67987 11.88 4.67987C11.9385 4.67987 11.9956 4.6788 12.0529 4.67662C12.309 4.66689 13.6251 4.49201 14.3902 4.39036C14.6316 4.35828 14.8181 4.3335 14.8992 4.32349C15.1613 4.29112 15.4004 4.47667 15.4341 4.73866L15.5961 5.99866C15.6304 6.26578 15.4383 6.50887 15.1705 6.53721C14.2068 6.63919 13.7234 6.83242 13.5237 7.10711C13.3677 7.32171 13.332 7.5866 13.332 8.39987C13.332 8.66497 13.1171 8.87987 12.852 8.87987Z" fill="black" fill-opacity="0.45"/>
</svg>
