<svg width="24" height="24" viewBox="0 0 24 24" fill="none" xmlns="http://www.w3.org/2000/svg">
<path fill-rule="evenodd" clip-rule="evenodd" d="M11.7958 13.4398C10.6478 13.4398 9.5623 13.1285 8.79254 12.6402C8.43312 12.4123 8.16361 12.1566 8.02589 11.8939C7.81376 11.4892 7.92152 11.0421 8.35147 10.842C8.7336 10.6641 9.07429 9.71269 9.07429 8.79406V6.97256C9.07429 5.70361 10.488 4.31982 12.1292 4.31982C13.7705 4.31982 15.1842 5.70361 15.1842 6.97256V8.79406C15.1842 9.71269 15.5249 10.6641 15.907 10.842C16.3727 11.0588 16.4281 11.5403 16.1584 11.9397C15.9945 12.1823 15.7033 12.4255 15.3287 12.6477C14.5241 13.125 13.4635 13.4398 12.4627 13.4398H11.7958ZM9.30672 11.8296C9.92178 12.2197 10.8288 12.4798 11.7958 12.4798H12.4627C13.2837 12.4798 14.1771 12.2147 14.8389 11.8221C15.0011 11.7259 15.1352 11.629 15.2309 11.5441C14.583 11.0331 14.2242 9.90216 14.2242 8.79406V6.97256C14.2242 6.23846 13.2448 5.27982 12.1292 5.27982C11.0137 5.27982 10.0343 6.23846 10.0343 6.97256V8.79406C10.0343 9.92812 9.65852 11.0861 8.98159 11.579C9.05808 11.6544 9.16864 11.742 9.30672 11.8296ZM11.04 16.6799C11.04 18.4692 9.58937 19.9198 7.80007 19.9198C6.01074 19.9198 4.55996 18.4691 4.55996 16.6799C4.55996 14.8906 6.0107 13.4398 7.80007 13.4398C9.58941 13.4398 11.04 14.8905 11.04 16.6799ZM10.08 16.6799C10.08 15.4207 9.0592 14.3998 7.80007 14.3998C6.54089 14.3998 5.51996 15.4208 5.51996 16.6799C5.51996 17.9389 6.54092 18.9598 7.80007 18.9598C9.05917 18.9598 10.08 17.939 10.08 16.6799ZM7.34684 16.6012V15.3598C7.34684 15.0947 7.56174 14.8798 7.82684 14.8798C8.09194 14.8798 8.30684 15.0947 8.30684 15.3598V16.6012C8.30684 16.8663 8.09194 17.0812 7.82684 17.0812C7.56174 17.0812 7.34684 16.8663 7.34684 16.6012ZM8.32042 18.0535C8.32042 18.3264 8.09938 18.5474 7.82674 18.5474C7.5541 18.5474 7.33306 18.3264 7.33306 18.0535C7.33306 17.7808 7.5541 17.5598 7.82674 17.5598C8.09938 17.5598 8.32042 17.7808 8.32042 18.0535ZM11.04 8.15982C11.04 7.89473 11.2549 7.67982 11.52 7.67982H12.72C12.9851 7.67982 13.2 7.89473 13.2 8.15982C13.2 8.42492 12.9851 8.63982 12.72 8.63982H11.52C11.2549 8.63982 11.04 8.42492 11.04 8.15982ZM18.3009 11.9998C18.9065 11.9998 19.5689 11.8029 20.0574 11.5128C20.1258 11.4722 20.1868 11.4317 20.2389 11.3935C19.7779 10.9461 19.5327 10.1128 19.5327 9.29424V7.90133C19.5327 7.40273 18.8359 6.71982 18.0463 6.71982C17.2567 6.71982 16.56 7.40273 16.56 7.90133C16.56 8.16642 16.3451 8.38133 16.08 8.38133C15.8149 8.38133 15.6 8.16642 15.6 7.90133C15.6 6.86818 16.7307 5.75982 18.0463 5.75982C19.3619 5.75982 20.4927 6.86818 20.4927 7.90133V9.29424C20.4927 9.95731 20.7389 10.646 20.9793 10.758C21.4067 10.9572 21.4582 11.4055 21.2173 11.7627C21.0813 11.9644 20.8469 12.1604 20.5477 12.3382C19.9163 12.7132 19.0865 12.9598 18.3009 12.9598C18.0358 12.9598 17.8209 12.7449 17.8209 12.4798C17.8209 12.2147 18.0358 11.9998 18.3009 11.9998ZM17.04 8.87982C17.04 8.61473 17.2549 8.39982 17.52 8.39982H18.24C18.5051 8.39982 18.72 8.61473 18.72 8.87982C18.72 9.14492 18.5051 9.35982 18.24 9.35982H17.52C17.2549 9.35982 17.04 9.14492 17.04 8.87982ZM5.82795 11.9998C5.18364 11.9998 4.48086 11.8009 3.96259 11.5077C3.89347 11.4686 3.83133 11.4295 3.77771 11.3925C4.25406 10.9443 4.51063 10.111 4.51063 9.29424V7.90133C4.51063 7.40822 5.24807 6.71982 6.0953 6.71982C6.94252 6.71982 7.67996 7.40822 7.67996 7.90133C7.67996 8.16642 7.89486 8.38133 8.15996 8.38133C8.42506 8.38133 8.63996 8.16642 8.63996 7.90133C8.63996 6.86269 7.45851 5.75982 6.0953 5.75982C4.73208 5.75982 3.55063 6.86269 3.55063 7.90133V9.29424C3.55063 9.9553 3.29397 10.6389 3.03384 10.7544C2.59203 10.9505 2.53646 11.411 2.79188 11.7717C2.93406 11.9725 3.1781 12.1669 3.48989 12.3432C4.14744 12.7152 5.01148 12.9598 5.82795 12.9598C6.09305 12.9598 6.30795 12.7449 6.30795 12.4798C6.30795 12.2147 6.09305 11.9998 5.82795 11.9998ZM6.95996 8.87982C6.95996 8.61473 6.74506 8.39982 6.47996 8.39982H5.75996C5.49486 8.39982 5.27996 8.61473 5.27996 8.87982C5.27996 9.14492 5.49486 9.35982 5.75996 9.35982H6.47996C6.74506 9.35982 6.95996 9.14492 6.95996 8.87982ZM14.454 14.8822C15.5927 14.84 16.08 15.332 16.08 16.5471V18.4798H11.28C11.0149 18.4798 10.8 18.6947 10.8 18.9598C10.8 19.2249 11.0149 19.4398 11.28 19.4398H16.56C16.8251 19.4398 17.04 19.2249 17.04 18.9598V16.5471C17.04 14.7978 16.1114 13.8601 14.4362 13.9225H11.3686C11.1035 13.9225 10.8886 14.1374 10.8886 14.4025C10.8886 14.6676 11.1035 14.8825 11.3686 14.8825L14.454 14.8822Z" fill="black" fill-opacity="0.45"/>
</svg>
