<svg width="24" height="24" viewBox="0 0 24 24" fill="none" xmlns="http://www.w3.org/2000/svg">
<path fill-rule="evenodd" clip-rule="evenodd" d="M17.0309 6.95941L8.13386 2.45172C7.99749 2.38263 7.83636 2.38263 7.69998 2.45172L3.1431 4.76052C2.98174 4.84228 2.88004 5.00781 2.88004 5.1887V14.6399C2.88004 14.905 3.09495 15.1199 3.36004 15.1199C3.62514 15.1199 3.84004 14.905 3.84004 14.6399V5.4836L7.91693 3.41799L16.187 7.60801L14.0546 9.74044C13.8671 9.9279 13.8671 10.2318 14.0546 10.4193C14.242 10.6067 14.5459 10.6067 14.7334 10.4193L17.2097 7.94299C17.2226 7.9378 17.2353 7.93203 17.2479 7.92568L21.1078 5.96999V18.5162L17.0309 20.5818L12.119 18.0932C11.8825 17.9734 11.5937 18.068 11.4739 18.3044C11.3541 18.5409 11.4487 18.8298 11.6852 18.9496L16.814 21.5481C16.9504 21.6172 17.1115 21.6172 17.2479 21.5481L21.8047 19.2393C21.9661 19.1575 22.0678 18.992 22.0678 18.8111V5.1887C22.0678 4.83076 21.6902 4.59875 21.3709 4.76052L17.0309 6.95941ZM9.21338 6.33927L8.35279 7.19985L9.21338 8.06044C9.40084 8.24789 9.40084 8.55181 9.21338 8.73927C9.02593 8.92672 8.72201 8.92672 8.53456 8.73927L7.67397 7.87868L6.81338 8.73927C6.62593 8.92672 6.32201 8.92672 6.13456 8.73927C5.94711 8.55181 5.94711 8.24789 6.13456 8.06044L6.99515 7.19985L6.13456 6.33927C5.94711 6.15181 5.94711 5.84789 6.13456 5.66044C6.32201 5.47299 6.62593 5.47299 6.81338 5.66044L7.67397 6.52103L8.53456 5.66044C8.72201 5.47299 9.02593 5.47299 9.21338 5.66044C9.40084 5.84789 9.40084 6.15181 9.21338 6.33927ZM15.594 16.7999C15.594 15.872 16.3461 15.1199 17.274 15.1199C18.2018 15.1199 18.954 15.872 18.954 16.7999C18.954 17.7277 18.2018 18.4799 17.274 18.4799C16.3461 18.4799 15.594 17.7277 15.594 16.7999ZM17.994 16.7999C17.994 16.4029 17.6709 16.0799 17.274 16.0799C16.877 16.0799 16.554 16.4029 16.554 16.7999C16.554 17.1968 16.877 17.5199 17.274 17.5199C17.6709 17.5199 17.994 17.1968 17.994 16.7999ZM10.4974 9.50047C10.3099 9.31302 10.006 9.31302 9.81856 9.50047C9.63111 9.68792 9.63111 9.99184 9.81856 10.1793L13.8078 14.1686C13.8979 14.2586 14.0199 14.3092 14.1473 14.3092H15.5539C15.819 14.3092 16.0339 14.0943 16.0339 13.8292C16.0339 13.5641 15.819 13.3492 15.5539 13.3492H14.3461L13.3802 12.3833H15.5058C15.7709 12.3833 15.9858 12.1684 15.9858 11.9033C15.9858 11.6382 15.7709 11.4233 15.5058 11.4233H12.4202L10.4974 9.50047ZM4.89893 19.2429C4.71119 19.4301 4.40727 19.4296 4.22011 19.2418C4.03295 19.0541 4.03342 18.7502 4.22116 18.563L5.72195 17.0669C5.29521 16.5332 5.04004 15.8563 5.04004 15.1199C5.04004 13.3967 6.43692 11.9999 8.16004 11.9999C8.61986 11.9999 9.06648 12.0997 9.47504 12.2898C9.71539 12.4017 9.81957 12.6872 9.70773 12.9275C9.59589 13.1679 9.31038 13.272 9.07003 13.1602C8.78769 13.0288 8.47922 12.9599 8.16004 12.9599C6.96711 12.9599 6.00004 13.9269 6.00004 15.1199C6.00004 16.3128 6.96711 17.2799 8.16004 17.2799C9.30566 17.2799 10.2505 16.3852 10.3164 15.2472C10.3317 14.9825 10.5587 14.7804 10.8233 14.7957C11.088 14.811 11.2901 15.038 11.2748 15.3027C11.1795 16.9478 9.81501 18.2399 8.16004 18.2399C7.52005 18.2399 6.92506 18.0472 6.42993 17.7166L4.89893 19.2429ZM6.62063 14.5404C6.80808 14.353 7.112 14.353 7.29946 14.5404L8.16004 15.401L10.2206 13.3404C10.4081 13.153 10.712 13.153 10.8995 13.3404C11.0869 13.5279 11.0869 13.8318 10.8995 14.0193L8.49945 16.4193C8.312 16.6067 8.00808 16.6067 7.82063 16.4193L6.62063 15.2193C6.43318 15.0318 6.43318 14.7279 6.62063 14.5404ZM2.88004 18.8266C2.88004 19.9072 6.28736 20.6399 13.0959 20.6399C13.361 20.6399 13.5759 20.8548 13.5759 21.1199C13.5759 21.3849 13.361 21.5999 13.0959 21.5999C5.56724 21.5999 1.92004 20.8156 1.92004 18.8266C1.92004 18.0384 2.57221 17.3867 3.69621 16.8675C3.93688 16.7563 4.22209 16.8613 4.33326 17.102C4.44442 17.3426 4.33944 17.6278 4.09878 17.739C3.27916 18.1176 2.88004 18.5164 2.88004 18.8266Z" fill="black" fill-opacity="0.45"/>
</svg>
