<svg width="24" height="24" viewBox="0 0 24 24" fill="none" xmlns="http://www.w3.org/2000/svg">
<path fill-rule="evenodd" clip-rule="evenodd" d="M22 1L22.0004 13.1999C21.6813 12.9697 21.3385 12.7682 20.9761 12.5993L20.9756 2H2.02439V20.5L12.5669 20.5005C12.7358 20.8535 12.9392 21.1881 13.1732 21.5002L1 21.5V1H22ZM15 7C15 5.06705 13.4331 3.5 11.5003 3.5C9.56744 3.5 8 5.06705 8 7C8 8.93295 9.56744 10.5 11.5003 10.5C13.4331 10.5 15 8.93295 15 7ZM9.07005 6.99993C9.07005 5.64229 10.1603 4.53721 11.5005 4.53721C12.8398 4.53721 13.9301 5.64229 13.9301 6.99993C13.9301 8.35842 12.8398 9.46266 11.5005 9.46266C10.1603 9.46266 9.07005 8.35842 9.07005 6.99993ZM6.11111 16.0714V17.75H12.2222C12.529 17.75 12.7778 18.0058 12.7778 18.3214C12.7778 18.637 12.529 18.8929 12.2222 18.8929H5.55556C5.24873 18.8929 5 18.637 5 18.3214V16.0714C5 13.5467 7.5454 11.5 10 11.5H10.2222H13H13.25C13.2956 11.5 13.3399 11.5056 13.3823 11.5163C14.0903 11.5763 14.7945 11.7994 15.4319 12.1483C15.6975 12.2937 15.7463 12.6441 15.5544 12.8784C15.3827 13.0879 15.0803 13.1247 14.8374 13.0047C14.2604 12.7196 13.6484 12.6429 13 12.6429H10.2222H10C8.15905 12.6429 6.11111 14.1779 6.11111 16.0714ZM23 18C23 15.5147 20.9853 13.5 18.5 13.5C16.0147 13.5 14 15.5147 14 18C14 20.4853 16.0147 22.5 18.5 22.5C20.9853 22.5 23 20.4853 23 18ZM14.9 18C14.9 16.0118 16.5118 14.4 18.5 14.4C20.4882 14.4 22.1 16.0118 22.1 18C22.1 19.9882 20.4882 21.6 18.5 21.6C16.5118 21.6 14.9 19.9882 14.9 18ZM18.95 20.7V19.8H18.05V20.7H18.95ZM18.95 18.9V15.3H18.05V18.9H18.95Z" fill="black" fill-opacity="0.45"/>
</svg>
