<svg width="24" height="24" viewBox="0 0 24 24" fill="none" xmlns="http://www.w3.org/2000/svg">
<path fill-rule="evenodd" clip-rule="evenodd" d="M3.35162 1.7583L22.5 1.75834V22.3078H21.5659V2.6924L4.28569 2.69237V3.61518H3.35162V1.7583ZM19.9317 14.5549L19.9313 3.62646H1.25V22.3078L11.6865 22.308C11.468 22.0165 11.2779 21.7039 11.1202 21.3742L2.20685 21.3737V4.56053H18.9745L18.9749 13.9939C19.3134 14.1517 19.6336 14.3399 19.9317 14.5549ZM13.3929 8.76362C13.3929 6.95811 11.9293 5.49438 10.1239 5.49438C8.31852 5.49438 6.85442 6.95811 6.85442 8.76362C6.85442 10.5691 8.31852 12.0328 10.1239 12.0328C11.9293 12.0328 13.3929 10.5691 13.3929 8.76362ZM7.85396 8.76358C7.85396 7.49544 8.87228 6.46323 10.1241 6.46323C11.3752 6.46323 12.3935 7.49544 12.3935 8.76358C12.3935 10.0325 11.3752 11.0639 10.1241 11.0639C8.87228 11.0639 7.85396 10.0325 7.85396 8.76358ZM11.5326 12.967L11.5247 12.967H8.93007L8.92727 12.967H8.72251C6.42976 12.967 4.05219 14.8788 4.05219 17.2371V19.3387C4.05219 19.6335 4.28452 19.8725 4.57111 19.8725H10.7982C11.0848 19.8725 11.3171 19.6335 11.3171 19.3387C11.3171 19.0439 11.0848 18.805 10.7982 18.805H5.09004V17.2371C5.09004 15.4684 7.00295 14.0345 8.72251 14.0345H11.5355C12.1371 14.0354 12.7052 14.1078 13.241 14.3725C13.4678 14.4846 13.7503 14.4503 13.9107 14.2546C14.09 14.0357 14.0444 13.7084 13.7962 13.5726C13.2009 13.2467 12.5431 13.0383 11.8817 12.9823C11.8422 12.9723 11.8008 12.967 11.7582 12.967H11.5326ZM16.9 20.9H16.1V20.1H16.9V20.9ZM12.5 18.5C12.5 16.292 14.292 14.5 16.5 14.5C18.708 14.5 20.5 16.292 20.5 18.5C20.5 20.708 18.708 22.5 16.5 22.5C14.292 22.5 12.5 20.708 12.5 18.5ZM13.3 18.5C13.3 20.264 14.736 21.7 16.5 21.7C18.264 21.7 19.7 20.264 19.7 18.5C19.7 16.736 18.264 15.3 16.5 15.3C14.736 15.3 13.3 16.736 13.3 18.5ZM14.9 17.7C14.9 16.816 15.616 16.1 16.5 16.1C17.384 16.1 18.1 16.816 18.1 17.7C18.1 18.2132 17.7839 18.4894 17.4763 18.7583C17.1844 19.0133 16.9 19.2619 16.9 19.7H16.1C16.1 18.9715 16.4768 18.6827 16.8081 18.4287C17.0681 18.2295 17.3 18.0517 17.3 17.7C17.3 17.26 16.94 16.9 16.5 16.9C16.06 16.9 15.7 17.26 15.7 17.7H14.9Z" fill="black" fill-opacity="0.45"/>
</svg>
