<svg width="24" height="24" viewBox="0 0 24 24" fill="none" xmlns="http://www.w3.org/2000/svg">
<path fill-rule="evenodd" clip-rule="evenodd" d="M22.0004 13.1999L22 1H1V21.5L13.1732 21.5002C12.9392 21.1881 12.7358 20.8535 12.5669 20.5005L2.02439 20.5V2H20.9756L20.9761 12.5993C21.3385 12.7682 21.6813 12.9697 22.0004 13.1999ZM11.5003 3.5C13.4331 3.5 15 5.06705 15 7C15 8.93295 13.4331 10.5 11.5003 10.5C9.56744 10.5 8 8.93295 8 7C8 5.06705 9.56744 3.5 11.5003 3.5ZM11.5005 4.53721C10.1603 4.53721 9.07005 5.64229 9.07005 6.99993C9.07005 8.35842 10.1603 9.46266 11.5005 9.46266C12.8398 9.46266 13.9301 8.35842 13.9301 6.99993C13.9301 5.64229 12.8398 4.53721 11.5005 4.53721ZM6.11111 17.75V16.0714C6.11111 14.1779 8.15905 12.6429 10 12.6429H10.2222H13C13.6484 12.6429 14.2604 12.7196 14.8374 13.0047C15.0803 13.1247 15.3827 13.0879 15.5544 12.8784C15.7463 12.6441 15.6975 12.2937 15.4319 12.1483C14.7945 11.7994 14.0903 11.5763 13.3823 11.5163C13.3399 11.5056 13.2956 11.5 13.25 11.5H13H10.2222H10C7.5454 11.5 5 13.5467 5 16.0714V18.3214C5 18.637 5.24873 18.8929 5.55556 18.8929H12.2222C12.529 18.8929 12.7778 18.637 12.7778 18.3214C12.7778 18.0058 12.529 17.75 12.2222 17.75H6.11111ZM18.5 13.5C16.0115 13.5 14 15.5115 14 18C14 20.4885 16.0115 22.5 18.5 22.5C20.9885 22.5 23 20.4885 23 18C23 15.5115 20.9885 13.5 18.5 13.5ZM18.5 21.6C16.5155 21.6 14.9 19.9845 14.9 18C14.9 16.0155 16.5155 14.4 18.5 14.4C20.4845 14.4 22.1 16.0155 22.1 18C22.1 19.5659 21.0942 20.902 19.6949 21.396V19.1071L19.0537 18.4964L19.2369 17.5803C19.6339 18.0383 20.2446 18.3437 20.9164 18.3437V17.733C20.3362 17.733 19.8476 17.4276 19.6033 17.0001L19.298 16.5115C19.1758 16.3283 18.9926 16.2061 18.7788 16.2061C18.733 16.2061 18.6949 16.2138 18.6567 16.2214C18.6185 16.229 18.5803 16.2367 18.5345 16.2367L16.9466 16.9085V18.3437H17.5574V17.3054L18.107 17.0917L17.6184 19.5652L16.1221 19.2598L16 19.8705L18.1376 20.298L18.4429 18.9544L19.0842 19.5652V21.3974H19.6912C19.3181 21.5286 18.9172 21.6 18.5 21.6ZM19.8477 15.4428C19.8477 15.7787 19.5729 16.0535 19.2369 16.0535C18.901 16.0535 18.6262 15.7787 18.6262 15.4428C18.6262 15.1069 18.901 14.832 19.2369 14.832C19.5729 14.832 19.8477 15.1069 19.8477 15.4428Z" fill="black" fill-opacity="0.45"/>
</svg>
