<svg width="24" height="24" viewBox="0 0 24 24" fill="none" xmlns="http://www.w3.org/2000/svg">
<path fill-rule="evenodd" clip-rule="evenodd" d="M11.5292 3.83984C13.2473 3.83984 14.6401 5.21427 14.6401 6.90961C14.6401 8.60495 13.2473 9.97938 11.5292 9.97938C9.81115 9.97938 8.41787 8.60495 8.41787 6.90961C8.41787 5.21427 9.81115 3.83984 11.5292 3.83984ZM11.5294 4.74961C10.3381 4.74961 9.36898 5.71885 9.36898 6.90961C9.36898 8.10111 10.3381 9.06961 11.5294 9.06961C12.7199 9.06961 13.689 8.10111 13.689 6.90961C13.689 5.71885 12.7199 4.74961 11.5294 4.74961ZM19.2001 14.0399C19.2001 15.8293 17.7495 17.2798 15.9601 17.2798C14.1707 17.2798 12.7201 15.8293 12.7201 14.0399C12.7201 12.2505 14.1707 10.7998 15.9601 10.7998C17.7495 10.7998 19.2001 12.2505 19.2001 14.0399ZM13.6801 14.0399C13.6801 15.2991 14.7009 16.3198 15.9601 16.3198C17.2193 16.3198 18.2401 15.2991 18.2401 14.0399C18.2401 12.7807 17.2193 11.7598 15.9601 11.7598C14.7009 11.7598 13.6801 12.7807 13.6801 14.0399ZM19.5839 16.4664C20.452 16.8814 20.8801 17.3257 20.8801 17.6915C20.8801 18.9213 16.954 20.1846 12.1201 20.1846C7.28608 20.1846 3.36015 18.9213 3.36015 17.6915C3.36015 17.333 3.77068 16.899 4.60808 16.4897C4.84625 16.3733 4.94496 16.0858 4.82855 15.8477C4.71214 15.6095 4.4247 15.5108 4.18653 15.6272C3.05473 16.1804 2.40015 16.8725 2.40015 17.6915C2.40015 19.7455 6.74798 21.1446 12.1201 21.1446C17.4922 21.1446 21.8401 19.7455 21.8401 17.6915C21.8401 16.8593 21.1642 16.1578 19.9979 15.6003C19.7587 15.486 19.4722 15.5872 19.3578 15.8263C19.2435 16.0655 19.3447 16.3521 19.5839 16.4664ZM14.4839 15.2913C14.3124 15.0891 14.3374 14.7862 14.5396 14.6148L15.4801 13.8175V12.5344C15.4801 12.2693 15.695 12.0544 15.9601 12.0544C16.2252 12.0544 16.4401 12.2693 16.4401 12.5344V14.0398C16.4401 14.1809 16.3781 14.3148 16.2705 14.406L15.1604 15.3471C14.9582 15.5185 14.6553 15.4936 14.4839 15.2913ZM12.7046 16.8588C12.7046 16.5938 12.4897 16.3788 12.2246 16.3788H6.73403C6.88509 13.7912 8.24324 11.8133 9.78616 11.8133H11.3156C11.5807 11.8133 11.7956 11.5984 11.7956 11.3333C11.7956 11.0682 11.5807 10.8533 11.3156 10.8533H9.78616C7.50701 10.8533 5.76009 13.5751 5.76009 16.8588C5.76009 17.1239 5.975 17.3388 6.24009 17.3388H12.2246C12.4897 17.3388 12.7046 17.1239 12.7046 16.8588Z" fill="black" fill-opacity="0.45"/>
</svg>
