<svg width="24" height="24" viewBox="0 0 24 24" fill="none" xmlns="http://www.w3.org/2000/svg">
<path fill-rule="evenodd" clip-rule="evenodd" d="M20.88 18.2401C21.1451 18.2401 21.36 18.455 21.36 18.7201V20.4001C21.36 20.9303 20.9302 21.3601 20.4 21.3601H18.48C18.2149 21.3601 18 21.1452 18 20.8801C18 20.615 18.2149 20.4001 18.48 20.4001H20.4V18.7201C20.4 18.455 20.6149 18.2401 20.88 18.2401ZM3.12001 18.2401C3.36618 18.2401 3.56906 18.4254 3.59679 18.6642L3.60001 18.7201V20.4001H5.52001C5.78511 20.4001 6.00001 20.615 6.00001 20.8801C6.00001 21.1263 5.81472 21.3292 5.57599 21.3569L5.52001 21.3601H3.60001C3.09392 21.3601 2.6793 20.9685 2.64265 20.4718L2.64001 20.4001V18.7201C2.64001 18.455 2.85492 18.2401 3.12001 18.2401ZM14.4 15.1201C15.7918 15.1201 16.92 16.2484 16.92 17.6401V19.6801C16.92 19.9452 16.7051 20.1601 16.44 20.1601H7.80001C7.53492 20.1601 7.32001 19.9452 7.32001 19.6801V17.6401C7.32001 16.2484 8.44826 15.1201 9.84001 15.1201H14.4ZM14.4 16.0801H9.84001C8.97845 16.0801 8.28001 16.7786 8.28001 17.6401V19.2001H15.96V17.6401C15.96 16.7786 15.2616 16.0801 14.4 16.0801ZM12.12 3.84014C13.4779 3.84014 14.8315 4.76455 15.8175 6.41494C16.909 8.24201 17.52 10.8634 17.52 14.1361C17.52 14.4012 17.3051 14.6161 17.04 14.6161H7.20002C6.93492 14.6161 6.72001 14.4012 6.72001 14.1361C6.72001 10.9212 7.33248 8.30644 8.42147 6.4652C9.41183 4.79073 10.7683 3.84014 12.12 3.84014ZM12.12 4.80014C11.1465 4.80014 10.0792 5.54807 9.24777 6.95391C8.30596 8.5463 7.74192 10.8257 7.68482 13.6561H16.5554C16.4994 10.7726 15.9365 8.48597 14.9933 6.90729C14.1678 5.52544 13.1057 4.80014 12.12 4.80014ZM12.12 6.72014C13.6744 6.72014 14.9412 7.95161 14.998 9.49217L15 9.60014V10.8001C15 11.1494 14.7513 11.4407 14.4212 11.5063L14.3542 11.5164L13.8 11.6549V12.2401C13.8 12.4863 13.6147 12.6892 13.376 12.7169L13.32 12.7201H10.92C10.6739 12.7201 10.471 12.5348 10.4432 12.2961L10.44 12.2401V11.6549L9.88582 11.5164C9.54571 11.4815 9.2757 11.21 9.24328 10.8692L9.24002 10.8001V9.60014L9.242 9.49217C9.29878 7.95161 10.5656 6.72014 12.12 6.72014ZM12.12 7.68014C11.0918 7.68014 10.2523 8.48844 10.2024 9.50431L10.2 9.60014V10.6054L11.0364 10.8145C11.2323 10.8634 11.3746 11.0288 11.3969 11.2257L11.4 11.2801V11.7601H12.84V11.2801C12.84 11.0782 12.966 10.9001 13.1516 10.8306L13.2036 10.8145L14.04 10.6054V9.60014L14.0377 9.50431C13.9877 8.48844 13.1483 7.68014 12.12 7.68014ZM11.16 9.12014C11.4251 9.12014 11.64 9.33504 11.64 9.60014C11.64 9.86523 11.4251 10.0801 11.16 10.0801C10.8949 10.0801 10.68 9.86523 10.68 9.60014C10.68 9.33504 10.8949 9.12014 11.16 9.12014ZM13.08 9.12014C13.3451 9.12014 13.56 9.33504 13.56 9.60014C13.56 9.86523 13.3451 10.0801 13.08 10.0801C12.8149 10.0801 12.6 9.86523 12.6 9.60014C12.6 9.33504 12.8149 9.12014 13.08 9.12014ZM20.4 2.64014C20.9061 2.64014 21.3207 3.03176 21.3574 3.52849L21.36 3.60014V5.28014C21.36 5.54523 21.1451 5.76014 20.88 5.76014C20.6339 5.76014 20.431 5.57484 20.4032 5.33611L20.4 5.28014V3.60014H18.48C18.2149 3.60014 18 3.38523 18 3.12014C18 2.87398 18.1853 2.67109 18.424 2.64337L18.48 2.64014H20.4ZM5.52001 2.64014C5.78511 2.64014 6.00001 2.85504 6.00001 3.12014C6.00001 3.38523 5.78511 3.60014 5.52001 3.60014H3.60001V5.28014C3.60001 5.54523 3.38511 5.76014 3.12001 5.76014C2.85492 5.76014 2.64001 5.54523 2.64001 5.28014V3.60014C2.64001 3.06994 3.06982 2.64014 3.60001 2.64014H5.52001Z" fill="black" fill-opacity="0.45"/>
</svg>
