<svg width="24" height="24" viewBox="0 0 24 24" fill="none" xmlns="http://www.w3.org/2000/svg">
<path fill-rule="evenodd" clip-rule="evenodd" d="M10.6878 2.64014C11.1823 2.64014 11.6542 2.79739 12.0442 3.08392C12.2578 3.24086 12.3038 3.54129 12.1469 3.75493C11.9899 3.96857 11.6895 4.01454 11.4758 3.85759C11.2493 3.69116 10.9761 3.60014 10.6878 3.60014C9.95404 3.60014 9.36003 4.19159 9.36003 4.92014C9.36003 5.64869 9.95404 6.24014 10.6878 6.24014C10.9529 6.24014 11.1678 6.45504 11.1678 6.72014C11.1678 6.98523 10.9529 7.20014 10.6878 7.20014C9.42477 7.20014 8.40003 6.17981 8.40003 4.92014C8.40003 3.66046 9.42477 2.64014 10.6878 2.64014ZM14.52 8.16014C15.7792 8.16014 16.8 7.13935 16.8 5.88014C16.8 4.62093 15.7792 3.60014 14.52 3.60014C13.2608 3.60014 12.24 4.62093 12.24 5.88014C12.24 7.13935 13.2608 8.16014 14.52 8.16014ZM14.52 7.20014C13.791 7.20014 13.2 6.60915 13.2 5.88014C13.2 5.15112 13.791 4.56014 14.52 4.56014C15.249 4.56014 15.84 5.15112 15.84 5.88014C15.84 6.60915 15.249 7.20014 14.52 7.20014ZM12 10.3201C12 9.92249 12.3224 9.60014 12.72 9.60014H16.08C16.4777 9.60014 16.8 9.92249 16.8 10.3201V14.1157H15.6343C15.3692 14.1157 15.1543 14.3306 15.1543 14.5957V19.4401C15.1543 19.7052 15.3692 19.9201 15.6343 19.9201C15.8994 19.9201 16.1143 19.7052 16.1143 19.4401V15.0757H17.28C17.5451 15.0757 17.76 14.8608 17.76 14.5957V10.3201C17.76 9.3923 17.0079 8.64014 16.08 8.64014H12.72C11.7922 8.64014 11.04 9.3923 11.04 10.3201V14.5957C11.04 14.8608 11.2549 15.0757 11.52 15.0757H12.6857V19.4401C12.6857 19.7052 12.9006 19.9201 13.1657 19.9201C13.4308 19.9201 13.6457 19.7052 13.6457 19.4401V14.5957C13.6457 14.3306 13.4308 14.1157 13.1657 14.1157H12V10.3201ZM8.40002 9.81455V10.0801C8.40002 10.3452 8.18512 10.5601 7.92002 10.5601C7.65493 10.5601 7.44002 10.3452 7.44002 10.0801V9.81455C7.44002 8.75724 8.36328 7.92014 9.48002 7.92014H11.04C11.3051 7.92014 11.52 8.13504 11.52 8.40014C11.52 8.66523 11.3051 8.88014 11.04 8.88014H9.48002C8.87364 8.88014 8.40002 9.30955 8.40002 9.81455ZM7.44002 16.3201C8.58565 16.3201 9.53044 15.4255 9.59635 14.2874C9.61168 14.0228 9.83865 13.8207 10.1033 13.836C10.368 13.8513 10.5701 14.0783 10.5547 14.3429C10.4595 15.988 9.09499 17.2801 7.44002 17.2801C6.7576 17.2801 6.12634 17.061 5.61276 16.6894L4.25545 18.042C4.0865 18.2104 3.79834 18.1953 3.61182 18.0082C3.42531 17.8212 3.41106 17.5331 3.58001 17.3647L4.93243 16.0169C4.54763 15.4981 4.32002 14.8557 4.32002 14.1601C4.32002 12.437 5.7169 11.0401 7.44002 11.0401C7.89984 11.0401 8.34647 11.14 8.75502 11.3301C8.99537 11.4419 9.09955 11.7274 8.98771 11.9678C8.87587 12.2081 8.59036 12.3123 8.35001 12.2005C8.06767 12.0691 7.7592 12.0001 7.44002 12.0001C6.24709 12.0001 5.28002 12.9672 5.28002 14.1601C5.28002 15.3531 6.24709 16.3201 7.44002 16.3201ZM6.57944 13.5807C6.39198 13.3933 6.08807 13.3933 5.90061 13.5807C5.71316 13.7682 5.71316 14.0721 5.90061 14.2595L7.10061 15.4595C7.28806 15.647 7.59198 15.647 7.77944 15.4595L10.1794 13.0595C10.3669 12.8721 10.3669 12.5682 10.1794 12.3807C9.99198 12.1933 9.68806 12.1933 9.50061 12.3807L7.44002 14.4413L6.57944 13.5807ZM20.64 18.5009C20.64 18.2242 20.2274 17.842 19.3828 17.4816C19.1389 17.3776 19.0256 17.0956 19.1297 16.8518C19.2337 16.6079 19.5157 16.4946 19.7595 16.5986C20.9229 17.095 21.6 17.7222 21.6 18.5009C21.6 20.3724 17.3253 21.6001 12 21.6001C7.75462 21.6001 3.82856 20.3104 2.54562 19.0645C2.35544 18.8798 2.35099 18.5759 2.53568 18.3857C2.72037 18.1956 3.02425 18.1911 3.21443 18.3758C3.58917 18.7397 4.6525 19.2932 5.97095 19.7263C7.72609 20.3029 9.77448 20.6401 12 20.6401C14.4094 20.6401 16.6634 20.3663 18.3163 19.8916C19.8215 19.4593 20.64 18.9035 20.64 18.5009Z" fill="black" fill-opacity="0.45"/>
</svg>
