<svg width="24" height="24" viewBox="0 0 24 24" fill="none" xmlns="http://www.w3.org/2000/svg">
<path fill-rule="evenodd" clip-rule="evenodd" d="M8.63991 20.6399H6.95991L6.95991 12.2399L6.95991 3.86517C6.95991 3.59743 7.25847 3.3599 7.59991 3.3599H16.3999C16.7414 3.3599 17.0399 3.59743 17.0399 3.86517V10.716C17.0399 10.9811 17.2548 11.196 17.5199 11.196C17.785 11.196 17.9999 10.9811 17.9999 10.716V3.91569C17.9999 3.06723 17.2735 2.3999 16.3999 2.3999H7.59991C6.72633 2.3999 5.99991 3.06723 5.99991 3.91569V12.2399H4.55991C3.76462 12.2399 3.11991 12.9115 3.11991 13.7399V20.6399H2.63991C2.37482 20.6399 2.15991 20.8548 2.15991 21.1199C2.15991 21.385 2.37482 21.5999 2.63991 21.5999H3.11991H4.07991H5.99991H6.95991H15.3599C15.625 21.5999 15.8399 21.385 15.8399 21.1199C15.8399 20.8548 15.625 20.6399 15.3599 20.6399H12.4799V16.3599C12.4799 15.8076 12.0322 15.3599 11.4799 15.3599H9.63991C9.08763 15.3599 8.63991 15.8076 8.63991 16.3599V20.6399ZM9.59991 20.6399H11.5199V16.8199C11.5199 16.5438 11.2961 16.3199 11.0199 16.3199H10.0999C9.82377 16.3199 9.59991 16.5438 9.59991 16.8199V20.6399ZM5.99991 20.6399V13.1999H4.55991C4.29482 13.1999 4.07991 13.4256 4.07991 13.7039V20.6399H5.99991ZM8.63991 5.7599C8.63991 5.49481 8.85482 5.2799 9.11991 5.2799H15.1199C15.385 5.2799 15.5999 5.49481 15.5999 5.7599C15.5999 6.025 15.385 6.2399 15.1199 6.2399H9.11991C8.85482 6.2399 8.63991 6.025 8.63991 5.7599ZM9.11991 8.2799C8.85482 8.2799 8.63991 8.49481 8.63991 8.7599C8.63991 9.025 8.85482 9.2399 9.11991 9.2399H15.1199C15.385 9.2399 15.5999 9.025 15.5999 8.7599C15.5999 8.49481 15.385 8.2799 15.1199 8.2799H9.11991ZM8.63991 11.7599C8.63991 11.4948 8.85482 11.2799 9.11991 11.2799H11.9999C12.265 11.2799 12.4799 11.4948 12.4799 11.7599C12.4799 12.025 12.265 12.2399 11.9999 12.2399H9.11991C8.85482 12.2399 8.63991 12.025 8.63991 11.7599ZM19.4399 21.1199C19.4399 20.8548 19.6548 20.6399 19.9199 20.6399H21.3599C21.625 20.6399 21.8399 20.8548 21.8399 21.1199C21.8399 21.385 21.625 21.5999 21.3599 21.5999H19.9199C19.6548 21.5999 19.4399 21.385 19.4399 21.1199ZM21.375 15.5518C21.375 13.4219 19.6491 11.6955 17.5199 11.6955C15.3907 11.6955 13.665 13.4219 13.665 15.5518C13.665 15.6907 13.6726 15.831 13.6876 15.9725C13.8156 17.1787 14.4631 18.4282 15.4571 19.6751C15.8391 20.1543 16.2474 20.6002 16.6558 21.0023C16.799 21.1433 16.9323 21.269 17.0523 21.3779C17.1255 21.4443 17.1788 21.4911 17.2091 21.5168C17.3914 21.6717 17.66 21.6687 17.8388 21.5097C17.8686 21.4832 17.9216 21.4348 17.9944 21.366C18.114 21.2532 18.2468 21.1233 18.3895 20.9781C18.7968 20.5638 19.204 20.1078 19.585 19.6224C20.3895 18.5974 20.9702 17.5813 21.2291 16.6059C21.325 16.2447 21.375 15.8929 21.375 15.5518ZM17.5199 12.6555C15.921 12.6555 14.625 13.952 14.625 15.5518C14.625 15.6564 14.6308 15.7629 14.6423 15.8711C14.7471 16.8593 15.3173 17.9597 16.2077 19.0766C16.564 19.5235 16.9467 19.9416 17.3293 20.3182C17.3931 20.381 17.4546 20.4405 17.5136 20.4963C17.5747 20.4364 17.6386 20.3726 17.7049 20.3051C18.0887 19.9147 18.4726 19.4848 18.8299 19.0296C19.561 18.0982 20.0816 17.1872 20.3012 16.3596C20.3766 16.0755 20.415 15.8058 20.415 15.5518C20.415 13.9521 19.1188 12.6555 17.5199 12.6555ZM17.5199 13.5173C16.378 13.5173 15.452 14.4439 15.452 15.5861C15.452 16.7283 16.378 17.6549 17.5199 17.6549C18.6618 17.6549 19.5879 16.7283 19.5879 15.5861C19.5879 14.4439 18.6618 13.5173 17.5199 13.5173ZM18.6279 15.5861C18.6279 16.1982 18.1315 16.6949 17.5199 16.6949C16.9083 16.6949 16.412 16.1983 16.412 15.5861C16.412 14.9739 16.9083 14.4773 17.5199 14.4773C18.1315 14.4773 18.6279 14.974 18.6279 15.5861Z" fill="black" fill-opacity="0.45"/>
</svg>
