<svg width="24" height="24" viewBox="0 0 24 24" fill="none" xmlns="http://www.w3.org/2000/svg">
<path fill-rule="evenodd" clip-rule="evenodd" d="M12.2302 12.7637C12.2302 13.0047 12.0357 13.2001 11.7959 13.2001H7.44688C7.20703 13.2001 7.0126 13.0047 7.0126 12.7637V11.3087C7.0126 11.2881 6.98893 11.2634 6.88452 11.2232C6.82575 11.2007 6.75811 11.1836 6.68977 11.1724C6.64918 11.1657 6.61995 11.1628 6.60021 11.1616C6.42234 11.1483 6.17299 11.1077 5.91471 11.0202C5.3924 10.8434 5.03533 10.5324 5.04001 10.0245V8.16377C5.04001 5.64305 7.08212 3.6001 9.59999 3.6001C12.1179 3.6001 14.16 5.64305 14.16 8.16377V10.0245C14.16 10.6919 13.5739 11.0123 12.7943 11.1621L12.7507 11.1682C12.734 11.1696 12.6962 11.1744 12.6452 11.1835C12.5599 11.1987 12.4751 11.2198 12.4 11.2467C12.3211 11.2749 12.2618 11.3066 12.2302 11.3341V12.7637ZM11.28 11.2801C11.28 10.8286 11.7129 10.5821 12.1567 10.4245C12.3602 10.3523 12.5558 10.3158 12.7027 10.3011C12.8307 10.2756 12.8419 10.268 12.8796 10.2423C12.8966 10.2307 12.919 10.2154 12.96 10.1932C13.0727 10.132 13.2 10.0334 13.2 10.0245V8.16377C13.2 6.1259 11.6548 4.5601 9.59997 4.5601C7.54517 4.5601 5.99997 6.1259 5.99997 8.16377V10.0801L5.99985 10.0845C5.99897 10.1092 5.99832 10.1274 6.19426 10.1932C6.29681 10.2277 6.41097 10.2541 6.52574 10.2726C6.59443 10.2837 6.646 10.2895 6.66154 10.2907C6.80567 10.2984 7.00027 10.3301 7.20482 10.4081C7.61253 10.5636 7.91997 10.8296 7.91997 11.2801V12.2401H8.39997V12.0001C8.39997 11.735 8.61487 11.5201 8.87997 11.5201C9.14506 11.5201 9.35997 11.735 9.35997 12.0001V12.2401H9.83997V12.0001C9.83997 11.735 10.0549 11.5201 10.32 11.5201C10.5851 11.5201 10.8 11.735 10.8 12.0001V12.2401H11.28V11.2801ZM7.79997 6.9601C7.07096 6.9601 6.47997 7.5511 6.47997 8.2801C6.47997 9.0091 7.07096 9.6001 7.79997 9.6001C8.52897 9.6001 9.11997 9.0091 9.11997 8.2801C9.11997 7.5511 8.52897 6.9601 7.79997 6.9601ZM7.79997 8.6401C7.60116 8.6401 7.43997 8.47891 7.43997 8.2801C7.43997 8.08129 7.60116 7.9201 7.79997 7.9201C7.99877 7.9201 8.15997 8.08129 8.15997 8.2801C8.15997 8.47891 7.99877 8.6401 7.79997 8.6401ZM10.08 8.2801C10.08 7.5511 10.671 6.9601 11.4 6.9601C12.129 6.9601 12.72 7.5511 12.72 8.2801C12.72 9.0091 12.129 9.6001 11.4 9.6001C10.671 9.6001 10.08 9.0091 10.08 8.2801ZM11.04 8.2801C11.04 8.47891 11.2012 8.6401 11.4 8.6401C11.5988 8.6401 11.76 8.47891 11.76 8.2801C11.76 8.08129 11.5988 7.9201 11.4 7.9201C11.2012 7.9201 11.04 8.08129 11.04 8.2801ZM4.79997 18.2401V19.4401H12.72C12.9851 19.4401 13.2 19.655 13.2 19.9201C13.2 20.1852 12.9851 20.4001 12.72 20.4001H4.31997C4.05487 20.4001 3.83997 20.1852 3.83997 19.9201V18.2401C3.83997 16.1193 5.55919 14.4001 7.67997 14.4001H11.52C11.7851 14.4001 12 14.615 12 14.8801C12 15.1452 11.7851 15.3601 11.52 15.3601H7.67997C6.08939 15.3601 4.79997 16.6495 4.79997 18.2401ZM20.1972 17.3175C20.1972 19.3057 18.5854 20.9174 16.5972 20.9174C14.6089 20.9174 12.9972 19.3057 12.9972 17.3175C12.9972 15.3293 14.6089 13.7174 16.5972 13.7174C18.5854 13.7174 20.1972 15.3293 20.1972 17.3175ZM13.9572 17.3175C13.9572 18.7755 15.1391 19.9574 16.5972 19.9574C18.0552 19.9574 19.2372 18.7755 19.2372 17.3175C19.2372 15.8595 18.0552 14.6774 16.5972 14.6774C15.1392 14.6774 13.9572 15.8595 13.9572 17.3175ZM16.6853 15.1483C16.9504 15.1483 17.1653 15.3632 17.1653 15.6283V17.041L18.3612 17.6646C18.5962 17.7872 18.6874 18.0771 18.5648 18.3122C18.4423 18.5472 18.1523 18.6384 17.9173 18.5159L16.2053 17.6231V15.6283C16.2053 15.3632 16.4202 15.1483 16.6853 15.1483Z" fill="black" fill-opacity="0.45"/>
</svg>
