<svg width="24" height="24" viewBox="0 0 24 24" fill="none" xmlns="http://www.w3.org/2000/svg">
<path fill-rule="evenodd" clip-rule="evenodd" d="M12.4799 2.64014C12.745 2.64014 12.9599 2.85504 12.9599 3.12014V7.92014C12.9599 8.18523 12.745 8.40014 12.4799 8.40014C12.2148 8.40014 11.9999 8.18523 11.9999 7.92014V3.60014H6.46579V11.2801C6.46579 11.5452 6.25088 11.7601 5.98578 11.7601H3.3599V20.4001H9.95284C10.2179 20.4001 10.4328 20.615 10.4328 20.8801C10.4328 21.1452 10.2179 21.3601 9.95284 21.3601H2.8799C2.61481 21.3601 2.3999 21.1452 2.3999 20.8801V11.2801C2.3999 11.015 2.61481 10.8001 2.8799 10.8001H5.50578V3.12014C5.50578 2.85504 5.72069 2.64014 5.98578 2.64014H12.4799ZM16.1999 14.8801C17.7242 14.8801 18.9599 16.1158 18.9599 17.6401V20.4001H19.1999C19.465 20.4001 19.6799 20.615 19.6799 20.8801C19.6799 21.1452 19.465 21.3601 19.1999 21.3601H13.1999C12.9348 21.3601 12.7199 21.1452 12.7199 20.8801C12.7199 20.615 12.9348 20.4001 13.1999 20.4001H13.4399V17.6401C13.4399 16.1158 14.6756 14.8801 16.1999 14.8801ZM16.1999 15.8401C15.2058 15.8401 14.3999 16.646 14.3999 17.6401V20.4001H17.9999V17.6401C17.9999 16.646 17.194 15.8401 16.1999 15.8401ZM16.9387 16.7401C17.1121 16.9128 17.1259 17.185 16.9799 17.3736L16.94 17.4189L16.5599 17.8L17.0106 17.8003C17.0228 17.8005 17.0349 17.8012 17.047 17.8024C17.0537 17.8031 17.0605 17.8039 17.0671 17.8048C17.0764 17.8061 17.0857 17.8077 17.0949 17.8096C17.1075 17.812 17.1198 17.815 17.1319 17.8185C17.1364 17.8198 17.1407 17.8211 17.145 17.8225C17.1575 17.8264 17.1699 17.8309 17.182 17.8358C17.188 17.8383 17.1942 17.841 17.2004 17.8438C17.2099 17.8482 17.2189 17.8528 17.2278 17.8575C17.2367 17.8623 17.2456 17.8675 17.2545 17.873C17.2583 17.8755 17.262 17.8779 17.2657 17.8803C17.2914 17.8974 17.3159 17.9174 17.3387 17.9401C17.3429 17.9442 17.3469 17.9484 17.3509 17.9526C17.3727 17.976 17.3924 18.0017 17.4093 18.0294C17.4129 18.0351 17.4163 18.0408 17.4195 18.0466C17.4249 18.0564 17.4301 18.0666 17.435 18.077L17.4458 18.102L17.4511 18.1158L17.456 18.13C17.4583 18.1369 17.4603 18.1435 17.4621 18.15C17.4656 18.1621 17.4686 18.1748 17.4711 18.1877C17.4716 18.1905 17.4721 18.1932 17.4726 18.196C17.4775 18.2232 17.48 18.2514 17.48 18.2801L17.4785 18.2427C17.4791 18.2495 17.4795 18.2565 17.4797 18.2634L17.4798 18.2923C17.4796 18.302 17.479 18.3118 17.4782 18.3216C17.4773 18.3325 17.476 18.3431 17.4744 18.3536L17.4706 18.375C17.4686 18.3848 17.4664 18.3944 17.4639 18.4039L17.4554 18.432C17.4522 18.4417 17.4487 18.4512 17.4449 18.4605C17.4431 18.4652 17.441 18.4699 17.4389 18.4746C17.4331 18.4878 17.4268 18.5005 17.4199 18.5128C17.4168 18.5186 17.4133 18.5244 17.4098 18.5303C17.4031 18.5411 17.3962 18.5514 17.3889 18.5615L17.3745 18.5795L17.34 18.6189L16.1448 19.8187C15.9577 20.0065 15.6538 20.0071 15.466 19.82C15.2926 19.6473 15.2788 19.3751 15.4249 19.1865L15.4647 19.1412L15.8442 18.76L15.4146 18.7601C15.4092 18.7601 15.4039 18.76 15.3985 18.7599C15.2781 18.7584 15.1581 18.7117 15.066 18.62C14.8926 18.4473 14.8788 18.1751 15.0249 17.9865L15.0647 17.9412L16.2599 16.7414C16.447 16.5536 16.7509 16.553 16.9387 16.7401ZM8.2799 15.3601C9.07519 15.3601 9.7199 16.0048 9.7199 16.8001V17.7601C9.7199 18.0252 9.505 18.2401 9.2399 18.2401H5.8799C5.61481 18.2401 5.3999 18.0252 5.3999 17.7601V16.8001C5.3999 16.0048 6.04461 15.3601 6.8399 15.3601H8.2799ZM20.9599 17.2401C21.1808 17.2401 21.3599 17.4192 21.3599 17.6401C21.3599 17.8441 21.2073 18.0123 21.0101 18.037L20.9599 18.0401H19.9599C19.739 18.0401 19.5599 17.8611 19.5599 17.6401C19.5599 17.4362 19.7125 17.2679 19.9097 17.2433L19.9599 17.2401H20.9599ZM12.4399 17.2401C12.6608 17.2401 12.8399 17.4192 12.8399 17.6401C12.8399 17.8441 12.6873 18.0123 12.4901 18.037L12.4399 18.0401H11.4399C11.219 18.0401 11.0399 17.8611 11.0399 17.6401C11.0399 17.4362 11.1925 17.2679 11.3897 17.2433L11.4399 17.2401H12.4399ZM8.2799 16.3201H6.8399C6.57481 16.3201 6.3599 16.535 6.3599 16.8001V17.2801H8.7599V16.8001C8.7599 16.535 8.545 16.3201 8.2799 16.3201ZM19.7783 14.0618C19.9215 14.205 19.9334 14.4297 19.8141 14.5865L19.7783 14.6274L19.0712 15.3346C18.915 15.4908 18.6617 15.4908 18.5055 15.3346C18.3623 15.1914 18.3504 14.9666 18.4697 14.8098L18.5055 14.7689L19.2126 14.0618C19.3688 13.9056 19.6221 13.9056 19.7783 14.0618ZM13.1462 14.026L13.1872 14.0618L13.8943 14.7689C14.0505 14.9251 14.0505 15.1783 13.8943 15.3346C13.7511 15.4777 13.5264 15.4897 13.3696 15.3704L13.3286 15.3346L12.6215 14.6274C12.4653 14.4712 12.4653 14.218 12.6215 14.0618C12.7647 13.9186 12.9895 13.9066 13.1462 14.026ZM7.5599 12.0001C8.35519 12.0001 8.9999 12.6448 8.9999 13.4401C8.9999 14.2354 8.35519 14.8801 7.5599 14.8801C6.76461 14.8801 6.1199 14.2354 6.1199 13.4401C6.1199 12.6448 6.76461 12.0001 7.5599 12.0001ZM16.1999 12.4801C16.4038 12.4801 16.5721 12.6327 16.5968 12.83L16.5999 12.8801V13.8801C16.5999 14.1011 16.4208 14.2801 16.1999 14.2801C15.996 14.2801 15.8277 14.1275 15.803 13.9303L15.7999 13.8801V12.8801C15.7999 12.6592 15.979 12.4801 16.1999 12.4801ZM7.5599 12.9601C7.29481 12.9601 7.0799 13.175 7.0799 13.4401C7.0799 13.7052 7.29481 13.9201 7.5599 13.9201C7.825 13.9201 8.0399 13.7052 8.0399 13.4401C8.0399 13.175 7.825 12.9601 7.5599 12.9601ZM16.1999 9.70808C16.465 9.70808 16.6799 9.92298 16.6799 10.1881C16.6799 10.4532 16.465 10.6681 16.1999 10.6681L12.3061 10.6677L12.5964 10.9578C12.7838 11.1452 12.7838 11.4492 12.5964 11.6366C12.4089 11.8241 12.105 11.8241 11.9175 11.6366L10.8993 10.6184C10.8766 10.5956 10.8566 10.5711 10.8393 10.5454C10.7416 10.4577 10.6799 10.3301 10.6799 10.1881C10.6799 9.92298 10.8948 9.70808 11.1599 9.70808H16.1999Z" fill="black" fill-opacity="0.45"/>
</svg>
