<svg width="24" height="24" viewBox="0 0 24 24" fill="none" xmlns="http://www.w3.org/2000/svg">
<path fill-rule="evenodd" clip-rule="evenodd" d="M11.7601 14.4001C12.0252 14.4001 12.2401 14.615 12.2401 14.8801C12.2401 15.1452 12.0252 15.3601 11.7601 15.3601H7.92008C6.3295 15.3601 5.04008 16.6495 5.04008 18.2401V19.4401H12.9601C13.2252 19.4401 13.4401 19.655 13.4401 19.9201C13.4401 20.1852 13.2252 20.4001 12.9601 20.4001H4.56008C4.29498 20.4001 4.08008 20.1852 4.08008 19.9201V18.2401C4.08008 16.1193 5.7993 14.4001 7.92008 14.4001H11.7601ZM19.2001 19.4401C19.4652 19.4401 19.6801 19.655 19.6801 19.9201C19.6801 20.1663 19.4948 20.3691 19.2561 20.3969L19.2001 20.4001H14.4001C14.135 20.4001 13.9201 20.1852 13.9201 19.9201C13.9201 19.6739 14.1054 19.4711 14.3441 19.4433L14.4001 19.4401H19.2001ZM14.6401 14.4001C14.9052 14.4001 15.1201 14.615 15.1201 14.8801V18.4801C15.1201 18.7452 14.9052 18.9601 14.6401 18.9601C14.375 18.9601 14.1601 18.7452 14.1601 18.4801V14.8801C14.1601 14.615 14.375 14.4001 14.6401 14.4001ZM16.8001 13.4401C17.0652 13.4401 17.2801 13.655 17.2801 13.9201V18.4801C17.2801 18.7452 17.0652 18.9601 16.8001 18.9601C16.535 18.9601 16.3201 18.7452 16.3201 18.4801V13.9201C16.3201 13.655 16.535 13.4401 16.8001 13.4401ZM18.9601 15.6001C19.2252 15.6001 19.4401 15.815 19.4401 16.0801V18.4801C19.4401 18.7452 19.2252 18.9601 18.9601 18.9601C18.695 18.9601 18.4801 18.7452 18.4801 18.4801V16.0801C18.4801 15.815 18.695 15.6001 18.9601 15.6001ZM9.8401 3.6001C12.358 3.6001 14.4001 5.64305 14.4001 8.16377V10.0245C14.4001 10.6919 13.8141 11.0123 13.0344 11.1621L12.9908 11.1682C12.9741 11.1696 12.9363 11.1744 12.8853 11.1835C12.8 11.1987 12.7153 11.2198 12.6401 11.2467C12.5612 11.2749 12.5019 11.3066 12.4703 11.3341V12.7637C12.4703 13.0047 12.2758 13.2001 12.036 13.2001H7.68699C7.44714 13.2001 7.25271 13.0047 7.25271 12.7637V11.3087C7.25271 11.2881 7.22905 11.2634 7.12463 11.2232C7.06587 11.2007 6.99823 11.1836 6.92989 11.1724C6.88929 11.1657 6.86006 11.1628 6.84032 11.1616C6.66245 11.1483 6.4131 11.1077 6.15482 11.0202C5.63251 10.8434 5.27544 10.5324 5.28008 10.0245V8.16377C5.28008 5.64305 7.32224 3.6001 9.8401 3.6001ZM9.84008 4.5601C7.78528 4.5601 6.24008 6.1259 6.24008 8.16377V10.0801C6.23985 10.1072 6.22698 10.1235 6.43437 10.1932C6.53692 10.2277 6.65108 10.2541 6.76585 10.2726C6.83454 10.2837 6.88611 10.2895 6.90165 10.2907C7.04578 10.2984 7.24038 10.3301 7.44493 10.4081C7.85264 10.5636 8.16008 10.8296 8.16008 11.2801V12.2401L8.64008 12.2396V12.0001C8.64008 11.735 8.85498 11.5201 9.12008 11.5201C9.38518 11.5201 9.60008 11.735 9.60008 12.0001V12.2396H10.0801V12.0001C10.0801 11.735 10.295 11.5201 10.5601 11.5201C10.8252 11.5201 11.0401 11.735 11.0401 12.0001V12.2396L11.5201 12.2401V11.2801C11.5201 10.8286 11.953 10.5821 12.3968 10.4245C12.6003 10.3523 12.7959 10.3158 12.9429 10.3011C13.1287 10.2641 13.0684 10.2647 13.2001 10.1932C13.3128 10.132 13.4401 10.0334 13.4401 10.0245V8.16377C13.4401 6.1259 11.8949 4.5601 9.84008 4.5601ZM8.04008 6.9601C8.74208 6.9601 9.31611 7.50813 9.35767 8.19969L9.36008 8.2801L9.35767 8.36051C9.31611 9.05207 8.74208 9.6001 8.04008 9.6001C7.31108 9.6001 6.72008 9.0091 6.72008 8.2801C6.72008 7.5511 7.31108 6.9601 8.04008 6.9601ZM11.6401 6.9601C12.3421 6.9601 12.9161 7.50813 12.9577 8.19969L12.9601 8.2801L12.9577 8.36051C12.9161 9.05207 12.3421 9.6001 11.6401 9.6001C10.9111 9.6001 10.3201 9.0091 10.3201 8.2801C10.3201 7.5511 10.9111 6.9601 11.6401 6.9601ZM8.04008 7.9201C7.84127 7.9201 7.68008 8.08129 7.68008 8.2801C7.68008 8.47891 7.84127 8.6401 8.04008 8.6401C8.22232 8.6401 8.37295 8.50465 8.39679 8.32894L8.40008 8.2801L8.39679 8.23125C8.37295 8.05554 8.22232 7.9201 8.04008 7.9201ZM11.6401 7.9201C11.4413 7.9201 11.2801 8.08129 11.2801 8.2801C11.2801 8.47891 11.4413 8.6401 11.6401 8.6401C11.8223 8.6401 11.973 8.50465 11.9968 8.32894L12.0001 8.2801L11.9968 8.23125C11.973 8.05554 11.8223 7.9201 11.6401 7.9201Z" fill="black" fill-opacity="0.45"/>
</svg>
