<svg width="24" height="24" viewBox="0 0 24 24" fill="none" xmlns="http://www.w3.org/2000/svg">
<path fill-rule="evenodd" clip-rule="evenodd" d="M12.7191 9.37918C13.741 9.37918 14.6432 10.0524 15.0914 11.0799C15.1974 11.3228 15.0864 11.6057 14.8434 11.7117C14.6004 11.8177 14.3175 11.7067 14.2115 11.4637C13.9077 10.7672 13.3341 10.3392 12.7191 10.3392H10.5853C9.66653 10.3392 8.8801 11.2933 8.8801 12.5107V19.9392H10.7999C11.065 19.9392 11.2799 20.1541 11.2799 20.4192C11.2799 20.6843 11.065 20.8992 10.7999 20.8992H8.4001C8.135 20.8992 7.9201 20.6843 7.9201 20.4192V12.5107C7.9201 10.7997 9.09091 9.37918 10.5853 9.37918H12.7191ZM15.9599 14.3999C17.4842 14.3999 18.7199 15.6356 18.7199 17.1599V19.9199H18.9599C19.225 19.9199 19.4399 20.1348 19.4399 20.3999C19.4399 20.665 19.225 20.8799 18.9599 20.8799H12.9599C12.6948 20.8799 12.4799 20.665 12.4799 20.3999C12.4799 20.1348 12.6948 19.9199 12.9599 19.9199H13.1999V17.1599C13.1999 15.6356 14.4356 14.3999 15.9599 14.3999ZM4.55993 15.1199C6.15051 15.1199 7.43993 16.4093 7.43993 17.9999C7.43993 19.5905 6.15051 20.8799 4.55993 20.8799C2.96935 20.8799 1.67993 19.5905 1.67993 17.9999C1.67993 16.4093 2.96935 15.1199 4.55993 15.1199ZM15.9599 15.3599C14.9658 15.3599 14.1599 16.1658 14.1599 17.1599V19.9199H17.7599V17.1599C17.7599 16.1658 16.954 15.3599 15.9599 15.3599ZM4.55993 16.0799C3.49954 16.0799 2.63993 16.9395 2.63993 17.9999C2.63993 19.0603 3.49954 19.9199 4.55993 19.9199C5.62032 19.9199 6.47993 19.0603 6.47993 17.9999C6.47993 16.9395 5.62032 16.0799 4.55993 16.0799ZM16.6988 16.2598C16.8721 16.4325 16.886 16.7048 16.7399 16.8933L16.7001 16.9386L16.3199 17.3197L16.7707 17.32C16.7828 17.3203 16.795 17.321 16.8071 17.3222C16.8138 17.3228 16.8205 17.3236 16.8272 17.3245C16.8365 17.3259 16.8457 17.3275 16.855 17.3293C16.8675 17.3318 16.8798 17.3348 16.892 17.3382C16.8964 17.3395 16.9007 17.3408 16.905 17.3422C16.9175 17.3461 16.9299 17.3506 16.942 17.3556C16.948 17.3581 16.9543 17.3608 16.9604 17.3636C16.9699 17.368 16.979 17.3725 16.9878 17.3773C16.9967 17.382 17.0057 17.3872 17.0145 17.3928C17.0183 17.3952 17.022 17.3976 17.0257 17.4001C17.0515 17.4172 17.076 17.4371 17.0988 17.4598C17.1029 17.464 17.107 17.4681 17.1109 17.4724C17.1327 17.4957 17.1524 17.5215 17.1694 17.5491C17.173 17.5549 17.1763 17.5606 17.1795 17.5664C17.185 17.5762 17.1902 17.5864 17.195 17.5967L17.2059 17.6217L17.2111 17.6355L17.2161 17.6498C17.2183 17.6567 17.2203 17.6632 17.2221 17.6698C17.2256 17.6819 17.2286 17.6946 17.2311 17.7075C17.2316 17.7103 17.2321 17.713 17.2326 17.7157C17.2375 17.743 17.24 17.7711 17.24 17.7999L17.2386 17.7624C17.2391 17.7693 17.2395 17.7762 17.2397 17.7831L17.2399 17.8121C17.2396 17.8217 17.2391 17.8315 17.2382 17.8413C17.2373 17.8522 17.236 17.8628 17.2344 17.8733L17.2306 17.8947C17.2287 17.9045 17.2264 17.9141 17.2239 17.9236L17.2155 17.9517C17.2122 17.9615 17.2088 17.9709 17.205 17.9802C17.2031 17.9849 17.2011 17.9897 17.199 17.9944C17.1931 18.0075 17.1868 18.0202 17.18 18.0326C17.1768 18.0383 17.1734 18.0442 17.1698 18.05C17.1631 18.0608 17.1562 18.0712 17.1489 18.0813L17.1345 18.0992L17.1001 18.1386L15.9049 19.3385C15.7178 19.5263 15.4139 19.5269 15.226 19.3398C15.0527 19.1671 15.0388 18.8948 15.1849 18.7063L15.2247 18.661L15.6043 18.2797L15.1746 18.2799C15.1693 18.2799 15.1639 18.2798 15.1585 18.2796C15.0381 18.2781 14.9181 18.2315 14.826 18.1398C14.6527 17.9671 14.6388 17.6948 14.7849 17.5063L14.8247 17.461L16.0199 16.2611C16.207 16.0733 16.511 16.0727 16.6988 16.2598ZM3.35993 17.5199C3.62503 17.5199 3.83993 17.7348 3.83993 17.9999C3.83993 18.265 3.62503 18.4799 3.35993 18.4799C3.09484 18.4799 2.87993 18.265 2.87993 17.9999C2.87993 17.7348 3.09484 17.5199 3.35993 17.5199ZM4.55993 17.5199C4.82503 17.5199 5.03993 17.7348 5.03993 17.9999C5.03993 18.265 4.82503 18.4799 4.55993 18.4799C4.29484 18.4799 4.07993 18.265 4.07993 17.9999C4.07993 17.7348 4.29484 17.5199 4.55993 17.5199ZM5.75993 17.5199C6.02503 17.5199 6.23993 17.7348 6.23993 17.9999C6.23993 18.265 6.02503 18.4799 5.75993 18.4799C5.49484 18.4799 5.27993 18.265 5.27993 17.9999C5.27993 17.7348 5.49484 17.5199 5.75993 17.5199ZM20.7199 16.7599C20.9408 16.7599 21.1199 16.939 21.1199 17.1599C21.1199 17.3638 20.9673 17.5321 20.7701 17.5568L20.7199 17.5599H19.7199C19.499 17.5599 19.3199 17.3808 19.3199 17.1599C19.3199 16.956 19.4725 16.7877 19.6698 16.763L19.7199 16.7599H20.7199ZM12.1999 16.7599C12.4208 16.7599 12.5999 16.939 12.5999 17.1599C12.5999 17.3638 12.4473 17.5321 12.2501 17.5568L12.1999 17.5599H11.1999C10.979 17.5599 10.7999 17.3808 10.7999 17.1599C10.7999 16.956 10.9525 16.7877 11.1498 16.763L11.1999 16.7599H12.1999ZM19.5383 13.5815C19.6815 13.7247 19.6934 13.9494 19.5741 14.1062L19.5383 14.1472L18.8312 14.8543C18.675 15.0105 18.4217 15.0105 18.2655 14.8543C18.1223 14.7111 18.1104 14.4864 18.2297 14.3296L18.2655 14.2886L18.9726 13.5815C19.1288 13.4253 19.3821 13.4253 19.5383 13.5815ZM12.9063 13.5457L12.9472 13.5815L13.6543 14.2886C13.8106 14.4448 13.8106 14.6981 13.6543 14.8543C13.5112 14.9975 13.2864 15.0094 13.1296 14.8901L13.0887 14.8543L12.3816 14.1472C12.2253 13.991 12.2253 13.7377 12.3816 13.5815C12.5247 13.4383 12.7495 13.4264 12.9063 13.5457ZM6.9601 11.9999C7.2252 11.9999 7.4401 12.2148 7.4401 12.4799C7.4401 12.745 7.2252 12.9599 6.9601 12.9599H5.1601C4.20784 12.9599 3.60649 13.4282 3.60649 14.2179C3.60649 14.483 3.39159 14.6979 3.12649 14.6979C2.8614 14.6979 2.64649 14.483 2.64649 14.2179C2.64649 12.8381 3.72276 11.9999 5.1601 11.9999H6.9601ZM15.9599 11.9999C16.1639 11.9999 16.3321 12.1525 16.3568 12.3497L16.3599 12.3999V13.3999C16.3599 13.6208 16.1808 13.7999 15.9599 13.7999C15.756 13.7999 15.5877 13.6473 15.563 13.4501L15.5599 13.3999V12.3999C15.5599 12.179 15.739 11.9999 15.9599 11.9999ZM5.7601 5.51988C7.35068 5.51988 8.6401 6.8093 8.6401 8.39988V9.59988C8.6401 9.97248 8.35708 10.279 7.9943 10.3161L7.4401 10.4547V11.0399C7.4401 11.305 7.2252 11.5199 6.9601 11.5199H4.5601C4.295 11.5199 4.0801 11.305 4.0801 11.0399V10.4547L3.5259 10.3161C3.16312 10.279 2.8801 9.97248 2.8801 9.59988V8.39988L2.88209 8.29191C2.93887 6.75136 4.20567 5.51988 5.7601 5.51988ZM17.5201 5.51988C19.1107 5.51988 20.4001 6.8093 20.4001 8.39988V9.59988C20.4001 9.97248 20.1171 10.279 19.7543 10.3161L19.2001 10.4547V11.0399C19.2001 11.305 18.9852 11.5199 18.7201 11.5199H16.3201C16.055 11.5199 15.8401 11.305 15.8401 11.0399V10.4547L15.2859 10.3161C14.9231 10.279 14.6401 9.97248 14.6401 9.59988V8.39988L14.6421 8.29191C14.6989 6.75136 15.9657 5.51988 17.5201 5.51988ZM17.5201 6.47988C16.4597 6.47988 15.6001 7.3395 15.6001 8.39988V9.40511L16.4365 9.61421C16.6502 9.66763 16.8001 9.85963 16.8001 10.0799V10.5599H18.2401V10.0799C18.2401 9.85963 18.39 9.66763 18.6037 9.61421L19.4401 9.40511V8.39988L19.4377 8.30406C19.3878 7.28819 18.5484 6.47988 17.5201 6.47988ZM5.7601 6.47988C4.69971 6.47988 3.8401 7.3395 3.8401 8.39988V9.40511L4.67652 9.61421C4.8902 9.66763 5.0401 9.85963 5.0401 10.0799V10.5599H6.4801V10.0799C6.4801 9.85963 6.63 9.66763 6.84368 9.61421L7.6801 9.40511V8.39988L7.67775 8.30406C7.62782 7.28819 6.78835 6.47988 5.7601 6.47988ZM11.6401 2.87988C13.2307 2.87988 14.5201 4.1693 14.5201 5.75988V6.95988C14.5201 7.33248 14.2371 7.63897 13.8743 7.67611L13.3201 7.81466V8.39988C13.3201 8.66498 13.1052 8.87988 12.8401 8.87988H10.4401C10.175 8.87988 9.9601 8.66498 9.9601 8.39988V7.81466L9.4059 7.67611C9.04312 7.63897 8.7601 7.33248 8.7601 6.95988V5.75988L8.76209 5.65191C8.81887 4.11136 10.0857 2.87988 11.6401 2.87988ZM4.8001 7.91988C5.0652 7.91988 5.2801 8.13479 5.2801 8.39988C5.2801 8.66498 5.0652 8.87988 4.8001 8.87988C4.535 8.87988 4.3201 8.66498 4.3201 8.39988C4.3201 8.13479 4.535 7.91988 4.8001 7.91988ZM6.7201 7.91988C6.9852 7.91988 7.2001 8.13479 7.2001 8.39988C7.2001 8.66498 6.9852 8.87988 6.7201 8.87988C6.455 8.87988 6.2401 8.66498 6.2401 8.39988C6.2401 8.13479 6.455 7.91988 6.7201 7.91988ZM16.5601 7.91988C16.8252 7.91988 17.0401 8.13479 17.0401 8.39988C17.0401 8.66498 16.8252 8.87988 16.5601 8.87988C16.295 8.87988 16.0801 8.66498 16.0801 8.39988C16.0801 8.13479 16.295 7.91988 16.5601 7.91988ZM18.4801 7.91988C18.7452 7.91988 18.9601 8.13479 18.9601 8.39988C18.9601 8.66498 18.7452 8.87988 18.4801 8.87988C18.215 8.87988 18.0001 8.66498 18.0001 8.39988C18.0001 8.13479 18.215 7.91988 18.4801 7.91988ZM11.6401 3.83988C10.5797 3.83988 9.7201 4.6995 9.7201 5.75988V6.76511L10.5565 6.97421C10.7702 7.02763 10.9201 7.21963 10.9201 7.43988V7.91988H12.3601V7.43988C12.3601 7.21963 12.51 7.02763 12.7237 6.97421L13.5601 6.76511V5.75988L13.5578 5.66406C13.5078 4.64819 12.6684 3.83988 11.6401 3.83988ZM10.6801 5.27988C10.9452 5.27988 11.1601 5.49479 11.1601 5.75988C11.1601 6.02498 10.9452 6.23988 10.6801 6.23988C10.415 6.23988 10.2001 6.02498 10.2001 5.75988C10.2001 5.49479 10.415 5.27988 10.6801 5.27988ZM12.6001 5.27988C12.8652 5.27988 13.0801 5.49479 13.0801 5.75988C13.0801 6.02498 12.8652 6.23988 12.6001 6.23988C12.335 6.23988 12.1201 6.02498 12.1201 5.75988C12.1201 5.49479 12.335 5.27988 12.6001 5.27988Z" fill="black" fill-opacity="0.45"/>
</svg>
