<svg width="24" height="24" viewBox="0 0 24 24" fill="none" xmlns="http://www.w3.org/2000/svg">
<path fill-rule="evenodd" clip-rule="evenodd" d="M12 3.3599C11.0284 3.3599 9.96049 4.11253 9.12818 5.52501C8.18624 7.12355 7.62195 9.4084 7.56483 12.2399H9.12003C9.38513 12.2399 9.60003 12.4548 9.60003 12.7199C9.60003 12.985 9.38513 13.1999 9.12003 13.1999H7.08003C6.81494 13.1999 6.60003 12.985 6.60003 12.7199C6.60003 9.50486 7.21259 6.88491 8.30109 5.03765C9.29192 3.35615 10.6487 2.3999 12 2.3999C13.3574 2.3999 14.7114 3.33001 15.6979 4.9874C16.7889 6.82049 17.4 9.44705 17.4 12.7199C17.4 12.985 17.1851 13.1999 16.92 13.1999H14.88C14.6149 13.1999 14.4 12.985 14.4 12.7199C14.4 12.4548 14.6149 12.2399 14.88 12.2399H16.4354C16.3794 9.35533 15.8162 7.06323 14.873 5.47839C14.0466 4.0899 12.9838 3.3599 12 3.3599ZM12 5.5199C13.5906 5.5199 14.88 6.80932 14.88 8.3999V9.5999C14.88 9.9725 14.597 10.279 14.2342 10.3161L13.68 10.4547V11.0399C13.68 11.305 13.4651 11.5199 13.2 11.5199H10.8C10.5349 11.5199 10.32 11.305 10.32 11.0399V10.4547L9.76584 10.3161C9.40305 10.279 9.12003 9.9725 9.12003 9.5999V8.3999C9.12003 6.80932 10.4095 5.5199 12 5.5199ZM10.08 8.3999V9.40513L10.9164 9.61423C11.1301 9.66765 11.28 9.85965 11.28 10.0799V10.5599H12.72V10.0799C12.72 9.85965 12.8699 9.66765 13.0836 9.61423L13.92 9.40513V8.3999C13.92 7.33952 13.0604 6.4799 12 6.4799C10.9396 6.4799 10.08 7.33952 10.08 8.3999ZM14.1303 9.36173C14.14 9.36052 14.15 9.3599 14.16 9.3599C14.1464 9.3599 14.1329 9.36048 14.1193 9.36163L14.1303 9.36173ZM11.52 8.3999C11.52 8.665 11.3051 8.8799 11.04 8.8799C10.7749 8.8799 10.56 8.665 10.56 8.3999C10.56 8.13481 10.7749 7.9199 11.04 7.9199C11.3051 7.9199 11.52 8.13481 11.52 8.3999ZM12.96 8.8799C13.2251 8.8799 13.44 8.665 13.44 8.3999C13.44 8.13481 13.2251 7.9199 12.96 7.9199C12.6949 7.9199 12.48 8.13481 12.48 8.3999C12.48 8.665 12.6949 8.8799 12.96 8.8799ZM4.08003 16.2719C4.08003 17.1772 4.76873 18.3578 6.1278 19.9408C6.37858 20.2329 6.82149 20.2329 7.07227 19.9408C8.43133 18.3578 9.12003 17.1772 9.12003 16.2719C9.12003 14.8332 7.99469 13.6799 6.60003 13.6799C5.20537 13.6799 4.08003 14.8332 4.08003 16.2719ZM6.60003 14.6399C7.46731 14.6399 8.16003 15.3808 8.16003 16.3103C8.16003 16.8298 7.67515 17.7984 6.60003 19.1999C5.52492 17.7984 5.04003 16.8298 5.04003 16.3103C5.04003 15.3808 5.73275 14.6399 6.60003 14.6399ZM6.12003 16.4399V15.5999C6.12003 15.3348 6.33494 15.1199 6.60003 15.1199C6.86513 15.1199 7.08003 15.3348 7.08003 15.5999V16.4399C7.08003 16.705 6.86513 16.9199 6.60003 16.9199C6.33494 16.9199 6.12003 16.705 6.12003 16.4399ZM7.08003 17.7599C7.08003 18.025 6.86513 18.2399 6.60003 18.2399C6.33494 18.2399 6.12003 18.025 6.12003 17.7599C6.12003 17.4948 6.33494 17.2799 6.60003 17.2799C6.86513 17.2799 7.08003 17.4948 7.08003 17.7599ZM11.5278 18.2608C10.1687 16.6778 9.48003 15.4972 9.48003 14.5919C9.48003 13.1532 10.6054 11.9999 12 11.9999C13.3947 11.9999 14.52 13.1532 14.52 14.5919C14.52 15.4972 13.8313 16.6778 12.4723 18.2608C12.2215 18.5529 11.7786 18.5529 11.5278 18.2608ZM13.56 14.6303C13.56 13.7008 12.8673 12.9599 12 12.9599C11.1328 12.9599 10.44 13.7008 10.44 14.6303C10.44 15.1498 10.9249 16.1184 12 17.5199C13.0751 16.1184 13.56 15.1498 13.56 14.6303ZM11.52 13.9199V14.7599C11.52 15.025 11.7349 15.2399 12 15.2399C12.2651 15.2399 12.48 15.025 12.48 14.7599V13.9199C12.48 13.6548 12.2651 13.4399 12 13.4399C11.7349 13.4399 11.52 13.6548 11.52 13.9199ZM12 16.5599C12.2651 16.5599 12.48 16.345 12.48 16.0799C12.48 15.8148 12.2651 15.5999 12 15.5999C11.7349 15.5999 11.52 15.8148 11.52 16.0799C11.52 16.345 11.7349 16.5599 12 16.5599ZM14.88 16.2719C14.88 17.1772 15.5687 18.3578 16.9278 19.9408C17.1786 20.2329 17.6215 20.2329 17.8723 19.9408C19.2313 18.3578 19.92 17.1772 19.92 16.2719C19.92 14.8332 18.7947 13.6799 17.4 13.6799C16.0054 13.6799 14.88 14.8332 14.88 16.2719ZM17.4 14.6399C18.2673 14.6399 18.96 15.3808 18.96 16.3103C18.96 16.8298 18.4751 17.7984 17.4 19.1999C16.3249 17.7984 15.84 16.8298 15.84 16.3103C15.84 15.3808 16.5328 14.6399 17.4 14.6399ZM16.92 16.4399V15.5999C16.92 15.3348 17.1349 15.1199 17.4 15.1199C17.6651 15.1199 17.88 15.3348 17.88 15.5999V16.4399C17.88 16.705 17.6651 16.9199 17.4 16.9199C17.1349 16.9199 16.92 16.705 16.92 16.4399ZM17.88 17.7599C17.88 18.025 17.6651 18.2399 17.4 18.2399C17.1349 18.2399 16.92 18.025 16.92 17.7599C16.92 17.4948 17.1349 17.2799 17.4 17.2799C17.6651 17.2799 17.88 17.4948 17.88 17.7599ZM4.30616 18.3933L3.54848 20.6399H10.7997H13.2H20.4512L19.6935 18.3933C19.6088 18.1421 19.7438 17.8698 19.995 17.7851C20.2462 17.7004 20.5185 17.8353 20.6032 18.0865L21.5745 20.9665C21.6794 21.2776 21.448 21.5999 21.1197 21.5999H13.2H10.7997H2.88003C2.55169 21.5999 2.32027 21.2776 2.4252 20.9665L3.3965 18.0865C3.48121 17.8353 3.75352 17.7004 4.00472 17.7851C4.25592 17.8698 4.39087 18.1421 4.30616 18.3933Z" fill="black" fill-opacity="0.45"/>
</svg>
