<svg width="24" height="24" viewBox="0 0 24 24" fill="none" xmlns="http://www.w3.org/2000/svg">
<path fill-rule="evenodd" clip-rule="evenodd" d="M15.0914 14.8799C16.4455 14.8799 17.52 16.0825 17.52 17.5407V19.5233C17.52 19.9961 17.1593 20.3999 16.6857 20.3999H10.3862C10.1211 20.3999 9.9062 20.185 9.9062 19.9199C9.9062 19.6548 10.1211 19.4399 10.3862 19.4399H16.56V17.5407C16.56 16.5901 15.8897 15.8399 15.0914 15.8399H10.56C10.2949 15.8399 10.08 15.625 10.08 15.3599C10.08 15.0948 10.2949 14.8799 10.56 14.8799H15.0914ZM8.64001 19.4399C8.90511 19.4399 9.12002 19.6548 9.12002 19.9199C9.12002 20.166 8.93472 20.3689 8.69599 20.3966L8.64001 20.3999H4.32001C4.05492 20.3999 3.84001 20.185 3.84001 19.9199C3.84001 19.6737 4.02531 19.4708 4.26404 19.4431L4.32001 19.4399H8.64001ZM4.80001 15.3599C5.06511 15.3599 5.28001 15.5748 5.28001 15.8399V18.4799C5.28001 18.745 5.06511 18.9599 4.80001 18.9599C4.53492 18.9599 4.32001 18.745 4.32001 18.4799V15.8399C4.32001 15.5748 4.53492 15.3599 4.80001 15.3599ZM6.48001 14.6399C6.74511 14.6399 6.96001 14.8548 6.96001 15.1199V18.4799C6.96001 18.726 6.77472 18.9289 6.53599 18.9566L6.48001 18.9599C6.21492 18.9599 6.00001 18.745 6.00001 18.4799V15.1199C6.00001 14.8737 6.18531 14.6708 6.42404 14.6431L6.48001 14.6399ZM8.16002 16.0799C8.42511 16.0799 8.64001 16.2948 8.64001 16.5599V18.4799C8.64001 18.745 8.42511 18.9599 8.16002 18.9599C7.89492 18.9599 7.68001 18.745 7.68001 18.4799V16.5599C7.68001 16.2948 7.89492 16.0799 8.16002 16.0799ZM5.67694 9.59986C5.94203 9.59986 6.15694 9.81477 6.15694 10.0799C6.15694 10.345 5.94203 10.5599 5.67694 10.5599H5.04925C4.24171 10.5599 3.60001 11.1586 3.60001 11.8799V13.1999H5.28001C5.54511 13.1999 5.76001 13.4148 5.76001 13.6799C5.76001 13.945 5.54511 14.1599 5.28001 14.1599H3.52617C3.04391 14.1599 2.64001 13.783 2.64001 13.3009V11.8799C2.64001 10.6129 3.72582 9.59986 5.04925 9.59986H5.67694ZM18.9081 9.59986C20.253 9.59986 21.36 10.6104 21.36 11.8799V13.3009C21.36 13.7856 20.95 14.1599 20.4649 14.1599H18.6723C18.4072 14.1599 18.1923 13.945 18.1923 13.6799C18.1923 13.4148 18.4072 13.1999 18.6723 13.1999H20.4V11.8799C20.4 11.1611 19.7414 10.5599 18.9081 10.5599H18.24C17.9749 10.5599 17.76 10.345 17.76 10.0799C17.76 9.81477 17.9749 9.59986 18.24 9.59986H18.9081ZM12 3.35986C13.3579 3.35986 14.7115 4.28428 15.6975 5.93467C16.789 7.76173 17.4 10.3831 17.4 13.6558C17.4 13.9209 17.1851 14.1358 16.92 14.1358H7.08001C6.81492 14.1358 6.60001 13.9209 6.60001 13.6558C6.60001 10.4409 7.21248 7.82617 8.30147 5.98492C9.29183 4.31046 10.6483 3.35986 12 3.35986ZM12 4.31986C11.0265 4.31986 9.95924 5.0678 9.12777 6.47363C8.18596 8.06602 7.62192 10.3454 7.56482 13.1758H16.4354C16.3794 10.2924 15.8165 8.0057 14.8733 6.42702C14.0478 5.04517 12.9857 4.31986 12 4.31986ZM12 6.23986C13.5906 6.23986 14.88 7.52928 14.88 9.11986V10.3199C14.88 10.6925 14.597 10.9989 14.2342 11.0361L13.68 11.1746V11.7599C13.68 12.025 13.4651 12.2399 13.2 12.2399H10.8C10.5349 12.2399 10.32 12.025 10.32 11.7599V11.1746L9.76582 11.0361C9.40303 10.9989 9.12002 10.6925 9.12002 10.3199V9.11986C9.12002 7.52928 10.4094 6.23986 12 6.23986ZM12 7.19986C10.9396 7.19986 10.08 8.05948 10.08 9.11986V10.1251L10.9164 10.3342C11.1301 10.3876 11.28 10.5796 11.28 10.7999V11.2799H12.72V10.7999C12.72 10.5796 12.8699 10.3876 13.0836 10.3342L13.92 10.1251V9.11986C13.92 8.05948 13.0604 7.19986 12 7.19986ZM11.04 8.63986C11.3051 8.63986 11.52 8.85477 11.52 9.11986C11.52 9.38496 11.3051 9.59986 11.04 9.59986C10.7749 9.59986 10.56 9.38496 10.56 9.11986C10.56 8.85477 10.7749 8.63986 11.04 8.63986ZM12.96 8.63986C13.2251 8.63986 13.44 8.85477 13.44 9.11986C13.44 9.38496 13.2251 9.59986 12.96 9.59986C12.6949 9.59986 12.48 9.38496 12.48 9.11986C12.48 8.85477 12.6949 8.63986 12.96 8.63986ZM6.00001 3.35986C6.77963 3.35986 7.53298 3.89118 8.05755 4.81193C8.18878 5.04227 8.10843 5.33538 7.87809 5.4666C7.64776 5.59783 7.35465 5.51749 7.22342 5.28715C6.85654 4.64317 6.39812 4.31986 6.00001 4.31986C5.1014 4.31986 4.19749 5.759 4.09055 8.15986H6.24001C6.50511 8.15986 6.72001 8.37477 6.72001 8.63986C6.72001 8.90496 6.50511 9.11986 6.24001 9.11986H3.60001C3.33492 9.11986 3.12001 8.90496 3.12001 8.63986C3.12001 5.49143 4.37764 3.35986 6.00001 3.35986ZM18 3.35986C19.6353 3.35986 20.88 5.44845 20.88 8.63986C20.88 8.90496 20.6651 9.11986 20.4 9.11986H17.76C17.4949 9.11986 17.28 8.90496 17.28 8.63986C17.28 8.37477 17.4949 8.15986 17.76 8.15986H19.9099C19.806 5.72403 18.9142 4.31986 18 4.31986C17.6149 4.31986 17.1594 4.64546 16.7912 5.28576C16.6591 5.51558 16.3657 5.59478 16.1359 5.46265C15.9061 5.33052 15.8269 5.0371 15.959 4.80728C16.4843 3.89347 17.2309 3.35986 18 3.35986Z" fill="black" fill-opacity="0.45"/>
</svg>
