<svg width="24" height="24" viewBox="0 0 24 24" fill="none" xmlns="http://www.w3.org/2000/svg">
<path fill-rule="evenodd" clip-rule="evenodd" d="M19.6801 4.6799C19.6801 5.93911 18.6593 6.9599 17.4001 6.9599C16.1408 6.9599 15.1201 5.93911 15.1201 4.6799C15.1201 3.42069 16.1408 2.3999 17.4001 2.3999C18.6593 2.3999 19.6801 3.42069 19.6801 4.6799ZM16.0801 4.6799C16.0801 5.40892 16.671 5.9999 17.4001 5.9999C18.1291 5.9999 18.7201 5.40892 18.7201 4.6799C18.7201 3.95089 18.1291 3.3599 17.4001 3.3599C16.671 3.3599 16.0801 3.95089 16.0801 4.6799ZM12.4564 3.45144L9.59703 2.73765C9.33983 2.67345 9.07928 2.8299 9.01507 3.0871C8.95086 3.34431 9.10732 3.60486 9.36452 3.66907L9.94746 3.81459C7.72574 4.38824 5.80259 5.83266 4.63147 7.85382C4.49856 8.0832 4.57676 8.37688 4.80614 8.50979C5.03551 8.6427 5.3292 8.56449 5.4621 8.33512C6.87379 5.89877 9.5132 4.4056 12.3776 4.50562C12.6425 4.51487 12.8648 4.3076 12.874 4.04267C12.8777 3.93802 12.8475 3.84003 12.7934 3.7592C12.7419 3.61165 12.6193 3.49212 12.4564 3.45144ZM12.8328 20.0601C12.9022 19.9281 13.032 19.8303 13.191 19.8079C16.0277 19.4093 18.3668 17.4823 19.3349 14.8397C19.4261 14.5908 19.7018 14.463 19.9507 14.5542C20.1997 14.6454 20.3275 14.9211 20.2363 15.17C19.4421 17.3379 17.8267 19.0782 15.7721 20.0352L16.198 20.0651C16.4625 20.0837 16.6618 20.3131 16.6432 20.5775C16.6247 20.842 16.3952 21.0413 16.1308 21.0227L13.191 20.8163C12.9265 20.7978 12.7272 20.5683 12.7458 20.3039C12.7521 20.2128 12.7836 20.1295 12.8328 20.0601ZM3.35171 16.8976C3.35171 17.1664 3.35171 17.4352 3.35809 17.7073C3.37084 18.4198 3.39633 19.1194 3.42183 19.8061C3.43458 20.104 3.57482 20.389 3.79156 20.5834C3.97005 20.7518 4.21228 20.8554 4.45451 20.8554C4.77414 20.8804 5.10562 20.8934 5.42609 20.9059H5.42613L5.42618 20.9059L5.4617 20.9073C5.67843 20.9202 5.89517 20.9202 6.1119 20.9202H7.08084C7.18471 20.917 7.28781 20.9146 7.39052 20.9122L7.39076 20.9122C7.70395 20.9049 8.01349 20.8977 8.33025 20.8684C8.36213 20.8684 8.39081 20.8652 8.4195 20.8619C8.44818 20.8587 8.47687 20.8554 8.50874 20.8554C8.76373 20.8425 9.00596 20.7259 9.18445 20.5445C9.38843 20.3243 9.51592 20.0263 9.51592 19.7283C9.55417 18.8992 9.57967 18.0571 9.57967 17.2279C9.58817 17.0725 9.58534 16.917 9.5825 16.7615V16.7615C9.58109 16.6838 9.57967 16.6061 9.57967 16.5283C9.56692 15.6603 9.55417 14.7923 9.50318 13.9243C9.47768 13.6911 9.40118 13.4708 9.26094 13.2895C9.2227 13.2376 9.18445 13.1988 9.14621 13.1599L9.1462 13.1599C8.91778 12.9084 8.69251 12.6602 8.46726 12.4119L8.46625 12.4108L8.46534 12.4098L8.46381 12.4081C8.23762 12.1589 8.01142 11.9096 7.78204 11.6571C7.5908 11.4498 7.31032 11.3202 7.02984 11.3202H4.59475C4.55651 11.3267 4.51507 11.3267 4.47364 11.3267C4.4322 11.3267 4.39077 11.3267 4.35252 11.3332C4.19953 11.3591 4.04654 11.4109 3.9063 11.5016C3.70231 11.6441 3.54932 11.8514 3.47283 12.0846C3.43458 12.2142 3.40908 12.3437 3.40908 12.4733C3.37115 13.2313 3.3583 14.002 3.34566 14.7602L3.34534 14.7793V15.4012V16.0878C3.35171 16.3599 3.35171 16.6287 3.35171 16.8976ZM4.17606 19.3746C4.1415 18.718 4.12998 18.0613 4.11846 17.4047C4.10694 16.5292 4.11846 15.6537 4.12998 14.7781C4.1415 14.1676 4.15302 13.5685 4.17606 12.958C4.17606 12.9004 4.17606 12.8543 4.18758 12.8082C4.21062 12.6815 4.26822 12.5548 4.36038 12.4741C4.44102 12.3935 4.55622 12.3474 4.67142 12.3474H6.99846C7.12518 12.3474 7.24038 12.405 7.33254 12.4972L8.61126 13.8796C8.70342 13.9717 8.7495 14.0869 8.76102 14.2137C8.79558 14.8703 8.8071 15.5269 8.81862 16.1836C8.83014 17.2434 8.81862 18.2917 8.76102 19.3401C8.76102 19.4783 8.70342 19.6281 8.59974 19.7317C8.5191 19.8239 8.38086 19.8815 8.25414 19.8815C7.86246 19.9161 7.4823 19.9276 7.09062 19.9391H6.19206C5.70822 19.9276 5.22438 19.9161 4.75206 19.8815C4.69446 19.8815 4.63686 19.8815 4.57926 19.87C4.47558 19.8469 4.39494 19.7893 4.32582 19.7202C4.23366 19.6281 4.18758 19.5013 4.17606 19.3746ZM4.82336 18.5191C4.82637 18.5332 4.82938 18.5474 4.82938 18.5588C4.85347 18.6837 4.91368 18.7972 5.01003 18.8994C5.11841 18.9902 5.26293 19.0583 5.41949 19.0583H7.56314C7.74379 19.0583 7.91239 18.9788 8.03282 18.854C8.11712 18.7518 8.17734 18.6156 8.17734 18.4793V15.8001C8.17734 15.6639 8.12916 15.5277 8.03282 15.4255C7.94852 15.3233 7.81605 15.2552 7.68357 15.2325C7.62035 15.2155 7.55712 15.2176 7.4939 15.2197C7.47282 15.2204 7.45175 15.2211 7.43067 15.2211H5.43153C5.26293 15.2211 5.09433 15.2893 4.98594 15.4028C4.87755 15.505 4.81734 15.6412 4.81734 15.7888V18.4793C4.81734 18.4907 4.82035 18.5049 4.82336 18.5191ZM6.0034 18.5567H5.53657C5.41715 18.5567 5.30859 18.4538 5.29773 18.3407V15.9647C5.29773 15.9236 5.29773 15.8824 5.30859 15.8413C5.34116 15.759 5.43887 15.687 5.53657 15.687H6.83933V16.4996C6.83933 16.551 6.8719 16.5921 6.91533 16.623C6.95875 16.6436 7.02389 16.6538 7.06732 16.6333C7.11074 16.6127 7.14331 16.5716 7.15417 16.5304C7.16502 16.4996 7.16502 16.479 7.16502 16.4481V15.6767H7.469C7.58842 15.687 7.69698 15.7898 7.69698 15.903V18.3304C7.70784 18.4538 7.59928 18.5464 7.47986 18.5567H7.17588V17.7133C7.17588 17.6824 7.17588 17.6618 7.16502 17.631C7.15417 17.5796 7.11074 17.5384 7.06732 17.5281C7.01304 17.5178 6.9479 17.5281 6.90447 17.559C6.8719 17.5796 6.85019 17.631 6.85019 17.6721V18.5567H6.32909V17.6721C6.32909 17.6104 6.29652 17.559 6.24224 17.5384C6.18795 17.5076 6.12282 17.5178 6.06853 17.5487C6.02511 17.5693 6.0034 17.6207 6.0034 17.6721V18.5567ZM13.9201 9.9599C13.9201 8.56814 15.0483 7.4399 16.4401 7.4399H18.3601C19.7518 7.4399 20.8801 8.56814 20.8801 9.9599V11.9999C20.8801 12.265 20.6652 12.4799 20.4001 12.4799H14.4001C14.135 12.4799 13.9201 12.265 13.9201 11.9999V9.9599ZM19.9201 11.5199V9.9599C19.9201 9.09834 19.2216 8.3999 18.3601 8.3999H16.4401C15.5785 8.3999 14.8801 9.09834 14.8801 9.9599V11.5199H19.9201Z" fill="black" fill-opacity="0.45"/>
</svg>
