<svg width="24" height="24" viewBox="0 0 24 24" fill="none" xmlns="http://www.w3.org/2000/svg">
<path fill-rule="evenodd" clip-rule="evenodd" d="M18.48 3.60014H20.4V5.28014C20.4 5.54523 20.6149 5.76014 20.88 5.76014C21.1451 5.76014 21.36 5.54523 21.36 5.28014V3.60014C21.36 3.06994 20.9302 2.64014 20.4 2.64014H18.48C18.2149 2.64014 18 2.85504 18 3.12014C18 3.38523 18.2149 3.60014 18.48 3.60014ZM14.1959 12.9601C14.4358 12.9601 14.6302 12.7648 14.6302 12.5238V11.0941C14.6618 11.0666 14.7212 11.035 14.8 11.0068C14.8752 10.9799 14.9599 10.9587 15.0453 10.9435C15.0963 10.9344 15.134 10.9297 15.1507 10.9282L15.1943 10.9221C15.974 10.7724 16.56 10.4519 16.56 9.78452V7.92381C16.56 5.40309 14.5179 3.36014 12 3.36014C9.48217 3.36014 7.44006 5.40309 7.44006 7.92381V9.78452C7.43537 10.2924 7.79245 10.6034 8.31476 10.7803C8.57304 10.8677 8.82239 10.9083 9.00026 10.9216C9.02 10.9228 9.04922 10.9258 9.08982 10.9324C9.15816 10.9436 9.2258 10.9607 9.28457 10.9833C9.38898 11.0234 9.41264 11.0482 9.41264 11.0687V12.5238C9.41264 12.7648 9.60708 12.9601 9.84693 12.9601H14.1959ZM14.5567 10.1846C14.1129 10.3421 13.68 10.5886 13.68 11.0401V12.0001H13.2V11.7601C13.2 11.495 12.9851 11.2801 12.72 11.2801C12.4549 11.2801 12.24 11.495 12.24 11.7601V12.0001H11.76V11.7601C11.76 11.495 11.5451 11.2801 11.28 11.2801C11.0149 11.2801 10.8 11.495 10.8 11.7601V12.0001H10.32V11.0401C10.32 10.5896 10.0126 10.3237 9.60487 10.1682C9.40032 10.0901 9.20572 10.0585 9.06159 10.0508C9.04604 10.0495 8.99448 10.0437 8.92579 10.0326C8.81101 10.0141 8.69686 9.9877 8.59431 9.95324C8.39837 9.88741 8.39902 9.86921 8.3999 9.84454L8.40001 9.84014V7.92381C8.40001 5.88594 9.94521 4.32014 12 4.32014C14.0548 4.32014 15.6 5.88594 15.6 7.92381V9.78452C15.6 9.79344 15.4728 9.89206 15.36 9.95324C15.319 9.97549 15.2966 9.99075 15.2796 10.0023C15.242 10.028 15.2308 10.0356 15.1028 10.0611C14.9558 10.0759 14.7602 10.1123 14.5567 10.1846ZM10.2 6.72014C10.929 6.72014 11.52 7.31113 11.52 8.04014C11.52 8.76914 10.929 9.36014 10.2 9.36014C9.47101 9.36014 8.88001 8.76914 8.88001 8.04014C8.88001 7.31113 9.47101 6.72014 10.2 6.72014ZM10.2 8.40014C10.3988 8.40014 10.56 8.23895 10.56 8.04014C10.56 7.84133 10.3988 7.68014 10.2 7.68014C10.0012 7.68014 9.84001 7.84133 9.84001 8.04014C9.84001 8.23895 10.0012 8.40014 10.2 8.40014ZM15.12 8.04014C15.12 7.31113 14.529 6.72014 13.8 6.72014C13.071 6.72014 12.48 7.31113 12.48 8.04014C12.48 8.76914 13.071 9.36014 13.8 9.36014C14.529 9.36014 15.12 8.76914 15.12 8.04014ZM14.16 8.04014C14.16 8.23895 13.9988 8.40014 13.8 8.40014C13.6012 8.40014 13.44 8.23895 13.44 8.04014C13.44 7.84133 13.6012 7.68014 13.8 7.68014C13.9988 7.68014 14.16 7.84133 14.16 8.04014ZM7.20001 18.9601V17.7601C7.20001 16.1696 8.48947 14.8801 10.0801 14.8801H12H13.9199C15.5106 14.8801 16.8 16.1696 16.8 17.7601V18.9601H12H7.20001ZM12 19.9201H6.72001C6.45492 19.9201 6.24001 19.7052 6.24001 19.4401V17.7601C6.24001 15.6394 7.95928 13.9201 10.0801 13.9201H12H13.9199C16.0408 13.9201 17.76 15.6394 17.76 17.7601V19.4401C17.76 19.7052 17.5451 19.9201 17.28 19.9201H12ZM20.4 20.4001H18.48C18.2149 20.4001 18 20.615 18 20.8801C18 21.1452 18.2149 21.3601 18.48 21.3601H20.4C20.9302 21.3601 21.36 20.9303 21.36 20.4001V18.7201C21.36 18.455 21.1451 18.2401 20.88 18.2401C20.6149 18.2401 20.4 18.455 20.4 18.7201V20.4001ZM5.52001 20.4001H3.60001V18.7201C3.60001 18.455 3.38511 18.2401 3.12001 18.2401C2.85492 18.2401 2.64001 18.455 2.64001 18.7201V20.4001C2.64001 20.9303 3.06982 21.3601 3.60001 21.3601H5.52001C5.78511 21.3601 6.00001 21.1452 6.00001 20.8801C6.00001 20.615 5.78511 20.4001 5.52001 20.4001ZM3.60001 3.60014H5.52001C5.78511 3.60014 6.00001 3.38523 6.00001 3.12014C6.00001 2.85504 5.78511 2.64014 5.52001 2.64014H3.60001C3.06982 2.64014 2.64001 3.06994 2.64001 3.60014V5.28014C2.64001 5.54523 2.85492 5.76014 3.12001 5.76014C3.38511 5.76014 3.60001 5.54523 3.60001 5.28014V3.60014Z" fill="black" fill-opacity="0.45"/>
</svg>
