<svg width="24" height="24" viewBox="0 0 24 24" fill="none" xmlns="http://www.w3.org/2000/svg">
<path fill-rule="evenodd" clip-rule="evenodd" d="M12.4563 3.45133L9.59697 2.73755C9.33977 2.67334 9.07922 2.8298 9.01501 3.087C8.9508 3.3442 9.10726 3.60476 9.36446 3.66897L9.9474 3.81449C7.72567 4.38813 5.80253 5.83256 4.6314 7.85372C4.4985 8.08309 4.5767 8.37678 4.80608 8.50969C5.03545 8.64259 5.32913 8.56439 5.46204 8.33502C6.87373 5.89866 9.51313 4.40549 12.3775 4.50552C12.6424 4.51477 12.8647 4.3075 12.874 4.04256C12.8776 3.93792 12.8475 3.83993 12.7934 3.7591C12.7418 3.61154 12.6193 3.49202 12.4563 3.45133ZM12.8327 20.06C12.9022 19.928 13.0319 19.8302 13.1909 19.8078C16.0276 19.4092 18.3667 17.4822 19.3349 14.8396C19.4261 14.5907 19.7018 14.4629 19.9507 14.5541C20.1996 14.6452 20.3275 14.921 20.2363 15.1699C19.442 17.3378 17.8266 19.0781 15.772 20.0351L16.198 20.065C16.4624 20.0836 16.6617 20.313 16.6432 20.5774C16.6246 20.8419 16.3952 21.0412 16.1307 21.0226L13.1909 20.8162C12.9264 20.7976 12.7271 20.5682 12.7457 20.3038C12.7521 20.2127 12.7835 20.1294 12.8327 20.06ZM6.6 15.1198C7.8592 15.1198 8.88 14.099 8.88 12.8398C8.88 11.5806 7.8592 10.5598 6.6 10.5598C5.34079 10.5598 4.32 11.5806 4.32 12.8398C4.32 14.099 5.34079 15.1198 6.6 15.1198ZM6.6 14.1598C5.87098 14.1598 5.28 13.5688 5.28 12.8398C5.28 12.1108 5.87098 11.5198 6.6 11.5198C7.32901 11.5198 7.92 12.1108 7.92 12.8398C7.92 13.5688 7.32901 14.1598 6.6 14.1598ZM5.64 15.5998C4.24824 15.5998 3.12 16.728 3.12 18.1198V20.1598C3.12 20.4249 3.3349 20.6398 3.6 20.6398H9.6C9.86509 20.6398 10.08 20.4249 10.08 20.1598V18.1198C10.08 16.728 8.95175 15.5998 7.56 15.5998H5.64ZM9.12 18.1198V19.6798H4.08V18.1198C4.08 17.2582 4.77843 16.5598 5.64 16.5598H7.56C8.42156 16.5598 9.12 17.2582 9.12 18.1198ZM15.1116 8.49745C15.1116 8.76627 15.1116 9.0351 15.118 9.30716C15.1308 10.0197 15.1563 10.7193 15.1818 11.4059C15.1945 11.7039 15.3348 11.9889 15.5515 12.1833C15.73 12.3517 15.9722 12.4553 16.2145 12.4553C16.5341 12.4803 16.8656 12.4933 17.186 12.5058L17.1861 12.5058L17.1861 12.5058L17.2216 12.5072C17.4384 12.5201 17.6551 12.5201 17.8718 12.5201H18.8408C18.9447 12.5169 19.0478 12.5145 19.1505 12.5121L19.1507 12.5121C19.4639 12.5048 19.7734 12.4976 20.0902 12.4683C20.1221 12.4683 20.1508 12.4651 20.1794 12.4618C20.2081 12.4586 20.2368 12.4553 20.2687 12.4553C20.5237 12.4424 20.7659 12.3258 20.9444 12.1444C21.1484 11.9242 21.2759 11.6262 21.2759 11.3282C21.3141 10.4991 21.3396 9.65696 21.3396 8.82781C21.3481 8.67235 21.3453 8.51689 21.3424 8.36143V8.36141L21.3424 8.3611C21.341 8.28347 21.3396 8.20585 21.3396 8.12822V8.12818V8.12805C21.3269 7.26009 21.3141 6.39213 21.2631 5.52417C21.2376 5.29097 21.1611 5.07073 21.0209 4.88935C20.9826 4.83753 20.9444 4.79866 20.9061 4.75979C20.6772 4.50774 20.4514 4.25891 20.2256 4.01008L20.2253 4.00973L20.2237 4.00803C19.9976 3.75876 19.7714 3.50948 19.542 3.25696C19.3507 3.04967 19.0703 2.92012 18.7898 2.92012H16.3547C16.3164 2.9266 16.275 2.9266 16.2336 2.9266C16.1921 2.9266 16.1507 2.9266 16.1125 2.93307C15.9595 2.95899 15.8065 3.01081 15.6662 3.1015C15.4623 3.24401 15.3093 3.45129 15.2328 3.68449C15.1945 3.81405 15.169 3.9436 15.169 4.07315C15.1311 4.83116 15.1182 5.6019 15.1056 6.36012L15.1053 6.37923V7.00109V7.68773C15.1116 7.95979 15.1116 8.22862 15.1116 8.49745ZM15.936 10.9745C15.9014 10.3179 15.8899 9.66124 15.8784 9.0046C15.8669 8.12908 15.8784 7.25356 15.8899 6.37804C15.9014 5.76748 15.913 5.16844 15.936 4.55788C15.936 4.50028 15.936 4.4542 15.9475 4.40812C15.9706 4.2814 16.0282 4.15468 16.1203 4.07404C16.201 3.9934 16.3162 3.94732 16.4314 3.94732H18.7584C18.8851 3.94732 19.0003 4.00492 19.0925 4.09708L20.3712 5.47948C20.4634 5.57164 20.5094 5.68684 20.521 5.81356C20.5555 6.47019 20.567 7.12681 20.5786 7.78344L20.5786 7.78348C20.5901 8.84332 20.5786 9.89164 20.521 10.94C20.521 11.0782 20.4634 11.228 20.3597 11.3316C20.279 11.4238 20.1408 11.4814 20.0141 11.4814C19.6224 11.516 19.2422 11.5275 18.8506 11.539H17.952C17.4682 11.5275 16.9843 11.516 16.512 11.4814C16.4544 11.4814 16.3968 11.4814 16.3392 11.4699C16.2355 11.4468 16.1549 11.3892 16.0858 11.3201C15.9936 11.228 15.9475 11.1012 15.936 10.9745ZM16.5833 10.119C16.5863 10.1331 16.5893 10.1473 16.5893 10.1587C16.6134 10.2836 16.6736 10.3971 16.77 10.4993C16.8784 10.5901 17.0229 10.6582 17.1794 10.6582H19.3231C19.5037 10.6582 19.6723 10.5787 19.7928 10.4539C19.8771 10.3517 19.9373 10.2154 19.9373 10.0792V7.40002C19.9373 7.26379 19.8891 7.12756 19.7928 7.02538C19.7085 6.92321 19.576 6.85509 19.4435 6.83239C19.3803 6.81536 19.3171 6.81749 19.2538 6.81962C19.2328 6.82033 19.2117 6.82104 19.1906 6.82104H17.1915C17.0229 6.82104 16.8543 6.88915 16.7459 7.00268C16.6375 7.10485 16.5773 7.24108 16.5773 7.38866V10.0792C16.5773 10.0906 16.5803 10.1048 16.5833 10.119ZM17.7633 10.1566H17.2965C17.1771 10.1566 17.0685 10.0537 17.0577 9.9406V7.5646C17.0577 7.52346 17.0577 7.48231 17.0685 7.44117C17.1011 7.35888 17.1988 7.28688 17.2965 7.28688H18.5993V8.09946C18.5993 8.15088 18.6318 8.19203 18.6753 8.22288C18.7187 8.24346 18.7838 8.25374 18.8273 8.23317C18.8707 8.2126 18.9032 8.17146 18.9141 8.13031C18.925 8.09946 18.925 8.07888 18.925 8.04803V7.2766H19.2289C19.3484 7.28688 19.4569 7.38974 19.4569 7.50288V9.93031C19.4678 10.0537 19.3592 10.1463 19.2398 10.1566H18.9358V9.31317C18.9358 9.28231 18.9358 9.26174 18.925 9.23088C18.9141 9.17946 18.8707 9.13831 18.8273 9.12803C18.773 9.11774 18.7078 9.12803 18.6644 9.15888C18.6318 9.17946 18.6101 9.23088 18.6101 9.27203V10.1566H18.089V9.27203C18.089 9.21031 18.0565 9.15888 18.0022 9.13831C17.9479 9.10746 17.8828 9.11774 17.8285 9.1486C17.785 9.16917 17.7633 9.2206 17.7633 9.27203V10.1566Z" fill="black" fill-opacity="0.45"/>
</svg>
