<svg width="24" height="24" viewBox="0 0 24 24" fill="none" xmlns="http://www.w3.org/2000/svg">
<path fill-rule="evenodd" clip-rule="evenodd" d="M20.4 3.60014H18.48C18.2149 3.60014 18 3.38523 18 3.12014C18 2.85504 18.2149 2.64014 18.48 2.64014H20.4C20.9302 2.64014 21.36 3.06994 21.36 3.60014V5.28014C21.36 5.54523 21.1451 5.76014 20.88 5.76014C20.6149 5.76014 20.4 5.54523 20.4 5.28014V3.60014ZM8.55259 12.4006C9.32235 12.8888 10.4078 13.2001 11.5559 13.2001H12.2227C13.2235 13.2001 14.2842 12.8853 15.0888 12.408C15.4633 12.1859 15.7546 11.9426 15.9184 11.7C16.1882 11.3006 16.1328 10.8191 15.6671 10.6023C15.2849 10.4245 14.9443 9.473 14.9443 8.55437V6.73287C14.9443 5.46392 13.5305 4.08014 11.8893 4.08014C10.2481 4.08014 8.83434 5.46392 8.83434 6.73287V8.55437C8.83434 9.473 8.49366 10.4245 8.11152 10.6023C7.68157 10.8025 7.57382 11.2496 7.78595 11.6542C7.92366 11.9169 8.19317 12.1726 8.55259 12.4006ZM11.5559 12.2401C10.5888 12.2401 9.68184 11.98 9.06678 11.5899C8.92869 11.5023 8.81813 11.4147 8.74164 11.3393C9.41858 10.8464 9.79434 9.68843 9.79434 8.55437V6.73287C9.79434 5.99877 10.7737 5.04014 11.8893 5.04014C13.0049 5.04014 13.9843 5.99877 13.9843 6.73287V8.55437C13.9843 9.66247 14.343 10.7934 14.991 11.3044C14.8952 11.3893 14.7611 11.4862 14.599 11.5824C13.9372 11.975 13.0438 12.2401 12.2227 12.2401H11.5559ZM18.0537 12.1844L13.9807 16.2573C13.7933 16.4448 13.4894 16.4448 13.3019 16.2573C13.1145 16.0699 13.1145 15.766 13.3019 15.5785L17.3749 11.5056C17.5623 11.3181 17.8662 11.3181 18.0537 11.5056C18.2411 11.693 18.2411 11.9969 18.0537 12.1844ZM9.58227 14.8825C8.41746 14.8401 7.92001 15.334 7.92001 16.5474V18.4801H11.3695C11.6346 18.4801 11.8495 18.695 11.8495 18.9601C11.8495 19.2252 11.6346 19.4401 11.3695 19.4401H7.44001C7.17492 19.4401 6.96001 19.2252 6.96001 18.9601V16.5474C6.96001 14.7964 7.90239 13.8606 9.59975 13.9228H12.7194C12.9845 13.9228 13.1994 14.1377 13.1994 14.4028C13.1994 14.6679 12.9845 14.8828 12.7194 14.8828L9.58227 14.8825ZM13.4716 18.8029L15.8475 16.427C16.035 16.2396 16.035 15.9357 15.8475 15.7482C15.6601 15.5608 15.3561 15.5608 15.1687 15.7482L12.4542 18.4627L12.4534 18.4635C12.2659 18.651 12.2659 18.9549 12.4534 19.1423L12.4534 19.1423L13.4716 20.1606C13.6591 20.348 13.963 20.348 14.1505 20.1606C14.3379 19.9731 14.3379 19.6692 14.1505 19.4817L13.4716 18.8029ZM11.28 7.44014C11.0149 7.44014 10.8 7.65504 10.8 7.92014C10.8 8.18523 11.0149 8.40014 11.28 8.40014H12.48C12.7451 8.40014 12.96 8.18523 12.96 7.92014C12.96 7.65504 12.7451 7.44014 12.48 7.44014H11.28ZM19.5601 21.6001C21.3494 21.6001 22.8 20.1495 22.8 18.3602C22.8 16.5708 21.3495 15.1201 19.5601 15.1201C17.7708 15.1201 16.32 16.5709 16.32 18.3602C16.32 20.1494 17.7708 21.6001 19.5601 21.6001ZM19.5601 16.0801C20.8193 16.0801 21.84 17.101 21.84 18.3602C21.84 19.6193 20.8192 20.6401 19.5601 20.6401C18.301 20.6401 17.28 19.6192 17.28 18.3602C17.28 17.1011 18.3009 16.0801 19.5601 16.0801ZM19.1069 18.2816V17.0401C19.1069 16.775 19.3218 16.5601 19.5869 16.5601C19.852 16.5601 20.0669 16.775 20.0669 17.0401V18.2816C20.0669 18.5467 19.852 18.7616 19.5869 18.7616C19.3218 18.7616 19.1069 18.5467 19.1069 18.2816ZM20.0805 19.7338C20.0805 20.0067 19.8594 20.2277 19.5868 20.2277C19.3142 20.2277 19.0931 20.0067 19.0931 19.7338C19.0931 19.4612 19.3142 19.2401 19.5868 19.2401C19.8594 19.2401 20.0805 19.4612 20.0805 19.7338ZM5.52001 20.4001H3.60001V18.7201C3.60001 18.455 3.38511 18.2401 3.12001 18.2401C2.85492 18.2401 2.64001 18.455 2.64001 18.7201V20.4001C2.64001 20.9303 3.06982 21.3601 3.60001 21.3601H5.52001C5.78511 21.3601 6.00001 21.1452 6.00001 20.8801C6.00001 20.615 5.78511 20.4001 5.52001 20.4001ZM3.60001 3.60014H5.52001C5.78511 3.60014 6.00001 3.38523 6.00001 3.12014C6.00001 2.85504 5.78511 2.64014 5.52001 2.64014H3.60001C3.06982 2.64014 2.64001 3.06994 2.64001 3.60014V5.28014C2.64001 5.54523 2.85492 5.76014 3.12001 5.76014C3.38511 5.76014 3.60001 5.54523 3.60001 5.28014V3.60014Z" fill="black" fill-opacity="0.45"/>
</svg>
