<svg width="24" height="24" viewBox="0 0 24 24" fill="none" xmlns="http://www.w3.org/2000/svg">
<path fill-rule="evenodd" clip-rule="evenodd" d="M18.6001 18C19.4617 18 20.1601 18.6984 20.1601 19.56V20.64C20.1601 20.9051 19.9452 21.12 19.6801 21.12H14.8801C14.615 21.12 14.4001 20.9051 14.4001 20.64V19.56C14.4001 18.6984 15.0985 18 15.9601 18H18.6001ZM13.2001 8.27998C13.5977 8.27998 13.9201 8.60234 13.9201 8.99998V11.64C13.9201 11.9051 13.7052 12.12 13.4401 12.12C13.175 12.12 12.9601 11.9051 12.9601 11.64V9.23998H9.3601V13.56C9.3601 13.9576 9.03774 14.28 8.6401 14.28H7.4401V20.04H11.7601C12.0252 20.04 12.2401 20.2549 12.2401 20.52C12.2401 20.7851 12.0252 21 11.7601 21H7.2001C6.80245 21 6.4801 20.6776 6.4801 20.28V14.04C6.4801 13.6423 6.80245 13.32 7.2001 13.32H8.4001V8.99998C8.4001 8.60234 8.72245 8.27998 9.1201 8.27998H13.2001ZM18.6001 18.96H15.9601C15.6287 18.96 15.3601 19.2286 15.3601 19.56V20.16H19.2001V19.56C19.2001 19.2286 18.9315 18.96 18.6001 18.96ZM17.2801 11.28C18.8703 11.28 20.1601 12.5568 20.1601 14.1323V15.2952C20.1601 15.7123 19.79 15.9126 19.2976 16.0062L19.27 16.01C19.2595 16.0109 19.2356 16.0139 19.2034 16.0196C19.1495 16.0291 19.096 16.0423 19.0485 16.0591C18.9987 16.0768 18.9612 16.0965 18.9413 16.1137V17.0073C18.9413 17.1579 18.8185 17.28 18.667 17.28H15.9203C15.7688 17.28 15.646 17.1579 15.646 17.0073V16.0978C15.646 16.085 15.631 16.0695 15.5651 16.0444C15.528 16.0303 15.4852 16.0197 15.4421 16.0127C15.4164 16.0085 15.398 16.0067 15.3855 16.0059C15.2732 15.9976 15.1157 15.9722 14.9526 15.9176C14.6227 15.807 14.3972 15.6127 14.4001 15.2952V14.1323C14.4001 12.5568 15.6899 11.28 17.2801 11.28ZM17.2801 12.24C16.2196 12.24 15.3601 13.0987 15.3601 14.1572V15.1259C15.36 15.1399 15.4005 15.1752 15.5076 15.2114C15.5605 15.2293 15.6194 15.243 15.6786 15.2526C15.7141 15.2584 15.7407 15.2614 15.7487 15.2621C15.8231 15.2661 15.9236 15.2825 16.0291 15.323C16.2396 15.4038 16.3861 15.5568 16.3861 15.7908V16.32H18.1964V15.7908C18.1964 15.5563 18.3559 15.4134 18.5849 15.3316C18.69 15.294 18.7909 15.2751 18.8668 15.2674C18.9627 15.2482 19.0571 15.2178 19.1251 15.1807C19.1833 15.1489 19.2001 15.1284 19.2001 15.1238V14.1572C19.2001 13.0987 18.3406 12.24 17.2801 12.24ZM16.3201 13.68C16.5852 13.68 16.8001 13.8949 16.8001 14.16C16.8001 14.4251 16.5852 14.64 16.3201 14.64C16.055 14.64 15.8401 14.4251 15.8401 14.16C15.8401 13.8949 16.055 13.68 16.3201 13.68ZM18.2401 13.68C18.5052 13.68 18.7201 13.8949 18.7201 14.16C18.7201 14.4251 18.5052 14.64 18.2401 14.64C17.975 14.64 17.7601 14.4251 17.7601 14.16C17.7601 13.8949 17.975 13.68 18.2401 13.68ZM9.16302 4.65493C9.41547 4.97122 9.18726 5.43877 8.7826 5.43433C8.33488 5.42942 7.89694 5.56248 7.52205 5.82498C6.54379 6.50997 6.30677 7.85983 6.99314 8.84006C7.01977 8.8781 7.04747 8.91513 7.07621 8.95114C7.32866 9.26743 7.10045 9.73498 6.69579 9.73054C5.69479 9.71956 4.75208 9.23292 4.16633 8.39638C3.17604 6.98209 3.51818 5.03355 4.931 4.04428C6.28317 3.09749 8.137 3.36944 9.16302 4.65493ZM5.48163 4.83067C4.50337 5.51566 4.26635 6.86552 4.95272 7.84575C5.17155 8.15828 5.4618 8.4002 5.79156 8.55812C5.38021 7.28658 5.82064 5.84437 6.97142 5.03859C7.19478 4.88219 7.43417 4.75751 7.68381 4.66553C6.99598 4.32485 6.15003 4.36265 5.48163 4.83067Z" fill="black" fill-opacity="0.45"/>
</svg>
