<svg width="24" height="24" viewBox="0 0 24 24" fill="none" xmlns="http://www.w3.org/2000/svg">
<path fill-rule="evenodd" clip-rule="evenodd" d="M4 2H5.5V2.94444V3.5H4.93333H4V2ZM4 17.5V19H5.5V18.0556V17.5H4.93333H4ZM16.5 19H18V17.5H17.0667H16.5V18.0556V19ZM18 3.5V2H16.5V2.94444V3.5H17.0667H18ZM5.86667 2V3.5H7.73333V2H5.86667ZM8.66667 2V3.5H10.5333V2H8.66667ZM11.4667 2V3.5H13.3333V2H11.4667ZM14.2667 2V3.5H16.1333V2H14.2667ZM18 3.88889H16.5V5.77778H18V3.88889ZM18 6.72222H16.5V8.61111H18V8.5H19.5V20.5H10.5V19H10.5333V17.5H8.66667V19H9V22H21V7H18V6.72222ZM18 9.55556H16.5V11.4444H18V9.55556ZM18 12.3889H16.5V14.2778H18V12.3889ZM18 15.2222H16.5V17.1111H18V15.2222ZM16.1333 19V17.5H14.2667V19H16.1333ZM13.3333 19V17.5H11.4667V19H13.3333ZM7.73333 19V17.5H5.86667V19H7.73333ZM4 17.1111H5.5V15.2222H4V17.1111ZM4 14.2778H5.5V12.3889H4V14.2778ZM4 11.4444H5.5V9.55556H4V11.4444ZM4 8.61111H5.5V6.72222H4V8.61111ZM4 5.77778H5.5V3.88889H4V5.77778ZM13 9C13 10.105 12.105 11 11 11C9.895 11 9 10.105 9 9C9 7.895 9.895 7 11 7C12.105 7 13 7.895 13 9ZM7 14C7 12.67 9.665 12 11 12C12.335 12 15 12.67 15 14V15H7V14Z" fill="black" fill-opacity="0.45"/>
</svg>
