<svg width="24" height="24" viewBox="0 0 24 24" fill="none" xmlns="http://www.w3.org/2000/svg">
<path fill-rule="evenodd" clip-rule="evenodd" d="M4 5H20V7H22V17H20V19H4V17H2V7H4V5ZM20 16H21V8H20V16ZM4 8V16H3V8H4ZM9.5 11.5C10.4669 11.5 11.25 10.7169 11.25 9.75C11.25 8.78312 10.4669 8 9.5 8C8.53312 8 7.75 8.78312 7.75 9.75C7.75 10.7169 8.53312 11.5 9.5 11.5ZM9.5 12.375C8.33187 12.375 6 12.9613 6 14.125V15H13V14.125C13 12.9613 10.6681 12.375 9.5 12.375ZM18 9H14V10H18V9ZM14 11H18V12H14V11ZM18 13H14V14H18V13Z" fill="black" fill-opacity="0.45"/>
</svg>
