<svg width="24" height="24" viewBox="0 0 24 24" fill="none" xmlns="http://www.w3.org/2000/svg">
<path fill-rule="evenodd" clip-rule="evenodd" d="M9.14286 4V4.95238H20.0952V6.85714H21.0476V4.95238C21.0476 4.4264 20.6212 4 20.0952 4H9.14286ZM11.0862 7.05246L8.05111 4H2V20.1905H22V7.33333H11.7615L11.6359 7.32501C11.4288 7.29745 11.2351 7.20228 11.0862 7.05246ZM13.4286 15.9048H17.2381V16.8571H13.4286V15.9048ZM13.4286 13.0476H18.6667V14H13.4286V13.0476ZM13.4286 10.1905H20.0952V11.1429H13.4286V10.1905ZM10 11C10 12.105 9.105 13 8 13C6.895 13 6 12.105 6 11C6 9.895 6.895 9 8 9C9.105 9 10 9.895 10 11ZM4 16C4 14.67 6.665 14 8 14C9.335 14 12 14.67 12 16V17H4V16Z" fill="black" fill-opacity="0.45"/>
</svg>
