<svg width="24" height="24" viewBox="0 0 24 24" fill="none" xmlns="http://www.w3.org/2000/svg">
<path d="M5.18808 18.4262C5.24165 18.4262 5.29522 18.4208 5.34879 18.4128L9.85415 17.6226C9.90772 17.6119 9.95862 17.5878 9.99612 17.5476L21.3506 6.19315C21.3754 6.16837 21.3951 6.13893 21.4086 6.10653C21.422 6.07413 21.4289 6.03939 21.4289 6.00431C21.4289 5.96923 21.422 5.93449 21.4086 5.90209C21.3951 5.86968 21.3754 5.84025 21.3506 5.81547L16.8988 1.361C16.8479 1.31011 16.7809 1.28333 16.7086 1.28333C16.6363 1.28333 16.5693 1.31011 16.5184 1.361L5.16397 12.7155C5.12379 12.7556 5.09969 12.8039 5.08897 12.8574L4.29879 17.3628C4.27274 17.5063 4.28205 17.654 4.32592 17.7931C4.36979 17.9321 4.4469 18.0584 4.55058 18.161C4.72736 18.3324 4.94969 18.4262 5.18808 18.4262ZM6.99344 13.7548L16.7086 4.04225L18.672 6.00565L8.95683 15.7181L6.57558 16.1387L6.99344 13.7548ZM21.8568 20.6762H2.14254C1.66844 20.6762 1.2854 21.0592 1.2854 21.5333V22.4976C1.2854 22.6155 1.38183 22.7119 1.49969 22.7119H22.4997C22.6175 22.7119 22.714 22.6155 22.714 22.4976V21.5333C22.714 21.0592 22.3309 20.6762 21.8568 20.6762Z" fill="black" fill-opacity="0.45"/>
</svg>
