<svg width="24" height="24" viewBox="0 0 24 24" fill="none" xmlns="http://www.w3.org/2000/svg">
<path d="M15 3H9V5H4V7H20V5H15V3Z" fill="black" fill-opacity="0.45"/>
<path d="M16.9837 9H18.9837V21H5V9H7V19.1538H16.9837V9Z" fill="black" fill-opacity="0.45"/>
<path fill-rule="evenodd" clip-rule="evenodd" d="M15 13C15 14.6569 13.6569 16 12 16C10.3431 16 9 14.6569 9 13C9 11.3431 10.3431 10 12 10C13.6569 10 15 11.3431 15 13ZM13.5 13C13.5 13.8284 12.8284 14.5 12 14.5C11.1716 14.5 10.5 13.8284 10.5 13C10.5 12.1716 11.1716 11.5 12 11.5C12.8284 11.5 13.5 12.1716 13.5 13Z" fill="black" fill-opacity="0.45"/>
</svg>
