<svg width="24" height="24" viewBox="0 0 24 24" fill="none" xmlns="http://www.w3.org/2000/svg">
<path fill-rule="evenodd" clip-rule="evenodd" d="M12 17.6001L20.832 11.0515L22.8 9.6001L12 1.6001L1.19995 9.6001L3.15595 11.0515L12 17.6001ZM13.5146 10.1173L14.2599 12.2401H15.7384L12.8053 4.8001H11.1946L8.26149 12.2401H9.67994L10.4373 10.1173H13.5146ZM10.7538 9.02915L11.1258 8.12761C11.4234 7.39909 11.7086 6.66146 11.969 5.89652H12.0186C12.0669 6.02457 12.1148 6.15236 12.1627 6.27985L12.1627 6.27992C12.3973 6.9049 12.6291 7.52254 12.8865 8.12761L13.2461 9.02915H10.7538ZM3.14395 13.6117L11.988 20.2632L20.844 13.6001L22.8 15.0743L12 23.2001L1.19995 15.0743L3.14395 13.6117Z" fill="black" fill-opacity="0.45"/>
</svg>
