<svg width="24" height="24" viewBox="0 0 24 24" fill="none" xmlns="http://www.w3.org/2000/svg">
<path fill-rule="evenodd" clip-rule="evenodd" d="M10.8 0.800049H12.8V4.80005H10.8V0.800049ZM6.80005 11.8C6.80005 14.5615 9.03862 16.8 11.8 16.8C14.5615 16.8 16.8 14.5615 16.8 11.8C16.8 9.03862 14.5615 6.80005 11.8 6.80005C9.03862 6.80005 6.80005 9.03862 6.80005 11.8ZM14.8 11.8C14.8 13.4569 13.4569 14.8 11.8 14.8C10.1432 14.8 8.80005 13.4569 8.80005 11.8C8.80005 10.1432 10.1432 8.80005 11.8 8.80005C13.4569 8.80005 14.8 10.1432 14.8 11.8ZM20.2853 4.72898L18.8711 3.31477L16.0427 6.14319L17.4569 7.55741L20.2853 4.72898ZM22.8 12.8H18.8V10.8H22.8V12.8ZM18.8711 20.2853L20.2853 18.8711L17.4569 16.0427L16.0427 17.4569L18.8711 20.2853ZM10.8 22.8V18.8H12.8V22.8H10.8ZM3.31477 18.8711L4.72898 20.2853L7.55741 17.4569L6.14319 16.0427L3.31477 18.8711ZM0.800049 12.8V10.8H4.80005V12.8H0.800049ZM4.72898 3.31477L3.31477 4.72898L6.14319 7.55741L7.55741 6.14319L4.72898 3.31477Z" fill="black" fill-opacity="0.45"/>
</svg>
