<svg width="24" height="24" viewBox="0 0 24 24" fill="none" xmlns="http://www.w3.org/2000/svg">
<path fill-rule="evenodd" clip-rule="evenodd" d="M12 8.00006C9.79 8.00006 8 9.79006 8 12.0001C8 14.2101 9.79 16.0001 12 16.0001C14.21 16.0001 16 14.2101 16 12.0001C16 9.79006 14.21 8.00006 12 8.00006ZM3 15.0001V21.0001H9V19.0001H5V15.0001H3ZM9 5.00006V3.00006L3 2.99756V9.00006H5V5.00006H9ZM15 3.00006V5.00006H19V9.00006H21V3.00006H15ZM15 19.0001V21.0001H21V15.0001H19V19.0001H15Z" fill="black" fill-opacity="0.45"/>
</svg>
