<svg width="24" height="25" viewBox="0 0 24 25" fill="none" xmlns="http://www.w3.org/2000/svg">
<path fill-rule="evenodd" clip-rule="evenodd" d="M6 2H2V6H3V18H2V22H6V21H18V22H22V18H21V6H22V2H18V3H6V2ZM18 18H19.596V6H18V4.55301H6V6H4.59605V18H6V19.553H18V18ZM13.705 8H11.5V9H13.295L14.295 10H8.5C7.09998 10 6 11.1 6 12.5C6 13.9 7.09998 15 8.5 15C9.72998 15 10.725 14.155 10.95 13H11.775L13.16 11.615C13.055 11.885 13 12.185 13 12.5C13 13.9 14.1 15 15.5 15C16.9 15 18 13.9 18 12.5C18 11.175 17.015 10.115 15.7199 10.015L13.705 8ZM12.36 11L11.36 12H10.975L10.85 11.655C10.76 11.415 10.64 11.195 10.49 11H12.36ZM14 12.5C14 13.33 14.67 14 15.5 14C16.33 14 17 13.33 17 12.5C17 11.67 16.33 11 15.5 11C14.67 11 14 11.67 14 12.5ZM8.5 14C7.685 14 7 13.315 7 12.5C7 11.685 7.685 11 8.5 11C9.14002 11 9.70001 11.425 9.90998 12H8.5V13H9.90998C9.70001 13.575 9.14002 14 8.5 14Z" fill="black" fill-opacity="0.45"/>
</svg>
