<svg width="24" height="24" viewBox="0 0 24 24" fill="none" xmlns="http://www.w3.org/2000/svg">
<path fill-rule="evenodd" clip-rule="evenodd" d="M16 3.33C18.58 3.33 20.67 5.42 20.67 8H22C22 4.69 19.31 2 16 2V3.33ZM15.2 14C15.2 15.7673 13.7673 17.2 12 17.2C10.2327 17.2 8.8 15.7673 8.8 14C8.8 12.2327 10.2327 10.8 12 10.8C13.7673 10.8 15.2 12.2327 15.2 14ZM18 8C18 6.89 17.11 6 16 6V4.67C17.84 4.67 19.33 6.16 19.33 8H18ZM15 7V4H9L7.17 6H2V22H22V9H17C17 7.89 16.11 7 15 7ZM7 14C7 16.76 9.24 19 12 19C14.76 19 17 16.76 17 14C17 11.24 14.76 9 12 9C9.24 9 7 11.24 7 14Z" fill="black" fill-opacity="0.45"/>
</svg>
