<svg width="24" height="24" viewBox="0 0 24 24" fill="none" xmlns="http://www.w3.org/2000/svg">
<path fill-rule="evenodd" clip-rule="evenodd" d="M15.52 6.41001L22 12.9L15.51 19.38L9.02 12.9L15.52 6.41001ZM19.17 12.9L15.51 9.24001L11.86 12.9L15.52 16.56L19.17 12.9ZM3.5 6.64001C5.25 4.88001 7.56 4.00001 9.86 4.00001V0.76001L14.1 5.00001L9.86 9.24001V6.00001C8.07 6.00001 6.28 6.68001 4.91 8.05001C2.18 10.78 2.18 15.22 4.91 17.95C6.28 19.32 8.07 20 9.86 20C10.83 20 11.8 19.79 12.7 19.39L14.19 20.88C12.84 21.62 11.35 22 9.86 22C7.56 22 5.25 21.12 3.5 19.36C-0.0200005 15.85 -0.0200005 10.15 3.5 6.64001Z" fill="black" fill-opacity="0.45"/>
</svg>
