<svg width="24" height="24" viewBox="0 0 24 24" fill="none" xmlns="http://www.w3.org/2000/svg">
<path fill-rule="evenodd" clip-rule="evenodd" d="M1 9H3V7H1V9ZM1 13H3V11H1V13ZM3 5V3C2.44977 3 1 3 1 3C1 3 1 4.45023 1 5H3ZM9 21H11V19H9V21ZM1 17H3V15H1V17ZM3 19H1C1 19.592 1 21 1 21C1 21 2.492 21 3 21V19ZM13 3V9H23V3C23 3 21.5807 3 21 3H13ZM21 17H23V15H21V17ZM9 5H11V3H9V5ZM5 21H7V19H5V21ZM5 5H7V3H5V5ZM23 21C23 21 23 19.5321 23 19H21V21C21.5679 21 23 21 23 21ZM21 13H23V11H21V13ZM13 21H15V19H13V21ZM17 21H19V19H17V21Z" fill="black" fill-opacity="0.45"/>
</svg>
