<svg width="24" height="24" viewBox="0 0 24 24" fill="none" xmlns="http://www.w3.org/2000/svg">
<path fill-rule="evenodd" clip-rule="evenodd" d="M4.68994 6.52502L2.01001 3.84503L3.42004 2.42505L21.15 20.1651L19.74 21.5751L16.3199 18.1551C14.98 18.6851 13.52 18.9751 12 18.9751C7 18.9751 2.72998 15.8651 1 11.4751C1.77002 9.50506 3.06006 7.80505 4.68994 6.52502ZM12 5.97504C15.79 5.97504 19.17 8.10504 20.8199 11.4751C20.23 12.695 19.4 13.7451 18.41 14.5951L19.8199 16.0051C21.21 14.7751 22.3099 13.2351 23 11.4751C21.27 7.08502 17 3.97504 12 3.97504C10.73 3.97504 9.51001 4.17505 8.35999 4.54504L10.01 6.19501C10.66 6.06506 11.3199 5.97504 12 5.97504ZM10.9301 7.11505L13 9.18506C13.5701 9.43506 14.03 9.89502 14.28 10.4651L16.3501 12.5351C16.4301 12.195 16.4901 11.8351 16.4901 11.4651C16.5 8.98505 14.4801 6.97504 12 6.97504C11.63 6.97504 11.28 7.02502 10.9301 7.11505ZM9.51001 11.3451L12.12 13.9551C12.08 13.9651 12.04 13.9751 12 13.9751C10.62 13.9751 9.5 12.8551 9.5 11.4751C9.5 11.4501 9.50244 11.4301 9.505 11.4101C9.50757 11.3901 9.51001 11.3701 9.51001 11.3451ZM7.86011 9.69507L6.11011 7.94507C4.90002 8.86505 3.88 10.0451 3.18005 11.4751C4.83008 14.8451 8.21008 16.9751 12 16.9751C12.9501 16.9751 13.87 16.8351 14.75 16.5951L13.77 15.6151C13.2301 15.8451 12.63 15.9751 12 15.9751C9.52002 15.9751 7.5 13.9551 7.5 11.4751C7.5 10.8451 7.63 10.2451 7.86011 9.69507Z" fill="black" fill-opacity="0.45"/>
</svg>
