<svg width="24" height="24" viewBox="0 0 24 24" fill="none" xmlns="http://www.w3.org/2000/svg">
<path fill-rule="evenodd" clip-rule="evenodd" d="M3 13C3 13.99 3 13.45 3 14V21C4 21 3.45 21 4 21H20C20.55 21 21 21 21 21V14C21 13.45 21 13 21 13H3ZM7 19C5.9 19 5 18.1 5 17C5 15.9 5.9 15 7 15C8.1 15 9 15.9 9 17C9 18.1 8.1 19 7 19ZM21 2.99999H3C3 3.99999 3 3.44999 3 3.99999V11C3 11 3.45 11 4 11H20C20.55 11 21 11 21 11V3.99999C21 3.44999 21 3.99999 21 2.98999V2.99999ZM7 8.99999C5.9 8.99999 5 8.09999 5 6.99999C5 5.89999 5.9 4.99999 7 4.99999C8.1 4.99999 9 5.89999 9 6.99999C9 8.09999 8.1 8.99999 7 8.99999Z" fill="black" fill-opacity="0.45"/>
</svg>
