<svg width="24" height="24" viewBox="0 0 24 24" fill="none" xmlns="http://www.w3.org/2000/svg">
<path d="M12 2C6.48 2 2 6.48 2 12C2 17.52 6.48 22 12 22C17.52 22 22 17.52 22 12C22 6.48 17.52 2 12 2ZM13.3775 13.5141L11.3868 14.6635L8.88675 10.3333L14.6603 7L17.1603 11.3301L14.8212 12.6806L15.4307 13.7964L17.6244 14.5146L17.1059 16.0986L14.2845 15.1749L13.3775 13.5141ZM7.86004 11.8884L8.58173 11.4717L10.2484 14.3584L9.52671 14.7751L9.94338 15.4968L8.5 16.3301L6 12L7.44338 11.1667L7.86004 11.8884Z" fill="black" fill-opacity="0.45"/>
</svg>
