<svg width="16" height="16" viewBox="0 0 16 16" fill="none" xmlns="http://www.w3.org/2000/svg">
<g clip-path="url(#clip0_328_4555)">
<mask id="mask0_328_4555" style="mask-type:luminance" maskUnits="userSpaceOnUse" x="0" y="0" width="16" height="16">
<path d="M16 0H0V16H16V0Z" fill="white"/>
</mask>
<g mask="url(#mask0_328_4555)">
<path d="M12 8C12 10.2091 10.2091 12 8 12C5.79086 12 4 10.2091 4 8C4 5.79086 5.79086 4 8 4C10.2091 4 12 5.79086 12 8Z" fill="#1546F2"/>
<path d="M14.3333 8.00008C14.3333 4.50228 11.4978 1.66675 7.99996 1.66675C4.50216 1.66675 1.66663 4.50228 1.66663 8.00008C1.66663 11.4979 4.50216 14.3334 7.99996 14.3334V15.3334C3.94987 15.3334 0.666626 12.0502 0.666626 8.00008C0.666626 3.94999 3.94987 0.666748 7.99996 0.666748C12.05 0.666748 15.3333 3.94999 15.3333 8.00008C15.3333 12.0502 12.05 15.3334 7.99996 15.3334V14.3334C11.4978 14.3334 14.3333 11.4979 14.3333 8.00008Z" fill="#1546F2"/>
</g>
</g>
<defs>
<clipPath id="clip0_328_4555">
<rect width="16" height="16" fill="white"/>
</clipPath>
</defs>
</svg>
