<svg width="24" height="24" viewBox="0 0 24 24" fill="none" xmlns="http://www.w3.org/2000/svg">
<path fill-rule="evenodd" clip-rule="evenodd" d="M16.5501 13C17.3001 13 17.96 12.59 18.3001 11.97L21.88 5.47998C22.25 4.82001 21.7701 4 21.01 4H6.20996L5.27002 2H2V4H4L7.59997 11.59L6.25 14.03C5.52002 15.37 6.47998 17 8 17H20V15H8L9.09997 13H16.5501ZM6.01001 20C6.01001 18.9 6.90002 18 8 18C9.09997 18 10 18.9 10 20C10 21.1 9.09997 22 8 22C6.90002 22 6.01001 21.1 6.01001 20ZM16.01 20C16.01 18.9 16.9001 18 18 18C19.1 18 20 18.9 20 20C20 21.1 19.1 22 18 22C16.9001 22 16.01 21.1 16.01 20Z" fill="black" fill-opacity="0.45"/>
</svg>
