<svg width="24" height="24" viewBox="0 0 24 24" fill="none" xmlns="http://www.w3.org/2000/svg">
<path fill-rule="evenodd" clip-rule="evenodd" d="M12 4C15.7854 4 18.9568 6.62918 19.7876 10.1611C20.5006 10.4668 21 11.1751 21 12C21 12.8249 20.5006 13.5332 19.7876 13.8389C18.9568 17.3708 15.7854 20 12 20C7.58172 20 4 16.4183 4 12C4 7.58172 7.58172 4 12 4ZM12 6C14.7631 6 17.09 7.86781 17.787 10.4097C17.436 10.6779 17.1764 11.0596 17.063 11.5H13.937C13.715 10.6374 12.9319 10 12 10C10.8954 10 10 10.8954 10 12C10 13.1046 10.8954 14 12 14C12.9319 14 13.715 13.3626 13.937 12.5H17.063C17.1764 12.9404 17.436 13.3221 17.787 13.5903C17.09 16.1322 14.7631 18 12 18C8.68629 18 6 15.3137 6 12C6 8.68629 8.68629 6 12 6Z" fill="black" fill-opacity="0.45"/>
</svg>
