<svg width="24" height="24" viewBox="0 0 24 24" fill="none" xmlns="http://www.w3.org/2000/svg">
<path fill-rule="evenodd" clip-rule="evenodd" d="M6 14.9034H18V12.9034H6V14.9034ZM4 14.9034V12.9034L2.40426 9.313C2.18069 8.80997 2.40572 8.22084 2.90771 7.99495L11.5896 4.08808C11.8506 3.97064 12.1494 3.97064 12.4104 4.08808L21.0923 7.99495C21.5943 8.22084 21.8193 8.80997 21.5957 9.313L20 12.9034V14.9034L21.5149 15.2821C21.8 15.3534 22 15.6096 22 15.9034C22 16.2054 21.8161 16.477 21.5358 16.5891L12.7428 20.1063C12.266 20.297 11.734 20.297 11.2572 20.1063L2.46424 16.5891C2.18385 16.477 2 16.2054 2 15.9034C2 15.6096 2.19999 15.3534 2.48507 15.2821L4 14.9034ZM12 5.90341C11.5833 6.40341 10.75 6.65341 9.5 6.65341C9.5 8.15232 9.60417 9.15232 9.8125 9.65341C10.2863 10.7931 11.0625 11.1534 12 11.9034C12.9375 11.1534 13.707 10.8108 14.1875 9.65505C14.3958 9.15396 14.5 8.15341 14.5 6.65341C13.25 6.65341 12.4167 6.40341 12 5.90341Z" fill="black" fill-opacity="0.45"/>
</svg>
