<svg width="24" height="24" viewBox="0 0 24 24" fill="none" xmlns="http://www.w3.org/2000/svg">
<path fill-rule="evenodd" clip-rule="evenodd" d="M11.9998 2.90918C9.31727 2.90918 6.889 3.27192 5.09457 3.87703C4.19736 4.17958 3.45807 4.54002 2.91432 4.97353C2.37745 5.40155 2.00926 5.93503 2 6.54554C2.00926 7.15605 2.37745 7.68953 2.91432 8.11756C3.45807 8.55107 4.19736 8.91151 5.09457 9.21406C6.889 9.81916 9.31727 10.1819 11.9998 10.1819H12.0002C14.6827 10.1819 17.111 9.81916 18.9054 9.21406C19.8026 8.91151 20.5419 8.55107 21.0857 8.11756C21.6225 7.68953 21.9907 7.15605 22 6.54554C21.9907 5.93503 21.6226 5.40155 21.0857 4.97353C20.5419 4.54002 19.8026 4.17958 18.9054 3.87703C17.111 3.27192 14.6827 2.90918 12.0002 2.90918H11.9998ZM11.9998 4.39302H12.0003C13.4634 4.39764 20.0213 5.03263 20.0887 6.54566C20.0213 8.05869 13.4634 8.69342 12.0003 8.6983H11.9998C10.5367 8.69368 3.97875 8.0587 3.9114 6.54566C3.97876 5.03262 10.5367 4.39764 11.9998 4.39302ZM21.6115 8.72699C21.7465 8.61705 21.8762 8.4941 22 8.36373V17.5223C21.9572 18.1066 21.595 18.6213 21.0854 19.0363C20.7522 19.3077 20.3447 19.5505 19.8732 19.7693V15.5155L16.8936 16.5205V20.6869C15.9185 20.8821 14.8452 21.0217 13.7021 21.091V16.7404H10.2979V21.091C9.15507 21.0217 8.08217 20.882 7.10721 20.6869V16.5205L4.12766 15.5155V19.7697C3.65579 19.5508 3.24803 19.3078 2.91464 19.0363C2.40411 18.6206 2.04178 18.1048 2 17.5193V8.36458C2.12346 8.49468 2.25254 8.61726 2.3873 8.72699C3.04937 9.26613 3.86791 9.66135 4.82663 9.99156C6.74407 10.652 9.24068 11.0251 11.9996 11.0251C14.7585 11.0251 17.2568 10.652 19.1742 9.99156C20.1329 9.66135 20.9494 9.26613 21.6115 8.72699Z" fill="black" fill-opacity="0.45"/>
</svg>
