<svg width="24" height="24" viewBox="0 0 24 24" fill="none" xmlns="http://www.w3.org/2000/svg">
<path fill-rule="evenodd" clip-rule="evenodd" d="M7.01001 14V9H17.01V14H7.01001ZM15.5 17C16.05 17 16.5 16.55 16.5 16C16.5 15.45 16.05 15 15.5 15C14.95 15 14.5 15.45 14.5 16C14.5 16.55 14.95 17 15.5 17ZM8.5 15C9.04999 15 9.5 15.45 9.5 16C9.5 16.55 9.04999 17 8.5 17C7.95001 17 7.5 16.55 7.5 16C7.5 15.45 7.95001 15 8.5 15ZM17.8 2.79999C16 2.09003 13.86 2 12 2C10.14 2 8 2.09003 6.20001 2.79999C3.53003 3.84003 2 6.04999 2 8.85999V22H22V8.85999C22 6.04999 20.47 3.84003 17.8 2.79999ZM14.8268 20H16.5V19.62L15.35 18.46C16.84 18.29 18 17.04 18 15.5V9C18 6.37 15 6 12 6C9 6 6 6.37 6 9V15.5C6 17.04 7.15997 18.29 8.65002 18.46L7.5 19.62V20H9.17221L10.6612 18.5H13.3302L14.8268 20Z" fill="black" fill-opacity="0.45"/>
</svg>
