<svg width="24" height="24" viewBox="0 0 24 24" fill="none" xmlns="http://www.w3.org/2000/svg">
<path fill-rule="evenodd" clip-rule="evenodd" d="M12 22C16.5714 19.2222 20 15 20 9.77778C20 5.48223 16.4183 2 12 2C7.58172 2 4 5.48223 4 9.77778C4 15 7.42857 19.2222 12 22ZM15.8501 8.06914L14.9171 9.00208L12.9979 7.08288L13.9309 6.14994C14.1308 5.95002 14.4506 5.95002 14.6506 6.14994L15.8501 7.34944C16.05 7.54935 16.05 7.86922 15.8501 8.06914ZM9.9192 14H8V12.0808L12.4648 7.62932L14.3707 9.53519L9.9192 14Z" fill="black" fill-opacity="0.45"/>
</svg>
