<svg width="24" height="24" viewBox="0 0 24 24" fill="none" xmlns="http://www.w3.org/2000/svg">
<path fill-rule="evenodd" clip-rule="evenodd" d="M18.8232 18.7624V16.5083H15.442V19.8895C15.442 20.5119 14.9374 21.0166 14.3149 21.0166C13.6924 21.0166 13.1878 20.5119 13.1878 19.8895C13.1878 19.267 13.6924 18.7624 14.3149 18.7624V16.5083V14.2541H19.9503V16.5083V19.8895C19.9503 20.5119 19.4457 21.0166 18.8232 21.0166C18.2007 21.0166 17.6961 20.5119 17.6961 19.8895C17.6961 19.267 18.2007 18.7624 18.8232 18.7624ZM13.2428 6.55278C13.1915 5.62586 13.5198 4.68183 14.2279 3.97373C15.5484 2.65329 17.6893 2.65329 19.0097 3.97373C20.3302 5.29418 20.3302 7.43505 19.0097 8.7555C18.3016 9.4636 17.3576 9.79197 16.4307 9.74062L15.0249 11.1464L11.8371 7.95854L13.2428 6.55278ZM11.0401 8.75524L14.2279 11.9431L4.68521 19.9335L3.04419 18.2925L11.0401 8.75524Z" fill="black" fill-opacity="0.45"/>
</svg>
