<svg width="24" height="24" viewBox="0 0 24 24" fill="none" xmlns="http://www.w3.org/2000/svg">
<path fill-rule="evenodd" clip-rule="evenodd" d="M9.08718 9.27947C9.13337 9.09233 9.19713 8.91208 9.27663 8.74059L4.63614 4.1001L3.22192 5.51431L4.57776 6.87015C4.20513 7.76839 4 8.7498 4 9.77778C4 15 7.42857 19.2222 12 22C13.5994 21.0281 15.0589 19.8795 16.2806 18.573L17.3641 19.6564L18.7783 18.2422L13.2593 12.7233C13.0878 12.8028 12.9076 12.8665 12.7204 12.9127C12.4896 12.9697 12.2483 12.9999 12 12.9999C10.344 12.9999 9 11.6559 9 9.99991C9 9.75159 9.03022 9.51028 9.08718 9.27947ZM14.4152 11.7791L18.3829 15.7468C19.406 13.9517 20 11.9514 20 9.77778C20 5.48223 16.4183 2 12 2C9.93814 2 8.05846 2.75835 6.63995 4.00381L10.2208 7.5847C10.7187 7.2172 11.3341 6.99991 12 6.99991C13.656 6.99991 15 8.34391 15 9.99991C15 10.6658 14.7827 11.2812 14.4152 11.7791Z" fill="black" fill-opacity="0.45"/>
</svg>
