<svg width="24" height="24" viewBox="0 0 24 24" fill="none" xmlns="http://www.w3.org/2000/svg">
<path fill-rule="evenodd" clip-rule="evenodd" d="M15.0023 1H9.00234V4H6.00234C4.90236 4 4.00234 4.89999 4.00234 6V10.62L2.7123 11.04C2.45229 11.12 2.23232 11.3 2.11232 11.54C1.99233 11.78 1.9623 12.06 2.05239 12.32L3.95229 19H4.00234C5.60231 19 7.02236 18.12 8.00234 17C8.98232 18.12 10.4023 19 12.0023 19C13.6023 19 15.0223 18.12 16.0023 17C16.9823 18.12 18.4023 19 20.0023 19H20.0523L21.9424 12.32C22.0223 12.06 22.0023 11.78 21.8823 11.54C21.7623 11.3 21.5423 11.12 21.2823 11.04L20.0023 10.62V6C20.0023 4.89999 19.1023 4 18.0023 4H15.0023V1ZM6.00234 6V9.97L12.0023 8L18.0023 9.97V6H6.00234ZM12.0023 20.96C13.3923 20.96 14.7823 20.53 16.0023 19.68C17.2223 20.53 18.6123 21 20.0023 21H22.0023V23H20.0023C18.6223 23 17.2623 22.66 16.0023 22.01C14.7423 22.66 13.3723 22.98 12.0023 22.98C10.6323 22.98 9.26235 22.65 8.00234 22.01C6.74233 22.65 5.38234 23 4.00234 23H2.00234V21H4.00234C5.39235 21 6.78237 20.53 8.00234 19.68C9.22231 20.53 10.6123 20.96 12.0023 20.96Z" fill="black" fill-opacity="0.45"/>
</svg>
