<svg width="24" height="24" viewBox="0 0 24 24" fill="none" xmlns="http://www.w3.org/2000/svg">
<path fill-rule="evenodd" clip-rule="evenodd" d="M17.1616 6.45428C19.3876 8.87072 19.021 11.5732 17.6312 13.2758L17.6101 13.3009L17.5821 13.3329L16.8793 14.1024C16.4013 14.6585 16.1612 15.1337 16.1612 15.6114C16.1612 16.2857 16.1944 16.9466 16.2609 17.5942L16.3169 18.0774L16.3986 18.7076L9.03118 20.9369L10.1419 19.2193C10.4892 18.6823 10.5327 18.295 10.3446 17.9568C10.1811 17.6629 9.78248 17.4843 9.05563 17.4728L8.86702 17.4735L8.56293 17.48L6.57061 15.6274L5.44156 12.2231L7.15092 9.71084L7.16229 9.60807C7.32812 8.28463 7.85674 7.14894 8.74011 6.22302L8.93483 6.02783L9.15549 5.82587C11.43 3.83867 14.7078 3.79053 17.1616 6.45428ZM7.76548 4.99935C7.70357 5.04894 7.64418 5.09913 7.58744 5.14983C6.93988 5.72847 6.44916 6.345 6.11528 6.99944L3 6.99987V16.9999L5.576 16.9993L7.774 18.9993L1 18.9999V4.99987L7.76548 4.99935ZM17.887 4.99835L23 4.99987V18.9999L18.0769 18.9996C17.9482 18.3317 17.8625 17.6652 17.8199 17.0001L21 16.9999V6.99987L19.5439 6.99967C19.2569 6.46853 18.87 5.93957 18.3591 5.42813C18.2064 5.27529 18.0488 5.13216 17.887 4.99835ZM14.6642 15.4727L12.1936 15.6572L10.689 16.3147C10.9974 16.4679 11.2564 16.6738 11.4613 16.9349L11.5634 17.0762L11.6554 17.2276C11.8313 17.5437 11.9285 17.8734 11.9507 18.2117L11.9551 18.4157L11.9509 18.4858L14.7579 17.6368L14.7217 17.2214L14.6881 16.6896L14.6679 16.1529L14.6612 15.6114C14.6612 15.5648 14.6622 15.5186 14.6642 15.4727ZM17.0947 9.24449L12.8036 11.6782L12.4886 14.1302L15.149 13.9336C15.2704 13.7299 15.413 13.5278 15.5755 13.3248L15.7417 13.1247C15.7635 13.0993 15.7914 13.0678 15.8234 13.0322L15.8743 12.9758L16.4692 12.3272C16.7645 11.9654 17.0804 11.2986 17.1774 10.5836C17.2381 10.1361 17.215 9.68946 17.0947 9.24449ZM10.1424 6.95547C9.2951 7.69576 8.80287 8.62272 8.65392 9.76875L8.62564 10.0371L8.61856 10.1172L11.8906 10.4722L16.4198 7.90379C16.3597 7.82348 16.2958 7.74326 16.2282 7.66312L16.0583 7.47056L15.8871 7.29173C14.0468 5.44443 11.785 5.5204 10.1424 6.95547Z" fill="black" fill-opacity="0.45"/>
</svg>
