<svg width="24" height="24" viewBox="0 0 24 24" fill="none" xmlns="http://www.w3.org/2000/svg">
<path fill-rule="evenodd" clip-rule="evenodd" d="M4 16.7609H20V21.7609H4V16.7609ZM6 20.2609C6.55228 20.2609 7 19.8132 7 19.2609C7 18.7086 6.55228 18.2609 6 18.2609C5.44772 18.2609 5 18.7086 5 19.2609C5 19.8132 5.44772 20.2609 6 20.2609ZM18 20.2609C18.5523 20.2609 19 19.8132 19 19.2609C19 18.7086 18.5523 18.2609 18 18.2609C17.4477 18.2609 17 18.7086 17 19.2609C17 19.8132 17.4477 20.2609 18 20.2609ZM4 10.7609H20V15.7609H4V10.7609ZM6 14.2609C6.55228 14.2609 7 13.8132 7 13.2609C7 12.7086 6.55228 12.2609 6 12.2609C5.44772 12.2609 5 12.7086 5 13.2609C5 13.8132 5.44772 14.2609 6 14.2609ZM18 14.2609C18.5523 14.2609 19 13.8132 19 13.2609C19 12.7086 18.5523 12.2609 18 12.2609C17.4477 12.2609 17 12.7086 17 13.2609C17 13.8132 17.4477 14.2609 18 14.2609ZM6.82843 4.08931C7.49509 4.08931 7.99509 4.25597 8.32843 4.58931C8.66176 4.92264 8.82843 5.42264 8.82843 6.08931C8.16176 6.08931 7.66176 5.92264 7.32843 5.58931C6.99509 5.25597 6.82843 4.75597 6.82843 4.08931ZM12 9.76088H6C6 8.10403 7.34315 6.76088 9 6.76088C10.6569 6.76088 12 8.10403 12 9.76088ZM16.9029 4.40593L17.4101 2L18.3473 2.29987L17.9656 4.09017L18.9076 2.74474L19.7268 3.31832L18.7847 4.66375L20.3365 3.69273L20.9388 4.47084L18.8279 5.78496C19.1152 6.29045 19.0669 6.8174 18.6829 7.36583L16.6654 9.76088H13L13.839 7.89269L14.8496 8.60033L15.1611 8.15558L14.1041 7.4155L14.4831 6.73323L15.414 7.38503L15.7338 6.92838L14.7553 6.24327L15.4062 5.07152C15.8037 4.50384 16.3026 4.28198 16.9029 4.40593Z" fill="black" fill-opacity="0.45"/>
</svg>
