<svg width="24" height="24" viewBox="0 0 24 24" fill="none" xmlns="http://www.w3.org/2000/svg">
<path fill-rule="evenodd" clip-rule="evenodd" d="M20 9.77778C20 15 16.5714 19.2222 12 22C7.42857 19.2222 4 15 4 9.77778C4 5.48223 7.58172 2 12 2C16.4183 2 20 5.48223 20 9.77778ZM14 7C14 8.10457 13.1046 9 12 9C10.8954 9 10 8.10457 10 7C10 5.89543 10.8954 5 12 5C13.1046 5 14 5.89543 14 7ZM11.9999 10.5C10.023 10.5 8.31405 11.1884 7.50261 12.1875C8.31403 13.8526 10.023 15 12 15C13.9769 15 15.6859 13.8527 16.4973 12.1875C15.6859 11.1884 13.9769 10.5 11.9999 10.5Z" fill="black" fill-opacity="0.45"/>
</svg>
