<svg width="24" height="24" viewBox="0 0 24 24" fill="none" xmlns="http://www.w3.org/2000/svg">
<path fill-rule="evenodd" clip-rule="evenodd" d="M15.49 3.47998C15.49 4.57998 14.59 5.47998 13.49 5.47998C12.39 5.47998 11.49 4.57998 11.49 3.47998C11.49 2.37998 12.39 1.47998 13.49 1.47998C14.59 1.47998 15.49 2.37998 15.49 3.47998ZM10.89 14.98L9.89001 19.38L2.89001 17.98L3.29001 15.98L8.19001 16.98L9.79001 8.87998L7.99001 9.57998V12.98H5.99001V8.27998L11.19 6.07998C11.34 6.07998 11.465 6.05498 11.59 6.02998C11.715 6.00498 11.84 5.97998 11.99 5.97998C12.69 5.97998 13.29 6.37998 13.69 6.97998L14.69 8.57998C15.49 9.97998 17.09 10.98 18.99 10.98V12.98C16.79 12.98 14.79 11.98 13.49 10.48L12.89 13.48L14.99 15.48V22.98H12.99V16.98L10.89 14.98Z" fill="black" fill-opacity="0.45"/>
</svg>
