<svg width="24" height="24" viewBox="0 0 24 24" fill="none" xmlns="http://www.w3.org/2000/svg">
<path fill-rule="evenodd" clip-rule="evenodd" d="M9.46074 4H14.5337C15.0132 4 15.4252 4.34039 15.5157 4.8113L16.4764 9.8113C16.5806 10.3537 16.2255 10.8778 15.6831 10.982C15.6209 10.994 15.5577 11 15.4944 11H8.5C7.94772 11 7.5 10.5523 7.5 10C7.5 9.93667 7.50602 9.87349 7.51796 9.8113L8.47871 4.8113C8.56919 4.34039 8.98122 4 9.46074 4ZM14.351 5.5C14.351 5.5 12.7818 5.5 9.64338 5.5L8.97089 8.0841C9.76369 7.27697 10.4896 6.8734 11.1487 6.8734C12.1374 6.8734 14.5855 6.9929 14.351 5.5ZM3.96074 13H9.03366C9.51318 13 9.92521 13.3404 10.0157 13.8113L10.9764 18.8113C11.0806 19.3537 10.7255 19.8778 10.1831 19.982C10.1209 19.994 10.0577 20 9.9944 20H3C2.44772 20 2 19.5523 2 19C2 18.9367 2.00602 18.8735 2.01796 18.8113L2.97871 13.8113C3.06919 13.3404 3.48122 13 3.96074 13ZM8.85102 14.5C8.85102 14.5 7.28181 14.5 4.14338 14.5L3.47089 17.0841C4.26369 16.277 4.98964 15.8734 5.64873 15.8734C6.63736 15.8734 9.08553 15.9929 8.85102 14.5ZM14.9607 13H20.0337C20.5132 13 20.9252 13.3404 21.0157 13.8113L21.9764 18.8113C22.0806 19.3537 21.7255 19.8778 21.1831 19.982C21.1209 19.994 21.0577 20 20.9944 20H14C13.4477 20 13 19.5523 13 19C13 18.9367 13.006 18.8735 13.018 18.8113L13.9787 13.8113C14.0692 13.3404 14.4812 13 14.9607 13ZM19.851 14.5C19.851 14.5 18.2818 14.5 15.1434 14.5L14.4709 17.0841C15.2637 16.277 15.9896 15.8734 16.6487 15.8734C17.6374 15.8734 20.0855 15.9929 19.851 14.5Z" fill="black" fill-opacity="0.45"/>
</svg>
