<svg width="24" height="24" viewBox="0 0 24 24" fill="none" xmlns="http://www.w3.org/2000/svg">
<path d="M7.31778 4.74744C10.7423 4.34095 21.9911 4.55776 21.9911 4.55776V6.40052C21.9911 6.40052 16.5208 6.33897 12.2003 6.34031C11.5511 6.47374 10.9324 6.89504 10.5236 7.33253C10.0545 7.83459 9.68517 8.50084 9.34715 9.15451L8.61285 10.5751C7.06437 13.5716 5.3962 16.7997 3.95991 19.5021H2C2.48692 18.571 3.46041 16.6985 4.4796 14.7382C5.86451 12.0745 7.3338 9.2484 7.78136 8.40112C8.40842 7.21406 8.65935 6.81812 9.13964 6.35682C8.42528 6.36632 7.85085 6.38044 7.4866 6.40051C5.3325 6.51916 4.47296 7.38595 3.93628 7.92716C3.86011 8.00398 3.79043 8.07424 3.72449 8.13486H2.78396C2.78396 8.13486 4.00864 5.14024 7.31778 4.74744Z" fill="black" fill-opacity="0.45"/>
<path fill-rule="evenodd" clip-rule="evenodd" d="M13.2681 7.42302C11.5831 7.42302 10.2172 8.78895 10.2172 10.4739C10.2172 11.6822 10.9196 12.7264 11.9383 13.2205L8.66369 19.5022H10.6236L13.7444 13.5248H18.9491C20.634 13.5248 22 12.1589 22 10.4739C22 8.78895 20.634 7.42302 18.9491 7.42302H13.2681ZM14.6232 11.8416H18.9491C19.7044 11.8416 20.3167 11.2292 20.3167 10.4739C20.3167 9.71859 19.7044 9.10628 18.9491 9.10628H16.0513L14.6232 11.8416ZM14.083 9.10628H13.2681C12.5128 9.10628 11.9005 9.71859 11.9005 10.4739C11.9005 11.0333 12.2363 11.5142 12.7173 11.7261L14.083 9.10628Z" fill="black" fill-opacity="0.45"/>
<path d="M15.2841 14.4063L12.6275 19.5021L14.5877 19.5021L17.2438 14.4063H15.2841Z" fill="black" fill-opacity="0.45"/>
<path d="M19.2466 14.4063L16.5913 19.5021L18.5514 19.5021L21.2071 14.4063H19.2466Z" fill="black" fill-opacity="0.45"/>
</svg>
