<svg width="24" height="24" viewBox="0 0 24 24" fill="none" xmlns="http://www.w3.org/2000/svg">
<path fill-rule="evenodd" clip-rule="evenodd" d="M17.27 15.27L13 19.54L8.73 15.27C8.28 14.81 8 14.19 8 13.5C8 12.12 9.12 11 10.5 11C11.19 11 11.82 11.28 12.27 11.74L13 12.46L13.73 11.73C14.18 11.28 14.81 11 15.5 11C16.88 11 18 12.12 18 13.5C18 14.19 17.72 14.82 17.27 15.27ZM11.5286 2H2V11.5L13.0086 22.5536L22.5367 13L11.5286 2ZM5.5 7C4.67 7 4 6.33 4 5.5C4 4.67 4.67 4 5.5 4C6.33 4 7 4.67 7 5.5C7 6.33 6.33 7 5.5 7Z" fill="black" fill-opacity="0.45"/>
</svg>
