<svg width="24" height="24" viewBox="0 0 24 24" fill="none" xmlns="http://www.w3.org/2000/svg">
<path fill-rule="evenodd" clip-rule="evenodd" d="M20 18.5C20 20.425 18.4455 22 16.5455 22H10.2409C9.30818 22 8.42727 21.6238 7.77955 20.9587L1 13.9762C1 13.9762 1.82961 13.1013 2.12273 12.8825C2.41584 12.6637 2.54955 12.653 2.805 12.6287C3.06045 12.6045 3.16773 12.6813 3.32318 12.7688C3.35773 12.7775 7.04545 14.9213 7.04545 14.9213V4.5C7.04545 3.77375 7.62409 3.1875 8.34091 3.1875C9.05773 3.1875 9.63636 3.77375 9.63636 4.5V10.625H10.5V2.3125C10.5 1.58625 11.0786 1 11.7955 1C12.5123 1 13.0909 1.58625 13.0909 2.3125V10.625H13.9545V3.1875C13.9545 2.46125 14.5332 1.875 15.25 1.875C15.9668 1.875 16.5455 2.46125 16.5455 3.1875V10.625H17.4091V5.8125C17.4091 5.08625 17.9877 4.5 18.7045 4.5C19.4214 4.5 20 5.08625 20 5.8125V18.5Z" fill="black" fill-opacity="0.45"/>
</svg>
