<svg width="24" height="24" viewBox="0 0 24 24" fill="none" xmlns="http://www.w3.org/2000/svg">
<path fill-rule="evenodd" clip-rule="evenodd" d="M3.5 10C3.5 6.40333 6.40333 3.5 10 3.5C13.5967 3.5 16.5 6.40333 16.5 10C16.5 11.4366 16.0368 12.7625 15.2513 13.8371L20.5711 19.1569L19.1569 20.5711L13.8371 15.2513C12.7625 16.0368 11.4366 16.5 10 16.5C6.40333 16.5 3.5 13.5967 3.5 10ZM10 5.5C7.51 5.5 5.5 7.51 5.5 10C5.5 12.49 7.51 14.5 10 14.5C12.49 14.5 14.5 12.49 14.5 10C14.5 7.51 12.49 5.5 10 5.5Z" fill="black" fill-opacity="0.45"/>
</svg>
