<svg width="24" height="24" viewBox="0 0 24 24" fill="none" xmlns="http://www.w3.org/2000/svg">
<path fill-rule="evenodd" clip-rule="evenodd" d="M11 4H13V7H11V4ZM18.364 7.05025L16.9497 5.63604L14.8284 7.75736L16.2426 9.17157L18.364 7.05025ZM20 13H17V11H20V13ZM12 8C9.79086 8 8 9.79086 8 12C8 14.2091 9.79086 16 12 16C14.2091 16 16 14.2091 16 12C16 9.79086 14.2091 8 12 8ZM16.9497 18.364L18.364 16.9497L16.2426 14.8284L14.8284 16.2426L16.9497 18.364ZM11 20V17H13V20H11ZM5.63604 16.9497L7.05025 18.364L9.17157 16.2426L7.75736 14.8284L5.63604 16.9497ZM4 13V11H7V13H4ZM7.05025 5.63604L5.63604 7.05025L7.75736 9.17157L9.17157 7.75736L7.05025 5.63604Z" fill="black" fill-opacity="0.45"/>
</svg>
