<svg width="24" height="24" viewBox="0 0 24 24" fill="none" xmlns="http://www.w3.org/2000/svg">
<path d="M6 10H16V12H6V10Z" fill="black" fill-opacity="0.45"/>
<path fill-rule="evenodd" clip-rule="evenodd" d="M11 2C6.041 2 2 6.041 2 11C2 15.959 6.041 20 11 20C13.1204 20 15.0729 19.2612 16.6135 18.0277L20.2426 21.6569L21.6569 20.2426L18.0277 16.6135C19.2612 15.0729 20 13.1204 20 11C20 6.041 15.959 2 11 2ZM11 18C7.14125 18 4 14.8588 4 11C4 7.14125 7.14125 4 11 4C14.8588 4 18 7.14125 18 11C18 14.8588 14.8588 18 11 18Z" fill="black" fill-opacity="0.45"/>
</svg>
