<svg width="24" height="24" viewBox="0 0 24 24" fill="none" xmlns="http://www.w3.org/2000/svg">
<path fill-rule="evenodd" clip-rule="evenodd" d="M12 5.99999C15.87 5.99999 19 9.12999 19 13C19 13.84 18.84 14.65 18.57 15.4L20.09 16.92C20.67 15.73 21 14.41 21 13C21 8.02999 16.97 3.99999 12 3.99999C10.59 3.99999 9.27002 4.32999 8.08002 4.90999L9.60002 6.42999C10.35 6.15999 11.16 5.99999 12 5.99999ZM22 5.71999L17.4 1.85999L16.11 3.38999L20.71 7.24999L22 5.71999ZM2.92002 2.28999L1.65002 3.56999L2.98002 4.89999L1.87002 5.82999L3.29002 7.24999L4.40002 6.30999L5.20002 7.10999C3.83002 8.68999 3.00002 10.75 3.00002 13C3.00002 17.97 7.02002 22 12 22C14.25 22 16.31 21.17 17.89 19.8L20.09 22L21.36 20.73L3.89002 3.26999L2.92002 2.28999ZM16.47 18.39C15.26 19.39 13.7 20 12 20C8.13002 20 5.00002 16.87 5.00002 13C5.00002 11.3 5.61002 9.73999 6.61002 8.52999L16.47 18.39ZM8.02002 3.27999L6.60002 1.85999L5.74002 2.56999L7.16002 3.98999L8.02002 3.27999Z" fill="black" fill-opacity="0.45"/>
</svg>
