<svg width="24" height="24" viewBox="0 0 24 24" fill="none" xmlns="http://www.w3.org/2000/svg">
<path fill-rule="evenodd" clip-rule="evenodd" d="M6.26101 17.5415L6.66434 16.3315L5.83957 15.4611C4.67009 14.2268 4 12.6699 4 11C4 7.32701 7.3783 4 12 4C16.6217 4 20 7.32701 20 11C20 14.673 16.6217 18 12 18C10.7296 18 9.53718 17.7412 8.48138 17.2867L7.71874 16.9584L6.26101 17.5415ZM4.38777 16.8367L3 21L7.69062 19.1238C8.99556 19.6855 10.457 20 12 20C17.5228 20 22 15.9706 22 11C22 6.02944 17.5228 2 12 2C6.47715 2 2 6.02944 2 11C2 13.2271 2.89881 15.2653 4.38777 16.8367ZM7.5 12.5C8.32843 12.5 9 11.8284 9 11C9 10.1716 8.32843 9.5 7.5 9.5C6.67157 9.5 6 10.1716 6 11C6 11.8284 6.67157 12.5 7.5 12.5ZM12 12.5C12.8284 12.5 13.5 11.8284 13.5 11C13.5 10.1716 12.8284 9.5 12 9.5C11.1716 9.5 10.5 10.1716 10.5 11C10.5 11.8284 11.1716 12.5 12 12.5ZM18 11C18 11.8284 17.3284 12.5 16.5 12.5C15.6716 12.5 15 11.8284 15 11C15 10.1716 15.6716 9.5 16.5 9.5C17.3284 9.5 18 10.1716 18 11Z" fill="black" fill-opacity="0.45"/>
</svg>
