<svg width="24" height="24" viewBox="0 0 24 24" fill="none" xmlns="http://www.w3.org/2000/svg">
<path fill-rule="evenodd" clip-rule="evenodd" d="M7.58003 4.08002L6.15003 2.65002C3.75003 4.48002 2.17003 7.30002 2.03003 10.5H4.03003C4.18003 7.85002 5.54003 5.53002 7.58003 4.08002ZM19.97 10.5H21.97C21.82 7.30002 20.24 4.48002 17.85 2.65002L16.43 4.08002C18.45 5.53002 19.82 7.85002 19.97 10.5ZM13.5 4.68002V3.00002C13.5 3.00002 12.83 3.00002 12 3.00002C11.17 3.00002 10.5 3.00002 10.5 3.00002V4.68002C7.63003 5.36002 6.00003 7.92002 6.00003 11V16L4.00003 18V19H20V18L18 16V11C18 7.93002 16.36 5.36002 13.5 4.68002ZM12 22C12.14 22 12.27 21.99 12.4 21.96C13.05 21.82 13.58 21.38 13.84 20.78C13.94 20.54 13.99 20.28 13.99 20H9.99003C10 21.1 10.89 22 12 22Z" fill="black" fill-opacity="0.45"/>
</svg>
